{
DisplayStrings = (
"\U00BF",
"?"
);
copyright = "Copyright (c) 2016 ResearchGate";
customParameters = (
{
name = license;
value = "This Font Software is licensed under the SIL Open Font License, Version 1.1. This license is available with a FAQ at: http://scripts.sil.org/OFL";
},
{
name = licenseURL;
value = "http://scripts.sil.org/OFL";
},
{
name = vendorID;
value = "STC ";
},
{
name = glyphOrder;
value = (
    ".notdef",
    uni0000,
    uni000D,
    NULL,
    space,
    exclam,
    quotedbl,
    numbersign,
    dollar,
    percent,
    ampersand,
    quotesingle,
    parenleft,
    parenright,
    asterisk,
    plus,
    comma,
    hyphen,
    period,
    slash,
    zero,
    one,
    two,
    three,
    four,
    five,
    six,
    seven,
    eight,
    nine,
    colon,
    semicolon,
    less,
    equal,
    greater,
    question,
    at,
    A,
    B,
    C,
    D,
    E,
    F,
    G,
    H,
    I,
    J,
    K,
    L,
    M,
    N,
    O,
    P,
    Q,
    R,
    S,
    T,
    U,
    V,
    W,
    X,
    Y,
    Z,
    bracketleft,
    backslash,
    bracketright,
    asciicircum,
    underscore,
    grave,
    a,
    b,
    c,
    d,
    e,
    f,
    g,
    h,
    i,
    j,
    k,
    l,
    m,
    n,
    o,
    p,
    q,
    r,
    s,
    t,
    u,
    v,
    w,
    x,
    y,
    z,
    braceleft,
    bar,
    braceright,
    asciitilde,
    uni00A0,
    exclamdown,
    cent,
    sterling,
    currency,
    yen,
    brokenbar,
    section,
    dieresis,
    copyright,
    ordfeminine,
    guillemotleft,
    logicalnot,
    uni00AD,
    registered,
    macron,
    degree,
    plusminus,
    acute,
    uni00B5,
    paragraph,
    periodcentered,
    cedilla,
    ordmasculine,
    guillemotright,
    onequarter,
    onehalf,
    threequarters,
    questiondown,
    Agrave,
    Aacute,
    Acircumflex,
    Atilde,
    Adieresis,
    Aring,
    AE,
    Ccedilla,
    Egrave,
    Eacute,
    Ecircumflex,
    Edieresis,
    Igrave,
    Iacute,
    Icircumflex,

glyphs = (
{
glyphname = A;
layers = (
{
layerId = "35FD6BC4-8300-47F6-A560-C4E3FDEA81EC";
name = Bold;
paths = (
{
closed = 1;
nodes = (
"69 141 LINE",
"475 1346 LINE",
"786 1346 LINE",
"1195 140 LINE",
"1297 118 LINE",
"1297 0 LINE",
"740 0 LINE",
"740 118 LINE",
"867 141 LINE",
"803 358 LINE",
"361 358 LINE",
"299 137 LINE",
"439 118 LINE",
"439 0 LINE",
"-35 0 LINE",
"-37 118 LINE"
);
},
{
closed = 1;
nodes = (
"764 494 LINE",
"605 1038 LINE",
"577 1162 LINE",
"550 1038 LINE",
"399 494 LINE"
);
}
);
width = 1269;
}
);
note = A;
unicode = 0041;
},
{
glyphname = Aacute;
layers = (
{
layerId = "35FD6BC4-8300-47F6-A560-C4E3FDEA81EC";
name = Bold;
paths = (
{
closed = 1;
nodes = (
"69 141 LINE",
"475 1346 LINE",
"786 1346 LINE",
"1195 140 LINE",
"1297 118 LINE",
"1297 0 LINE",
"740 0 LINE",
"740 118 LINE",
"867 141 LINE",
"803 358 LINE",
"361 358 LINE",
"299 137 LINE",
"439 118 LINE",
"439 0 LINE",
"-35 0 LINE",
"-37 118 LINE"
);
},
{
closed = 1;
nodes = (
"764 494 LINE",
"605 1038 LINE",
"577 1162 LINE",
"550 1038 LINE",
"399 494 LINE"
);
},
{
closed = 1;
nodes = (
"774 1772 LINE",
"775 1772 LINE",
"956 1642 LINE",
"897 1573 OFFCURVE",
"798 1506 OFFCURVE",
"709 1463 CURVE SMOOTH",
"664 1441 OFFCURVE",
"629 1427 OFFCURVE",
"603 1420 CURVE",
"602 1420 LINE",
"499 1498 LINE"
);
}
);
width = 1269;
}
);
note = Aacute;
unicode = 00C1;
},
{
glyphname = Abreve;
layers = (
{
layerId = "35FD6BC4-8300-47F6-A560-C4E3FDEA81EC";
name = Bold;
paths = (
{
closed = 1;
nodes = (
"69 141 LINE",
"475 1346 LINE",
"786 1346 LINE",
"1195 140 LINE",
"1297 118 LINE",
"1297 0 LINE",
"740 0 LINE",
"740 118 LINE",
"867 141 LINE",
"803 358 LINE",
"361 358 LINE",
"299 137 LINE",
"439 118 LINE",
"439 0 LINE",
"-35 0 LINE",
"-37 118 LINE"
);
},
{
closed = 1;
nodes = (
"764 494 LINE",
"605 1038 LINE",
"577 1162 LINE",
"550 1038 LINE",
"399 494 LINE"
);
},
{
closed = 1;
nodes = (
"307 1741 OFFCURVE",
"307 1755 OFFCURVE",
"308 1764 CURVE",
"447 1764 LINE",
"449 1743 LINE",
"461 1678 OFFCURVE",
"513 1614 OFFCURVE",
"640 1614 CURVE SMOOTH",
"765 1614 OFFCURVE",
"814 1676 OFFCURVE",
"823 1743 CURVE SMOOTH",
"824 1749 OFFCURVE",
"824 1756 OFFCURVE",
"824 1764 CURVE",
"966 1764 LINE",
"967 1755 OFFCURVE",
"968 1742 OFFCURVE",
"968 1725 CURVE SMOOTH",
"968 1618 OFFCURVE",
"916 1525 OFFCURVE",
"817 1472 CURVE SMOOTH",
"767 1445 OFFCURVE",
"707 1432 OFFCURVE",
"638 1432 CURVE SMOOTH",
"495 1432 OFFCURVE",
"393 1489 OFFCURVE",
"344 1578 CURVE SMOOTH",
"319 1622 OFFCURVE",
"307 1671 OFFCURVE",
"307 1724 CURVE SMOOTH"
);
}
);
width = 1269;
}
);
note = Abreve;
unicode = 0102;
},
{
glyphname = Acircumflex;
layers = (
{
layerId = "35FD6BC4-8300-47F6-A560-C4E3FDEA81EC";
name = Bold;
paths = (
{
closed = 1;
nodes = (
"69 141 LINE",
"475 1346 LINE",
"786 1346 LINE",
"1195 140 LINE",
"1297 118 LINE",
"1297 0 LINE",
"740 0 LINE",
"740 118 LINE",
"867 141 LINE",
"803 358 LINE",
"361 358 LINE",
"299 137 LINE",
"439 118 LINE",
"439 0 LINE",
"-35 0 LINE",
"-37 118 LINE"
);
},
{
closed = 1;
nodes = (
"764 494 LINE",
"605 1038 LINE",
"577 1162 LINE",
"550 1038 LINE",
"399 494 LINE"
);
},
{
closed = 1;
nodes = (
"545 1767 LINE",
"723 1767 LINE",
"987 1507 LINE",
"888 1429 LINE",
"634 1597 LINE",
"378 1429 LINE",
"282 1506 LINE"
);
}
);
width = 1269;
}
);
note = Acircumflex;
unicode = 00C2;
},
{
glyphname = Adieresis;
layers = (
{
layerId = "35FD6BC4-8300-47F6-A560-C4E3FDEA81EC";
name = Bold;
paths = (
{
closed = 1;
nodes = (
"69 141 LINE",
"475 1346 LINE",
"786 1346 LINE",
"1195 140 LINE",
"1297 118 LINE",
"1297 0 LINE",
"740 0 LINE",
"740 118 LINE",
"867 141 LINE",
"803 358 LINE",
"361 358 LINE",
"299 137 LINE",
"439 118 LINE",
"439 0 LINE",
"-35 0 LINE",
"-37 118 LINE"
);
},
{
closed = 1;
nodes = (
"764 494 LINE",
"605 1038 LINE",
"577 1162 LINE",
"550 1038 LINE",
"399 494 LINE"
);
},
{
closed = 1;
nodes = (
"254 1689 OFFCURVE",
"309 1757 OFFCURVE",
"410 1757 CURVE SMOOTH",
"411 1757 LINE SMOOTH",
"503 1757 OFFCURVE",
"553 1696 OFFCURVE",
"553 1619 CURVE SMOOTH",
"553 1520 OFFCURVE",
"497 1455 OFFCURVE",
"385 1455 CURVE SMOOTH",
"384 1455 LINE SMOOTH",
"333 1455 OFFCURVE",
"293 1481 OFFCURVE",
"271 1524 CURVE SMOOTH",
"260 1545 OFFCURVE",
"254 1569 OFFCURVE",
"254 1594 CURVE SMOOTH"
);
},
{
closed = 1;
nodes = (
"719 1689 OFFCURVE",
"773 1757 OFFCURVE",
"873 1757 CURVE SMOOTH",
"874 1757 LINE SMOOTH",
"967 1757 OFFCURVE",
"1018 1696 OFFCURVE",
"1018 1619 CURVE SMOOTH",
"1018 1520 OFFCURVE",
"961 1455 OFFCURVE",
"849 1455 CURVE SMOOTH",
"848 1455 LINE SMOOTH",
"799 1455 OFFCURVE",
"758 1483 OFFCURVE",
"736 1526 CURVE SMOOTH",
"725 1547 OFFCURVE",
"719 1570 OFFCURVE",
"719 1594 CURVE SMOOTH"
);
}
);
width = 1269;
}
);
note = Adieresis;
unicode = 00C4;
},
{
glyphname = Agrave;
layers = (
{
layerId = "35FD6BC4-8300-47F6-A560-C4E3FDEA81EC";
name = Bold;
paths = (
{
closed = 1;
nodes = (
"69 141 LINE",
"475 1346 LINE",
"786 1346 LINE",
"1195 140 LINE",
"1297 118 LINE",
"1297 0 LINE",
"740 0 LINE",
"740 118 LINE",
"867 141 LINE",
"803 358 LINE",
"361 358 LINE",
"299 137 LINE",
"439 118 LINE",
"439 0 LINE",
"-35 0 LINE",
"-37 118 LINE"
);
},
{
closed = 1;
nodes = (
"764 494 LINE",
"605 1038 LINE",
"577 1162 LINE",
"550 1038 LINE",
"399 494 LINE"
);
},
{
closed = 1;
nodes = (
"507 1772 LINE",
"508 1772 LINE",
"783 1498 LINE",
"680 1420 LINE",
"679 1420 LINE",
"620 1436 OFFCURVE",
"512 1488 OFFCURVE",
"424 1551 CURVE SMOOTH",
"379 1582 OFFCURVE",
"347 1613 OFFCURVE",
"327 1642 CURVE"
);
}
);
width = 1269;
}
);
note = Agrave;
unicode = 00C0;
},
{
glyphname = Amacron;
layers = (
{
layerId = "35FD6BC4-8300-47F6-A560-C4E3FDEA81EC";
name = Bold;
paths = (
{
closed = 1;
nodes = (
"69 141 LINE",
"475 1346 LINE",
"786 1346 LINE",
"1195 140 LINE",
"1297 118 LINE",
"1297 0 LINE",
"740 0 LINE",
"740 118 LINE",
"867 141 LINE",
"803 358 LINE",
"361 358 LINE",
"299 137 LINE",
"439 118 LINE",
"439 0 LINE",
"-35 0 LINE",
"-37 118 LINE"
);
},
{
closed = 1;
nodes = (
"764 494 LINE",
"605 1038 LINE",
"577 1162 LINE",
"550 1038 LINE",
"399 494 LINE"
);
},
{
closed = 1;
nodes = (
"918 1685 LINE",
"918 1514 LINE",
"356 1514 LINE",
"356 1685 LINE"
);
}
);
width = 1269;
}
);
note = Amacron;
unicode = 0100;
},
{
glyphname = Aogonek;
layers = (
{
layerId = "35FD6BC4-8300-47F6-A560-C4E3FDEA81EC";
name = Bold;
paths = (
{
closed = 1;
nodes = (
"69 141 LINE",
"475 1346 LINE",
"786 1346 LINE",
"1195 140 LINE",
"1297 118 LINE",
"1297 0 LINE",
"1184 0 LINE",
"1109 -28 OFFCURVE",
"1048 -76 OFFCURVE",
"1016 -127 CURVE",
"999 -152 OFFCURVE",
"991 -176 OFFCURVE",
"991 -198 CURVE SMOOTH",
"991 -258 OFFCURVE",
"1041 -290 OFFCURVE",
"1118 -290 CURVE SMOOTH",
"1158 -290 OFFCURVE",
"1188 -284 OFFCURVE",
"1228 -268 CURVE",
"1228 -392 LINE",
"1180 -428 OFFCURVE",
"1084 -451 OFFCURVE",
"1007 -451 CURVE SMOOTH",
"911 -451 OFFCURVE",
"835 -423 OFFCURVE",
"792 -369 CURVE SMOOTH",
"770 -342 OFFCURVE",
"759 -310 OFFCURVE",
"759 -272 CURVE SMOOTH",
"759 -204 OFFCURVE",
"808 -129 OFFCURVE",
"888 -69 CURVE SMOOTH",
"928 -40 OFFCURVE",
"972 -17 OFFCURVE",
"1020 0 CURVE",
"740 0 LINE",
"740 118 LINE",
"867 141 LINE",
"803 358 LINE",
"361 358 LINE",
"299 137 LINE",
"439 118 LINE",
"439 0 LINE",
"-35 0 LINE",
"-37 118 LINE"
);
},
{
closed = 1;
nodes = (
"764 494 LINE",
"605 1038 LINE",
"577 1162 LINE",
"550 1038 LINE",
"399 494 LINE"
);
}
);
width = 1269;
}
);
note = Aogonek;
unicode = 0104;
},
{
glyphname = Aring;
layers = (
{
layerId = "35FD6BC4-8300-47F6-A560-C4E3FDEA81EC";
name = Bold;
paths = (
{
closed = 1;
nodes = (
"1297 118 LINE",
"1297 0 LINE",
"740 0 LINE",
"740 118 LINE",
"867 141 LINE",
"803 358 LINE",
"361 358 LINE",
"299 137 LINE",
"439 118 LINE",
"439 0 LINE",
"-35 0 LINE",
"-37 118 LINE",
"69 141 LINE",
"470 1331 LINE",
"369 1367 OFFCURVE",
"323 1443 OFFCURVE",
"323 1536 CURVE SMOOTH",
"323 1635 OFFCURVE",
"383 1708 OFFCURVE",
"481 1745 CURVE SMOOTH",
"530 1763 OFFCURVE",
"585 1772 OFFCURVE",
"646 1772 CURVE SMOOTH",
"647 1772 LINE SMOOTH",
"852 1772 OFFCURVE",
"950 1679 OFFCURVE",
"950 1539 CURVE SMOOTH",
"950 1442 OFFCURVE",
"890 1369 OFFCURVE",
"790 1332 CURVE",
"1195 140 LINE"
);
},
{
closed = 1;
nodes = (
"638 1667 LINE SMOOTH",
"538 1667 OFFCURVE",
"502 1622 OFFCURVE",
"502 1542 CURVE SMOOTH",
"502 1467 OFFCURVE",
"544 1411 OFFCURVE",
"637 1411 CURVE SMOOTH",
"638 1411 LINE SMOOTH",
"738 1411 OFFCURVE",
"771 1451 OFFCURVE",
"771 1531 CURVE SMOOTH",
"771 1612 OFFCURVE",
"732 1667 OFFCURVE",
"639 1667 CURVE SMOOTH"
);
},
{
closed = 1;
nodes = (
"764 494 LINE",
"605 1038 LINE",
"577 1162 LINE",
"550 1038 LINE",
"399 494 LINE"
);
}
);
width = 1269;
}
);
note = Aring;
unicode = 00C5;
},
{
glyphname = Atilde;
layers = (
{
layerId = "35FD6BC4-8300-47F6-A560-C4E3FDEA81EC";
name = Bold;
paths = (
{
closed = 1;
nodes = (
"69 141 LINE",
"475 1346 LINE",
"786 1346 LINE",
"1195 140 LINE",
"1297 118 LINE",
"1297 0 LINE",
"740 0 LINE",
"740 118 LINE",
"867 141 LINE",
"803 358 LINE",
"361 358 LINE",
"299 137 LINE",
"439 118 LINE",
"439 0 LINE",
"-35 0 LINE",
"-37 118 LINE"
);
},
{
closed = 1;
nodes = (
"764 494 LINE",
"605 1038 LINE",
"577 1162 LINE",
"550 1038 LINE",
"399 494 LINE"
);
},
{
closed = 1;
nodes = (
"404 1593 OFFCURVE",
"371 1563 OFFCURVE",
"332 1516 CURVE SMOOTH",
"318 1500 LINE",
"227 1579 LINE",
"252 1636 OFFCURVE",
"301 1698 OFFCURVE",
"376 1738 CURVE SMOOTH",
"413 1758 OFFCURVE",
"455 1768 OFFCURVE",
"500 1768 CURVE SMOOTH",
"576 1768 OFFCURVE",
"623 1740 OFFCURVE",
"692 1689 CURVE SMOOTH",
"747 1649 OFFCURVE",
"777 1631 OFFCURVE",
"818 1631 CURVE SMOOTH",
"877 1631 OFFCURVE",
"903 1657 OFFCURVE",
"938 1704 CURVE SMOOTH",
"953 1723 LINE",
"1045 1645 LINE",
"982 1518 OFFCURVE",
"897 1455 OFFCURVE",
"789 1455 CURVE SMOOTH",
"717 1455 OFFCURVE",
"670 1480 OFFCURVE",
"597 1531 CURVE SMOOTH",
"537 1574 OFFCURVE",
"503 1593 OFFCURVE",
"456 1593 CURVE SMOOTH"
);
}
);
width = 1269;
}
);
note = Atilde;
unicode = 00C3;
},
{
glyphname = AE;
layers = (
{
layerId = "35FD6BC4-8300-47F6-A560-C4E3FDEA81EC";
name = Bold;
paths = (
{
closed = 1;
nodes = (
"715 138 LINE",
"715 369 LINE",
"303 369 LINE",
"217 139 LINE",
"348 116 LINE",
"348 0 LINE",
"-145 0 LINE",
"-145 116 LINE",
"-18 141 LINE",
"422 1191 LINE",
"199 1215 LINE",
"199 1339 LINE",
"1550 1339 LINE",
"1574 1028 LINE",
"1432 1028 LINE",
"1370 1204 LINE",
"1012 1221 LINE",
"1012 752 LINE",
"1236 758 LINE",
"1267 901 LINE",
"1397 901 LINE",
"1397 457 LINE",
"1268 457 LINE",
"1237 608 LINE",
"1012 613 LINE",
"1012 128 LINE",
"1413 151 LINE",
"1530 378 LINE",
"1693 332 LINE",
"1632 0 LINE",
"577 0 LINE",
"577 116 LINE"
);
},
{
closed = 1;
nodes = (
"715 509 LINE",
"715 1208 LINE",
"617 1208 LINE",
"525 965 LINE",
"355 509 LINE"
);
}
);
width = 1698;
}
);
note = AE;
unicode = 00C6;
},
{
glyphname = AEacute;
layers = (
{
layerId = "35FD6BC4-8300-47F6-A560-C4E3FDEA81EC";
name = Bold;
paths = (
{
closed = 1;
nodes = (
"1014 1772 LINE",
"1015 1772 LINE",
"1196 1642 LINE",
"1137 1573 OFFCURVE",
"1038 1506 OFFCURVE",
"949 1463 CURVE SMOOTH",
"904 1441 OFFCURVE",
"869 1427 OFFCURVE",
"843 1420 CURVE",
"842 1420 LINE",
"739 1498 LINE"
);
},
{
closed = 1;
nodes = (
"715 138 LINE",
"715 369 LINE",
"303 369 LINE",
"217 139 LINE",
"348 116 LINE",
"348 0 LINE",
"-145 0 LINE",
"-145 116 LINE",
"-18 141 LINE",
"422 1191 LINE",
"199 1215 LINE",
"199 1339 LINE",
"1550 1339 LINE",
"1574 1028 LINE",
"1432 1028 LINE",
"1370 1204 LINE",
"1012 1221 LINE",
"1012 752 LINE",
"1236 758 LINE",
"1267 901 LINE",
"1397 901 LINE",
"1397 457 LINE",
"1268 457 LINE",
"1237 608 LINE",
"1012 613 LINE",
"1012 128 LINE",
"1413 151 LINE",
"1530 378 LINE",
"1693 332 LINE",
"1632 0 LINE",
"577 0 LINE",
"577 116 LINE"
);
},
{
closed = 1;
nodes = (
"715 509 LINE",
"715 1208 LINE",
"617 1208 LINE",
"525 965 LINE",
"355 509 LINE"
);
}
);
width = 1698;
}
);
note = AEacute;
unicode = 01FC;
},
{
glyphname = B;
layers = (
{
layerId = "35FD6BC4-8300-47F6-A560-C4E3FDEA81EC";
name = Bold;
paths = (
{
closed = 1;
nodes = (
"205 141 LINE",
"205 1191 LINE",
"70 1215 LINE",
"70 1339 LINE",
"346 1339 LINE SMOOTH",
"377 1339 OFFCURVE",
"429 1341 OFFCURVE",
"503 1346 CURVE SMOOTH",
"561 1349 OFFCURVE",
"604 1351 OFFCURVE",
"631 1351 CURVE SMOOTH",
"884 1351 OFFCURVE",
"1027 1302 OFFCURVE",
"1088 1214 CURVE SMOOTH",
"1119 1169 OFFCURVE",
"1134 1113 OFFCURVE",
"1134 1046 CURVE SMOOTH",
"1134 927 OFFCURVE",
"1082 833 OFFCURVE",
"995 774 CURVE SMOOTH",
"952 745 OFFCURVE",
"902 726 OFFCURVE",
"847 717 CURVE",
"999 718 OFFCURVE",
"1117 668 OFFCURVE",
"1181 573 CURVE SMOOTH",
"1212 526 OFFCURVE",
"1228 469 OFFCURVE",
"1228 404 CURVE SMOOTH",
"1228 127 OFFCURVE",
"1036 -11 OFFCURVE",
"651 -11 CURVE SMOOTH",
"610 -11 OFFCURVE",
"560 -9 OFFCURVE",
"500 -5 CURVE SMOOTH",
"441 -2 OFFCURVE",
"392 0 OFFCURVE",
"351 0 CURVE SMOOTH",
"68 0 LINE",
"68 118 LINE"
);
},
{
closed = 1;
nodes = (
"500 764 LINE",
"522 761 OFFCURVE",
"569 760 OFFCURVE",
"641 760 CURVE SMOOTH",
"780 760 OFFCURVE",
"840 847 OFFCURVE",
"840 1011 CURVE SMOOTH",
"840 1164 OFFCURVE",
"777 1231 OFFCURVE",
"622 1231 CURVE SMOOTH",
"586 1231 OFFCURVE",
"523 1226 OFFCURVE",
"500 1222 CURVE"
);
},
{
closed = 1;
nodes = (
"499 128 LINE",
"518 118 OFFCURVE",
"565 113 OFFCURVE",
"642 113 CURVE SMOOTH",
"825 113 OFFCURVE",
"903 208 OFFCURVE",
"903 381 CURVE SMOOTH",
"903 501 OFFCURVE",
"869 569 OFFCURVE",
"797 602 CURVE SMOOTH",
"761 618 OFFCURVE",
"714 626 OFFCURVE",
"656 626 CURVE SMOOTH",
"585 626 OFFCURVE",
"532 625 OFFCURVE",
"499 623 CURVE"
);
}
);
width = 1280;
}
);
note = B;
unicode = 0042;
},
{
glyphname = C;
layers = (
{
layerId = "35FD6BC4-8300-47F6-A560-C4E3FDEA81EC";
name = Bold;
paths = (
{
closed = 1;
nodes = (
"48 945 OFFCURVE",
"172 1161 OFFCURVE",
"373 1271 CURVE SMOOTH",
"474 1326 OFFCURVE",
"588 1353 OFFCURVE",
"715 1353 CURVE SMOOTH",
"820 1353 OFFCURVE",
"912 1341 OFFCURVE",
"1037 1320 CURVE SMOOTH",
"1086 1313 OFFCURVE",
"1116 1308 OFFCURVE",
"1129 1307 CURVE",
"1108 914 LINE",
"920 914 LINE",
"858 1180 LINE",
"838 1207 OFFCURVE",
"785 1226 OFFCURVE",
"693 1226 CURVE SMOOTH",
"569 1226 OFFCURVE",
"475 1144 OFFCURVE",
"424 983 CURVE SMOOTH",
"399 902 OFFCURVE",
"386 803 OFFCURVE",
"386 686 CURVE SMOOTH",
"386 466 OFFCURVE",
"432 285 OFFCURVE",
"528 184 CURVE SMOOTH",
"576 133 OFFCURVE",
"636 108 OFFCURVE",
"708 108 CURVE SMOOTH",
"799 108 OFFCURVE",
"846 133 OFFCURVE",
"875 166 CURVE",
"959 361 LINE",
"1130 345 LINE",
"1096 49 LINE",
"1059 46 OFFCURVE",
"1031 38 OFFCURVE",
"979 23 CURVE SMOOTH",
"888 -4 OFFCURVE",
"821 -20 OFFCURVE",
"704 -20 CURVE SMOOTH",
"419 -20 OFFCURVE",
"221 92 OFFCURVE",
"122 296 CURVE SMOOTH",
"73 397 OFFCURVE",
"48 519 OFFCURVE",
"48 660 CURVE SMOOTH"
);
}
);
width = 1188;
}
);
note = C;
unicode = 0043;
},
{
glyphname = Cacute;
layers = (
{
layerId = "35FD6BC4-8300-47F6-A560-C4E3FDEA81EC";
name = Bold;
paths = (
{
closed = 1;
nodes = (
"48 945 OFFCURVE",
"172 1161 OFFCURVE",
"373 1271 CURVE SMOOTH",
"474 1326 OFFCURVE",
"588 1353 OFFCURVE",
"715 1353 CURVE SMOOTH",
"820 1353 OFFCURVE",
"912 1341 OFFCURVE",
"1037 1320 CURVE SMOOTH",
"1086 1313 OFFCURVE",
"1116 1308 OFFCURVE",
"1129 1307 CURVE",
"1108 914 LINE",
"920 914 LINE",
"858 1180 LINE",
"838 1207 OFFCURVE",
"785 1226 OFFCURVE",
"693 1226 CURVE SMOOTH",
"569 1226 OFFCURVE",
"475 1144 OFFCURVE",
"424 983 CURVE SMOOTH",
"399 902 OFFCURVE",
"386 803 OFFCURVE",
"386 686 CURVE SMOOTH",
"386 466 OFFCURVE",
"432 285 OFFCURVE",
"528 184 CURVE SMOOTH",
"576 133 OFFCURVE",
"636 108 OFFCURVE",
"708 108 CURVE SMOOTH",
"799 108 OFFCURVE",
"846 133 OFFCURVE",
"875 166 CURVE",
"959 361 LINE",
"1130 345 LINE",
"1096 49 LINE",
"1059 46 OFFCURVE",
"1031 38 OFFCURVE",
"979 23 CURVE SMOOTH",
"888 -4 OFFCURVE",
"821 -20 OFFCURVE",
"704 -20 CURVE SMOOTH",
"419 -20 OFFCURVE",
"221 92 OFFCURVE",
"122 296 CURVE SMOOTH",
"73 397 OFFCURVE",
"48 519 OFFCURVE",
"48 660 CURVE SMOOTH"
);
},
{
closed = 1;
nodes = (
"833 1772 LINE",
"834 1772 LINE",
"1015 1642 LINE",
"956 1573 OFFCURVE",
"857 1506 OFFCURVE",
"768 1463 CURVE SMOOTH",
"723 1441 OFFCURVE",
"688 1427 OFFCURVE",
"662 1420 CURVE",
"661 1420 LINE",
"558 1498 LINE"
);
}
);
width = 1188;
}
);
note = Cacute;
unicode = 0106;
},
{
glyphname = Ccaron;
layers = (
{
layerId = "35FD6BC4-8300-47F6-A560-C4E3FDEA81EC";
name = Bold;
paths = (
{
closed = 1;
nodes = (
"48 945 OFFCURVE",
"172 1161 OFFCURVE",
"373 1271 CURVE SMOOTH",
"474 1326 OFFCURVE",
"588 1353 OFFCURVE",
"715 1353 CURVE SMOOTH",
"820 1353 OFFCURVE",
"912 1341 OFFCURVE",
"1037 1320 CURVE SMOOTH",
"1086 1313 OFFCURVE",
"1116 1308 OFFCURVE",
"1129 1307 CURVE",
"1108 914 LINE",
"920 914 LINE",
"858 1180 LINE",
"838 1207 OFFCURVE",
"785 1226 OFFCURVE",
"693 1226 CURVE SMOOTH",
"569 1226 OFFCURVE",
"475 1144 OFFCURVE",
"424 983 CURVE SMOOTH",
"399 902 OFFCURVE",
"386 803 OFFCURVE",
"386 686 CURVE SMOOTH",
"386 466 OFFCURVE",
"432 285 OFFCURVE",
"528 184 CURVE SMOOTH",
"576 133 OFFCURVE",
"636 108 OFFCURVE",
"708 108 CURVE SMOOTH",
"799 108 OFFCURVE",
"846 133 OFFCURVE",
"875 166 CURVE",
"959 361 LINE",
"1130 345 LINE",
"1096 49 LINE",
"1059 46 OFFCURVE",
"1031 38 OFFCURVE",
"979 23 CURVE SMOOTH",
"888 -4 OFFCURVE",
"821 -20 OFFCURVE",
"704 -20 CURVE SMOOTH",
"419 -20 OFFCURVE",
"221 92 OFFCURVE",
"122 296 CURVE SMOOTH",
"73 397 OFFCURVE",
"48 519 OFFCURVE",
"48 660 CURVE SMOOTH"
);
},
{
closed = 1;
nodes = (
"457 1772 LINE",
"694 1616 LINE",
"944 1772 LINE",
"1041 1695 LINE",
"784 1448 LINE",
"605 1448 LINE",
"359 1695 LINE"
);
}
);
width = 1188;
}
);
note = Ccaron;
unicode = 010C;
},
{
glyphname = Ccedilla;
layers = (
{
layerId = "35FD6BC4-8300-47F6-A560-C4E3FDEA81EC";
name = Bold;
paths = (
{
closed = 1;
nodes = (
"1096 49 LINE",
"1060 46 OFFCURVE",
"1038 40 OFFCURVE",
"979 23 CURVE SMOOTH",
"896 -2 OFFCURVE",
"841 -16 OFFCURVE",
"746 -19 CURVE",
"802 -80 OFFCURVE",
"849 -172 OFFCURVE",
"845 -260 CURVE SMOOTH",
"838 -405 OFFCURVE",
"754 -458 OFFCURVE",
"583 -458 CURVE SMOOTH",
"582 -458 LINE SMOOTH",
"542 -458 OFFCURVE",
"486 -447 OFFCURVE",
"455 -432 CURVE",
"456 -265 LINE",
"479 -272 OFFCURVE",
"513 -276 OFFCURVE",
"528 -276 CURVE SMOOTH",
"529 -276 LINE SMOOTH",
"588 -276 OFFCURVE",
"618 -269 OFFCURVE",
"636 -234 CURVE SMOOTH",
"645 -217 OFFCURVE",
"649 -190 OFFCURVE",
"649 -154 CURVE SMOOTH",
"649 -110 OFFCURVE",
"630 -56 OFFCURVE",
"607 -16 CURVE",
"364 9 OFFCURVE",
"195 126 OFFCURVE",
"111 320 CURVE SMOOTH",
"69 417 OFFCURVE",
"48 530 OFFCURVE",
"48 660 CURVE SMOOTH",
"48 945 OFFCURVE",
"172 1161 OFFCURVE",
"373 1271 CURVE SMOOTH",
"474 1326 OFFCURVE",
"588 1353 OFFCURVE",
"715 1353 CURVE SMOOTH",
"820 1353 OFFCURVE",
"912 1341 OFFCURVE",
"1037 1320 CURVE SMOOTH",
"1086 1313 OFFCURVE",
"1116 1308 OFFCURVE",
"1129 1307 CURVE",
"1108 914 LINE",
"920 914 LINE",
"858 1180 LINE",
"838 1207 OFFCURVE",
"785 1226 OFFCURVE",
"693 1226 CURVE SMOOTH",
"569 1226 OFFCURVE",
"475 1144 OFFCURVE",
"424 983 CURVE SMOOTH",
"399 902 OFFCURVE",
"386 803 OFFCURVE",
"386 686 CURVE SMOOTH",
"386 466 OFFCURVE",
"432 285 OFFCURVE",
"528 184 CURVE SMOOTH",
"576 133 OFFCURVE",
"636 108 OFFCURVE",
"708 108 CURVE SMOOTH",
"799 108 OFFCURVE",
"846 133 OFFCURVE",
"875 166 CURVE",
"959 361 LINE",
"1130 345 LINE"
);
}
);
width = 1188;
}
);
note = Ccedilla;
unicode = 00C7;
},
{
glyphname = Ccircumflex;
layers = (
{
layerId = "35FD6BC4-8300-47F6-A560-C4E3FDEA81EC";
name = Bold;
paths = (
{
closed = 1;
nodes = (
"48 945 OFFCURVE",
"172 1161 OFFCURVE",
"373 1271 CURVE SMOOTH",
"474 1326 OFFCURVE",
"588 1353 OFFCURVE",
"715 1353 CURVE SMOOTH",
"820 1353 OFFCURVE",
"912 1341 OFFCURVE",
"1037 1320 CURVE SMOOTH",
"1086 1313 OFFCURVE",
"1116 1308 OFFCURVE",
"1129 1307 CURVE",
"1108 914 LINE",
"920 914 LINE",
"858 1180 LINE",
"838 1207 OFFCURVE",
"785 1226 OFFCURVE",
"693 1226 CURVE SMOOTH",
"569 1226 OFFCURVE",
"475 1144 OFFCURVE",
"424 983 CURVE SMOOTH",
"399 902 OFFCURVE",
"386 803 OFFCURVE",
"386 686 CURVE SMOOTH",
"386 466 OFFCURVE",
"432 285 OFFCURVE",
"528 184 CURVE SMOOTH",
"576 133 OFFCURVE",
"636 108 OFFCURVE",
"708 108 CURVE SMOOTH",
"799 108 OFFCURVE",
"846 133 OFFCURVE",
"875 166 CURVE",
"959 361 LINE",
"1130 345 LINE",
"1096 49 LINE",
"1059 46 OFFCURVE",
"1031 38 OFFCURVE",
"979 23 CURVE SMOOTH",
"888 -4 OFFCURVE",
"821 -20 OFFCURVE",
"704 -20 CURVE SMOOTH",
"419 -20 OFFCURVE",
"221 92 OFFCURVE",
"122 296 CURVE SMOOTH",
"73 397 OFFCURVE",
"48 519 OFFCURVE",
"48 660 CURVE SMOOTH"
);
},
{
closed = 1;
nodes = (
"604 1767 LINE",
"782 1767 LINE",
"1046 1507 LINE",
"947 1429 LINE",
"693 1597 LINE",
"437 1429 LINE",
"341 1506 LINE"
);
}
);
width = 1188;
}
);
note = Ccircumflex;
unicode = 0108;
},
{
glyphname = Cdotaccent;
layers = (
{
layerId = "35FD6BC4-8300-47F6-A560-C4E3FDEA81EC";
name = Bold;
paths = (
{
closed = 1;
nodes = (
"535 1696 OFFCURVE",
"592 1758 OFFCURVE",
"697 1758 CURVE",
"697 1758 LINE",
"762 1758 OFFCURVE",
"811 1732 OFFCURVE",
"836 1691 CURVE SMOOTH",
"848 1670 OFFCURVE",
"854 1647 OFFCURVE",
"854 1622 CURVE SMOOTH",
"854 1523 OFFCURVE",
"796 1463 OFFCURVE",
"681 1463 CURVE SMOOTH",
"680 1463 LINE SMOOTH",
"624 1463 OFFCURVE",
"578 1488 OFFCURVE",
"554 1529 CURVE SMOOTH",
"541 1550 OFFCURVE",
"535 1573 OFFCURVE",
"535 1600 CURVE SMOOTH"
);
},
{
closed = 1;
nodes = (
"48 945 OFFCURVE",
"172 1161 OFFCURVE",
"373 1271 CURVE SMOOTH",
"474 1326 OFFCURVE",
"588 1353 OFFCURVE",
"715 1353 CURVE SMOOTH",
"820 1353 OFFCURVE",
"912 1341 OFFCURVE",
"1037 1320 CURVE SMOOTH",
"1086 1313 OFFCURVE",
"1116 1308 OFFCURVE",
"1129 1307 CURVE",
"1108 914 LINE",
"920 914 LINE",
"858 1180 LINE",
"838 1207 OFFCURVE",
"785 1226 OFFCURVE",
"693 1226 CURVE SMOOTH",
"569 1226 OFFCURVE",
"475 1144 OFFCURVE",
"424 983 CURVE SMOOTH",
"399 902 OFFCURVE",
"386 803 OFFCURVE",
"386 686 CURVE SMOOTH",
"386 466 OFFCURVE",
"432 285 OFFCURVE",
"528 184 CURVE SMOOTH",
"576 133 OFFCURVE",
"636 108 OFFCURVE",
"708 108 CURVE SMOOTH",
"799 108 OFFCURVE",
"846 133 OFFCURVE",
"875 166 CURVE",
"959 361 LINE",
"1130 345 LINE",
"1096 49 LINE",
"1059 46 OFFCURVE",
"1031 38 OFFCURVE",
"979 23 CURVE SMOOTH",
"888 -4 OFFCURVE",
"821 -20 OFFCURVE",
"704 -20 CURVE SMOOTH",
"419 -20 OFFCURVE",
"221 92 OFFCURVE",
"122 296 CURVE SMOOTH",
"73 397 OFFCURVE",
"48 519 OFFCURVE",
"48 660 CURVE SMOOTH"
);
}
);
width = 1188;
}
);
note = Cdotaccent;
unicode = 010A;
},
{
glyphname = D;
layers = (
{
layerId = "35FD6BC4-8300-47F6-A560-C4E3FDEA81EC";
name = Bold;
paths = (
{
closed = 1;
nodes = (
"205 140 LINE",
"205 1191 LINE",
"74 1215 LINE",
"74 1339 LINE",
"348 1339 LINE SMOOTH",
"385 1339 OFFCURVE",
"436 1341 OFFCURVE",
"503 1345 CURVE SMOOTH",
"562 1349 OFFCURVE",
"615 1351 OFFCURVE",
"662 1351 CURVE SMOOTH",
"1105 1351 OFFCURVE",
"1325 1124 OFFCURVE",
"1325 715 CURVE SMOOTH",
"1325 434 OFFCURVE",
"1212 204 OFFCURVE",
"1012 80 CURVE SMOOTH",
"911 17 OFFCURVE",
"794 -14 OFFCURVE",
"659 -14 CURVE SMOOTH",
"631 -14 OFFCURVE",
"574 -11 OFFCURVE",
"488 -6 CURVE SMOOTH",
"474 -5 OFFCURVE",
"453 -4 OFFCURVE",
"424 -2 CURVE SMOOTH",
"395 -1 OFFCURVE",
"372 0 OFFCURVE",
"355 0 CURVE SMOOTH",
"68 0 LINE",
"68 118 LINE"
);
},
{
closed = 1;
nodes = (
"500 133 LINE",
"539 118 OFFCURVE",
"587 115 OFFCURVE",
"651 116 CURVE SMOOTH",
"871 119 OFFCURVE",
"1001 299 OFFCURVE",
"1001 671 CURVE SMOOTH",
"1001 1023 OFFCURVE",
"881 1227 OFFCURVE",
"620 1227 CURVE SMOOTH",
"584 1227 OFFCURVE",
"556 1225 OFFCURVE",
"535 1221 CURVE",
"514 1216 OFFCURVE",
"503 1214 OFFCURVE",
"500 1213 CURVE"
);
}
);
width = 1379;
}
);
note = D;
unicode = 0044;
},
{
glyphname = Eth;
layers = (
{
layerId = "35FD6BC4-8300-47F6-A560-C4E3FDEA81EC";
name = Bold;
paths = (
{
closed = 1;
nodes = (
"205 757 LINE",
"205 1191 LINE",
"74 1215 LINE",
"74 1339 LINE",
"348 1339 LINE SMOOTH",
"385 1339 OFFCURVE",
"436 1341 OFFCURVE",
"503 1345 CURVE SMOOTH",
"562 1349 OFFCURVE",
"615 1351 OFFCURVE",
"662 1351 CURVE SMOOTH",
"1105 1351 OFFCURVE",
"1325 1124 OFFCURVE",
"1325 715 CURVE SMOOTH",
"1325 434 OFFCURVE",
"1212 204 OFFCURVE",
"1012 80 CURVE SMOOTH",
"911 17 OFFCURVE",
"794 -14 OFFCURVE",
"659 -14 CURVE SMOOTH",
"631 -14 OFFCURVE",
"574 -11 OFFCURVE",
"488 -6 CURVE SMOOTH",
"474 -5 OFFCURVE",
"453 -4 OFFCURVE",
"424 -2 CURVE SMOOTH",
"395 -1 OFFCURVE",
"372 0 OFFCURVE",
"355 0 CURVE SMOOTH",
"68 0 LINE",
"68 118 LINE",
"205 140 LINE",
"205 632 LINE",
"80 632 LINE",
"80 757 LINE"
);
},
{
closed = 1;
nodes = (
"752 757 LINE",
"752 632 LINE",
"500 632 LINE",
"500 133 LINE",
"539 118 OFFCURVE",
"587 115 OFFCURVE",
"651 116 CURVE SMOOTH",
"871 119 OFFCURVE",
"1001 299 OFFCURVE",
"1001 671 CURVE SMOOTH",
"1001 1023 OFFCURVE",
"881 1227 OFFCURVE",
"620 1227 CURVE SMOOTH",
"584 1227 OFFCURVE",
"556 1225 OFFCURVE",
"535 1221 CURVE",
"514 1216 OFFCURVE",
"503 1214 OFFCURVE",
"500 1213 CURVE",
"500 757 LINE"
);
}
);
width = 1379;
}
);
note = Eth;
unicode = 00D0;
},
{
glyphname = Dcaron;
layers = (
{
layerId = "35FD6BC4-8300-47F6-A560-C4E3FDEA81EC";
name = Bold;
paths = (
{
closed = 1;
nodes = (
"464 1772 LINE",
"701 1616 LINE",
"951 1772 LINE",
"1048 1695 LINE",
"791 1448 LINE",
"612 1448 LINE",
"366 1695 LINE"
);
},
{
closed = 1;
nodes = (
"205 140 LINE",
"205 1191 LINE",
"74 1215 LINE",
"74 1339 LINE",
"348 1339 LINE SMOOTH",
"385 1339 OFFCURVE",
"436 1341 OFFCURVE",
"503 1345 CURVE SMOOTH",
"562 1349 OFFCURVE",
"615 1351 OFFCURVE",
"662 1351 CURVE SMOOTH",
"1105 1351 OFFCURVE",
"1325 1124 OFFCURVE",
"1325 715 CURVE SMOOTH",
"1325 434 OFFCURVE",
"1212 204 OFFCURVE",
"1012 80 CURVE SMOOTH",
"911 17 OFFCURVE",
"794 -14 OFFCURVE",
"659 -14 CURVE SMOOTH",
"631 -14 OFFCURVE",
"574 -11 OFFCURVE",
"488 -6 CURVE SMOOTH",
"474 -5 OFFCURVE",
"453 -4 OFFCURVE",
"424 -2 CURVE SMOOTH",
"395 -1 OFFCURVE",
"372 0 OFFCURVE",
"355 0 CURVE SMOOTH",
"68 0 LINE",
"68 118 LINE"
);
},
{
closed = 1;
nodes = (
"500 133 LINE",
"539 118 OFFCURVE",
"587 115 OFFCURVE",
"651 116 CURVE SMOOTH",
"871 119 OFFCURVE",
"1001 299 OFFCURVE",
"1001 671 CURVE SMOOTH",
"1001 1023 OFFCURVE",
"881 1227 OFFCURVE",
"620 1227 CURVE SMOOTH",
"584 1227 OFFCURVE",
"556 1225 OFFCURVE",
"535 1221 CURVE",
"514 1216 OFFCURVE",
"503 1214 OFFCURVE",
"500 1213 CURVE"
);
}
);
width = 1379;
}
);
note = Dcaron;
unicode = 010E;
},
{
glyphname = Dcroat;
layers = (
{
layerId = "35FD6BC4-8300-47F6-A560-C4E3FDEA81EC";
name = Bold;
paths = (
{
closed = 1;
nodes = (
"205 753 LINE",
"205 1191 LINE",
"74 1215 LINE",
"74 1339 LINE",
"348 1339 LINE SMOOTH",
"385 1339 OFFCURVE",
"436 1341 OFFCURVE",
"503 1345 CURVE SMOOTH",
"562 1349 OFFCURVE",
"615 1351 OFFCURVE",
"662 1351 CURVE SMOOTH",
"1105 1351 OFFCURVE",
"1325 1124 OFFCURVE",
"1325 715 CURVE SMOOTH",
"1325 434 OFFCURVE",
"1212 204 OFFCURVE",
"1012 80 CURVE SMOOTH",
"911 17 OFFCURVE",
"794 -14 OFFCURVE",
"659 -14 CURVE SMOOTH",
"631 -14 OFFCURVE",
"574 -11 OFFCURVE",
"488 -6 CURVE SMOOTH",
"474 -5 OFFCURVE",
"453 -4 OFFCURVE",
"424 -2 CURVE SMOOTH",
"395 -1 OFFCURVE",
"372 0 OFFCURVE",
"355 0 CURVE SMOOTH",
"68 0 LINE",
"68 118 LINE",
"205 140 LINE",
"205 620 LINE",
"69 620 LINE",
"69 753 LINE"
);
},
{
closed = 1;
nodes = (
"741 753 LINE",
"741 620 LINE",
"500 620 LINE",
"500 133 LINE",
"539 118 OFFCURVE",
"587 115 OFFCURVE",
"651 116 CURVE SMOOTH",
"871 119 OFFCURVE",
"1001 299 OFFCURVE",
"1001 671 CURVE SMOOTH",
"1001 1023 OFFCURVE",
"881 1227 OFFCURVE",
"620 1227 CURVE SMOOTH",
"584 1227 OFFCURVE",
"556 1225 OFFCURVE",
"535 1221 CURVE",
"514 1216 OFFCURVE",
"503 1214 OFFCURVE",
"500 1213 CURVE",
"500 753 LINE"
);
}
);
width = 1379;
}
);
note = Dcroat;
unicode = 0110;
},
{
glyphname = E;
layers = (
{
layerId = "35FD6BC4-8300-47F6-A560-C4E3FDEA81EC";
name = Bold;
paths = (
{
closed = 1;
nodes = (
"205 140 LINE",
"205 1190 LINE",
"65 1215 LINE",
"65 1339 LINE",
"1039 1339 LINE",
"1064 1029 LINE",
"920 1029 LINE",
"859 1203 LINE",
"503 1221 LINE",
"503 752 LINE",
"727 758 LINE",
"759 903 LINE",
"888 903 LINE",
"888 455 LINE",
"759 455 LINE",
"729 610 LINE",
"503 615 LINE",
"503 128 LINE",
"899 151 LINE",
"1009 378 LINE",
"1160 335 LINE",
"1114 0 LINE",
"68 0 LINE",
"68 118 LINE"
);
}
);
width = 1185;
}
);
note = E;
unicode = 0045;
},
{
glyphname = Eacute;
layers = (
{
layerId = "35FD6BC4-8300-47F6-A560-C4E3FDEA81EC";
name = Bold;
paths = (
{
closed = 1;
nodes = (
"741 1772 LINE",
"742 1772 LINE",
"923 1642 LINE",
"864 1573 OFFCURVE",
"765 1506 OFFCURVE",
"676 1463 CURVE SMOOTH",
"631 1441 OFFCURVE",
"596 1427 OFFCURVE",
"570 1420 CURVE",
"569 1420 LINE",
"466 1498 LINE"
);
},
{
closed = 1;
nodes = (
"205 140 LINE",
"205 1190 LINE",
"65 1215 LINE",
"65 1339 LINE",
"1039 1339 LINE",
"1064 1029 LINE",
"920 1029 LINE",
"859 1203 LINE",
"503 1221 LINE",
"503 752 LINE",
"727 758 LINE",
"759 903 LINE",
"888 903 LINE",
"888 455 LINE",
"759 455 LINE",
"729 610 LINE",
"503 615 LINE",
"503 128 LINE",
"899 151 LINE",
"1009 378 LINE",
"1160 335 LINE",
"1114 0 LINE",
"68 0 LINE",
"68 118 LINE"
);
}
);
width = 1185;
}
);
note = Eacute;
unicode = 00C9;
},
{
glyphname = Ebreve;
layers = (
{
layerId = "35FD6BC4-8300-47F6-A560-C4E3FDEA81EC";
name = Bold;
paths = (
{
closed = 1;
nodes = (
"285 1741 OFFCURVE",
"285 1755 OFFCURVE",
"286 1764 CURVE",
"425 1764 LINE",
"427 1743 LINE",
"439 1678 OFFCURVE",
"491 1614 OFFCURVE",
"618 1614 CURVE SMOOTH",
"743 1614 OFFCURVE",
"792 1676 OFFCURVE",
"801 1743 CURVE SMOOTH",
"802 1749 OFFCURVE",
"802 1756 OFFCURVE",
"802 1764 CURVE",
"944 1764 LINE",
"945 1755 OFFCURVE",
"946 1742 OFFCURVE",
"946 1725 CURVE SMOOTH",
"946 1618 OFFCURVE",
"894 1525 OFFCURVE",
"795 1472 CURVE SMOOTH",
"745 1445 OFFCURVE",
"685 1432 OFFCURVE",
"616 1432 CURVE SMOOTH",
"473 1432 OFFCURVE",
"371 1489 OFFCURVE",
"322 1578 CURVE SMOOTH",
"297 1622 OFFCURVE",
"285 1671 OFFCURVE",
"285 1724 CURVE SMOOTH"
);
},
{
closed = 1;
nodes = (
"205 140 LINE",
"205 1190 LINE",
"65 1215 LINE",
"65 1339 LINE",
"1039 1339 LINE",
"1064 1029 LINE",
"920 1029 LINE",
"859 1203 LINE",
"503 1221 LINE",
"503 752 LINE",
"727 758 LINE",
"759 903 LINE",
"888 903 LINE",
"888 455 LINE",
"759 455 LINE",
"729 610 LINE",
"503 615 LINE",
"503 128 LINE",
"899 151 LINE",
"1009 378 LINE",
"1160 335 LINE",
"1114 0 LINE",
"68 0 LINE",
"68 118 LINE"
);
}
);
width = 1185;
}
);
note = Ebreve;
unicode = 0114;
},
{
glyphname = Ecaron;
layers = (
{
layerId = "35FD6BC4-8300-47F6-A560-C4E3FDEA81EC";
name = Bold;
paths = (
{
closed = 1;
nodes = (
"378 1772 LINE",
"615 1616 LINE",
"865 1772 LINE",
"962 1695 LINE",
"705 1448 LINE",
"526 1448 LINE",
"280 1695 LINE"
);
},
{
closed = 1;
nodes = (
"205 140 LINE",
"205 1190 LINE",
"65 1215 LINE",
"65 1339 LINE",
"1039 1339 LINE",
"1064 1029 LINE",
"920 1029 LINE",
"859 1203 LINE",
"503 1221 LINE",
"503 752 LINE",
"727 758 LINE",
"759 903 LINE",
"888 903 LINE",
"888 455 LINE",
"759 455 LINE",
"729 610 LINE",
"503 615 LINE",
"503 128 LINE",
"899 151 LINE",
"1009 378 LINE",
"1160 335 LINE",
"1114 0 LINE",
"68 0 LINE",
"68 118 LINE"
);
}
);
width = 1185;
}
);
note = Ecaron;
unicode = 011A;
},
{
glyphname = Ecircumflex;
layers = (
{
layerId = "35FD6BC4-8300-47F6-A560-C4E3FDEA81EC";
name = Bold;
paths = (
{
closed = 1;
nodes = (
"205 140 LINE",
"205 1190 LINE",
"65 1215 LINE",
"65 1339 LINE",
"1039 1339 LINE",
"1064 1029 LINE",
"920 1029 LINE",
"859 1203 LINE",
"503 1221 LINE",
"503 752 LINE",
"727 758 LINE",
"759 903 LINE",
"888 903 LINE",
"888 455 LINE",
"759 455 LINE",
"729 610 LINE",
"503 615 LINE",
"503 128 LINE",
"899 151 LINE",
"1009 378 LINE",
"1160 335 LINE",
"1114 0 LINE",
"68 0 LINE",
"68 118 LINE"
);
},
{
closed = 1;
nodes = (
"524 1767 LINE",
"702 1767 LINE",
"966 1507 LINE",
"867 1429 LINE",
"613 1597 LINE",
"357 1429 LINE",
"261 1506 LINE"
);
}
);
width = 1185;
}
);
note = Ecircumflex;
unicode = 00CA;
},
{
glyphname = Edieresis;
layers = (
{
layerId = "35FD6BC4-8300-47F6-A560-C4E3FDEA81EC";
name = Bold;
paths = (
{
closed = 1;
nodes = (
"232 1689 OFFCURVE",
"287 1757 OFFCURVE",
"388 1757 CURVE SMOOTH",
"389 1757 LINE SMOOTH",
"481 1757 OFFCURVE",
"531 1696 OFFCURVE",
"531 1619 CURVE SMOOTH",
"531 1520 OFFCURVE",
"475 1455 OFFCURVE",
"363 1455 CURVE SMOOTH",
"362 1455 LINE SMOOTH",
"311 1455 OFFCURVE",
"271 1481 OFFCURVE",
"249 1524 CURVE SMOOTH",
"238 1545 OFFCURVE",
"232 1569 OFFCURVE",
"232 1594 CURVE SMOOTH"
);
},
{
closed = 1;
nodes = (
"697 1689 OFFCURVE",
"751 1757 OFFCURVE",
"851 1757 CURVE SMOOTH",
"852 1757 LINE SMOOTH",
"945 1757 OFFCURVE",
"996 1696 OFFCURVE",
"996 1619 CURVE SMOOTH",
"996 1520 OFFCURVE",
"939 1455 OFFCURVE",
"827 1455 CURVE SMOOTH",
"826 1455 LINE SMOOTH",
"777 1455 OFFCURVE",
"736 1483 OFFCURVE",
"714 1526 CURVE SMOOTH",
"703 1547 OFFCURVE",
"697 1570 OFFCURVE",
"697 1594 CURVE SMOOTH"
);
},
{
closed = 1;
nodes = (
"205 140 LINE",
"205 1190 LINE",
"65 1215 LINE",
"65 1339 LINE",
"1039 1339 LINE",
"1064 1029 LINE",
"920 1029 LINE",
"859 1203 LINE",
"503 1221 LINE",
"503 752 LINE",
"727 758 LINE",
"759 903 LINE",
"888 903 LINE",
"888 455 LINE",
"759 455 LINE",
"729 610 LINE",
"503 615 LINE",
"503 128 LINE",
"899 151 LINE",
"1009 378 LINE",
"1160 335 LINE",
"1114 0 LINE",
"68 0 LINE",
"68 118 LINE"
);
}
);
width = 1185;
}
);
note = Edieresis;
unicode = 00CB;
},
{
glyphname = Edotaccent;
layers = (
{
layerId = "35FD6BC4-8300-47F6-A560-C4E3FDEA81EC";
name = Bold;
paths = (
{
closed = 1;
nodes = (
"456 1696 OFFCURVE",
"513 1758 OFFCURVE",
"618 1758 CURVE",
"618 1758 LINE",
"683 1758 OFFCURVE",
"732 1732 OFFCURVE",
"757 1691 CURVE SMOOTH",
"769 1670 OFFCURVE",
"775 1647 OFFCURVE",
"775 1622 CURVE SMOOTH",
"775 1523 OFFCURVE",
"717 1463 OFFCURVE",
"602 1463 CURVE SMOOTH",
"601 1463 LINE SMOOTH",
"545 1463 OFFCURVE",
"499 1488 OFFCURVE",
"475 1529 CURVE SMOOTH",
"462 1550 OFFCURVE",
"456 1573 OFFCURVE",
"456 1600 CURVE SMOOTH"
);
},
{
closed = 1;
nodes = (
"205 140 LINE",
"205 1190 LINE",
"65 1215 LINE",
"65 1339 LINE",
"1039 1339 LINE",
"1064 1029 LINE",
"920 1029 LINE",
"859 1203 LINE",
"503 1221 LINE",
"503 752 LINE",
"727 758 LINE",
"759 903 LINE",
"888 903 LINE",
"888 455 LINE",
"759 455 LINE",
"729 610 LINE",
"503 615 LINE",
"503 128 LINE",
"899 151 LINE",
"1009 378 LINE",
"1160 335 LINE",
"1114 0 LINE",
"68 0 LINE",
"68 118 LINE"
);
}
);
width = 1185;
}
);
note = Edotaccent;
unicode = 0116;
},
{
glyphname = Egrave;
layers = (
{
layerId = "35FD6BC4-8300-47F6-A560-C4E3FDEA81EC";
name = Bold;
paths = (
{
closed = 1;
nodes = (
"469 1772 LINE",
"470 1772 LINE",
"745 1498 LINE",
"642 1420 LINE",
"641 1420 LINE",
"582 1436 OFFCURVE",
"474 1488 OFFCURVE",
"386 1551 CURVE SMOOTH",
"341 1582 OFFCURVE",
"309 1613 OFFCURVE",
"289 1642 CURVE"
);
},
{
closed = 1;
nodes = (
"205 140 LINE",
"205 1190 LINE",
"65 1215 LINE",
"65 1339 LINE",
"1039 1339 LINE",
"1064 1029 LINE",
"920 1029 LINE",
"859 1203 LINE",
"503 1221 LINE",
"503 752 LINE",
"727 758 LINE",
"759 903 LINE",
"888 903 LINE",
"888 455 LINE",
"759 455 LINE",
"729 610 LINE",
"503 615 LINE",
"503 128 LINE",
"899 151 LINE",
"1009 378 LINE",
"1160 335 LINE",
"1114 0 LINE",
"68 0 LINE",
"68 118 LINE"
);
}
);
width = 1185;
}
);
note = Egrave;
unicode = 00C8;
},
{
glyphname = Emacron;
layers = (
{
layerId = "35FD6BC4-8300-47F6-A560-C4E3FDEA81EC";
name = Bold;
paths = (
{
closed = 1;
nodes = (
"897 1685 LINE",
"897 1514 LINE",
"335 1514 LINE",
"335 1685 LINE"
);
},
{
closed = 1;
nodes = (
"205 140 LINE",
"205 1190 LINE",
"65 1215 LINE",
"65 1339 LINE",
"1039 1339 LINE",
"1064 1029 LINE",
"920 1029 LINE",
"859 1203 LINE",
"503 1221 LINE",
"503 752 LINE",
"727 758 LINE",
"759 903 LINE",
"888 903 LINE",
"888 455 LINE",
"759 455 LINE",
"729 610 LINE",
"503 615 LINE",
"503 128 LINE",
"899 151 LINE",
"1009 378 LINE",
"1160 335 LINE",
"1114 0 LINE",
"68 0 LINE",
"68 118 LINE"
);
}
);
width = 1185;
}
);
note = Emacron;
unicode = 0112;
},
{
glyphname = Eogonek;
layers = (
{
layerId = "35FD6BC4-8300-47F6-A560-C4E3FDEA81EC";
name = Bold;
paths = (
{
closed = 1;
nodes = (
"205 140 LINE",
"205 1190 LINE",
"65 1215 LINE",
"65 1339 LINE",
"1039 1339 LINE",
"1064 1029 LINE",
"920 1029 LINE",
"859 1203 LINE",
"503 1221 LINE",
"503 752 LINE",
"727 758 LINE",
"759 903 LINE",
"888 903 LINE",
"888 455 LINE",
"759 455 LINE",
"729 610 LINE",
"503 615 LINE",
"503 128 LINE",
"899 151 LINE",
"1009 378 LINE",
"1160 335 LINE",
"1114 0 LINE",
"1105 0 LINE",
"1029 -15 OFFCURVE",
"957 -65 OFFCURVE",
"916 -120 CURVE SMOOTH",
"895 -148 OFFCURVE",
"885 -173 OFFCURVE",
"885 -194 CURVE SMOOTH",
"885 -255 OFFCURVE",
"930 -290 OFFCURVE",
"1002 -290 CURVE SMOOTH",
"1042 -290 OFFCURVE",
"1067 -284 OFFCURVE",
"1110 -268 CURVE",
"1110 -392 LINE",
"1062 -428 OFFCURVE",
"968 -451 OFFCURVE",
"891 -451 CURVE SMOOTH",
"746 -451 OFFCURVE",
"650 -385 OFFCURVE",
"650 -272 CURVE SMOOTH",
"650 -203 OFFCURVE",
"693 -131 OFFCURVE",
"771 -72 CURVE SMOOTH",
"810 -43 OFFCURVE",
"855 -19 OFFCURVE",
"907 0 CURVE",
"68 0 LINE",
"68 118 LINE"
);
}
);
width = 1185;
}
);
note = Eogonek;
unicode = 0118;
},
{
glyphname = F;
layers = (
{
layerId = "35FD6BC4-8300-47F6-A560-C4E3FDEA81EC";
name = Bold;
paths = (
{
closed = 1;
nodes = (
"205 140 LINE",
"205 1191 LINE",
"64 1215 LINE",
"64 1339 LINE",
"1067 1339 LINE",
"1087 1008 LINE",
"928 1008 LINE",
"858 1199 LINE",
"503 1220 LINE",
"503 725 LINE",
"741 729 LINE",
"779 885 LINE",
"910 885 LINE",
"910 416 LINE",
"780 416 LINE",
"741 576 LINE",
"503 583 LINE",
"503 141 LINE",
"770 118 LINE",
"770 0 LINE",
"68 0 LINE",
"68 118 LINE"
);
}
);
width = 1123;
}
);
note = F;
unicode = 0046;
},
{
glyphname = G;
layers = (
{
layerId = "35FD6BC4-8300-47F6-A560-C4E3FDEA81EC";
name = Bold;
paths = (
{
closed = 1;
nodes = (
"58 949 OFFCURVE",
"179 1164 OFFCURVE",
"389 1274 CURVE SMOOTH",
"494 1329 OFFCURVE",
"616 1356 OFFCURVE",
"757 1356 CURVE SMOOTH",
"922 1356 OFFCURVE",
"1095 1325 OFFCURVE",
"1207 1300 CURVE",
"1186 957 LINE",
"980 957 LINE",
"927 1187 LINE",
"916 1200 OFFCURVE",
"896 1211 OFFCURVE",
"868 1221 CURVE",
"839 1230 OFFCURVE",
"800 1235 OFFCURVE",
"749 1235 CURVE SMOOTH",
"604 1235 OFFCURVE",
"498 1152 OFFCURVE",
"443 989 CURVE SMOOTH",
"415 908 OFFCURVE",
"401 808 OFFCURVE",
"401 689 CURVE SMOOTH",
"401 461 OFFCURVE",
"445 281 OFFCURVE",
"544 181 CURVE SMOOTH",
"593 131 OFFCURVE",
"656 106 OFFCURVE",
"731 106 CURVE SMOOTH",
"816 106 OFFCURVE",
"894 127 OFFCURVE",
"929 166 CURVE",
"929 537 LINE",
"759 557 LINE",
"759 689 LINE",
"1312 689 LINE",
"1312 557 LINE",
"1221 540 LINE",
"1221 72 LINE",
"1190 71 OFFCURVE",
"1151 61 OFFCURVE",
"1086 42 CURVE SMOOTH",
"939 2 OFFCURVE",
"837 -20 OFFCURVE",
"704 -20 CURVE SMOOTH",
"435 -20 OFFCURVE",
"234 105 OFFCURVE",
"134 309 CURVE SMOOTH",
"83 411 OFFCURVE",
"58 527 OFFCURVE",
"58 656 CURVE SMOOTH"
);
}
);
width = 1347;
}
);
note = G;
unicode = 0047;
},
{
glyphname = Gbreve;
layers = (
{
layerId = "35FD6BC4-8300-47F6-A560-C4E3FDEA81EC";
name = Bold;
paths = (
{
closed = 1;
nodes = (
"401 1741 OFFCURVE",
"401 1755 OFFCURVE",
"402 1764 CURVE",
"541 1764 LINE",
"543 1743 LINE",
"555 1678 OFFCURVE",
"607 1614 OFFCURVE",
"734 1614 CURVE SMOOTH",
"859 1614 OFFCURVE",
"908 1676 OFFCURVE",
"917 1743 CURVE SMOOTH",
"918 1749 OFFCURVE",
"918 1756 OFFCURVE",
"918 1764 CURVE",
"1060 1764 LINE",
"1061 1755 OFFCURVE",
"1062 1742 OFFCURVE",
"1062 1725 CURVE SMOOTH",
"1062 1618 OFFCURVE",
"1010 1525 OFFCURVE",
"911 1472 CURVE SMOOTH",
"861 1445 OFFCURVE",
"801 1432 OFFCURVE",
"732 1432 CURVE SMOOTH",
"589 1432 OFFCURVE",
"487 1489 OFFCURVE",
"438 1578 CURVE SMOOTH",
"413 1622 OFFCURVE",
"401 1671 OFFCURVE",
"401 1724 CURVE SMOOTH"
);
},
{
closed = 1;
nodes = (
"62 949 OFFCURVE",
"183 1164 OFFCURVE",
"393 1274 CURVE SMOOTH",
"498 1329 OFFCURVE",
"620 1356 OFFCURVE",
"761 1356 CURVE SMOOTH",
"926 1356 OFFCURVE",
"1099 1325 OFFCURVE",
"1211 1300 CURVE",
"1190 957 LINE",
"984 957 LINE",
"931 1187 LINE",
"920 1200 OFFCURVE",
"900 1211 OFFCURVE",
"872 1221 CURVE",
"843 1230 OFFCURVE",
"804 1235 OFFCURVE",
"753 1235 CURVE SMOOTH",
"608 1235 OFFCURVE",
"502 1152 OFFCURVE",
"447 989 CURVE SMOOTH",
"419 908 OFFCURVE",
"405 808 OFFCURVE",
"405 689 CURVE SMOOTH",
"405 461 OFFCURVE",
"449 281 OFFCURVE",
"548 181 CURVE SMOOTH",
"597 131 OFFCURVE",
"660 106 OFFCURVE",
"735 106 CURVE SMOOTH",
"820 106 OFFCURVE",
"898 127 OFFCURVE",
"933 166 CURVE",
"933 537 LINE",
"763 557 LINE",
"763 689 LINE",
"1316 689 LINE",
"1316 557 LINE",
"1225 540 LINE",
"1225 72 LINE",
"1194 71 OFFCURVE",
"1155 61 OFFCURVE",
"1090 42 CURVE SMOOTH",
"943 2 OFFCURVE",
"841 -20 OFFCURVE",
"708 -20 CURVE SMOOTH",
"439 -20 OFFCURVE",
"238 105 OFFCURVE",
"138 309 CURVE SMOOTH",
"87 411 OFFCURVE",
"62 527 OFFCURVE",
"62 656 CURVE SMOOTH"
);
}
);
width = 1351;
}
);
note = Gbreve;
unicode = 011E;
},
{
glyphname = Gcaron;
layers = (
{
layerId = "35FD6BC4-8300-47F6-A560-C4E3FDEA81EC";
name = Bold;
paths = (
{
closed = 1;
nodes = (
"58 949 OFFCURVE",
"179 1164 OFFCURVE",
"389 1274 CURVE SMOOTH",
"494 1329 OFFCURVE",
"616 1356 OFFCURVE",
"757 1356 CURVE SMOOTH",
"922 1356 OFFCURVE",
"1095 1325 OFFCURVE",
"1207 1300 CURVE",
"1186 957 LINE",
"980 957 LINE",
"927 1187 LINE",
"916 1200 OFFCURVE",
"896 1211 OFFCURVE",
"868 1221 CURVE",
"839 1230 OFFCURVE",
"800 1235 OFFCURVE",
"749 1235 CURVE SMOOTH",
"604 1235 OFFCURVE",
"498 1152 OFFCURVE",
"443 989 CURVE SMOOTH",
"415 908 OFFCURVE",
"401 808 OFFCURVE",
"401 689 CURVE SMOOTH",
"401 461 OFFCURVE",
"445 281 OFFCURVE",
"544 181 CURVE SMOOTH",
"593 131 OFFCURVE",
"656 106 OFFCURVE",
"731 106 CURVE SMOOTH",
"816 106 OFFCURVE",
"894 127 OFFCURVE",
"929 166 CURVE",
"929 537 LINE",
"759 557 LINE",
"759 689 LINE",
"1312 689 LINE",
"1312 557 LINE",
"1221 540 LINE",
"1221 72 LINE",
"1190 71 OFFCURVE",
"1151 61 OFFCURVE",
"1086 42 CURVE SMOOTH",
"939 2 OFFCURVE",
"837 -20 OFFCURVE",
"704 -20 CURVE SMOOTH",
"435 -20 OFFCURVE",
"234 105 OFFCURVE",
"134 309 CURVE SMOOTH",
"83 411 OFFCURVE",
"58 527 OFFCURVE",
"58 656 CURVE SMOOTH"
);
},
{
closed = 1;
nodes = (
"515 1772 LINE",
"752 1616 LINE",
"1002 1772 LINE",
"1099 1695 LINE",
"842 1448 LINE",
"663 1448 LINE",
"417 1695 LINE"
);
}
);
width = 1347;
}
);
note = Gcaron;
unicode = 01E6;
},
{
glyphname = Gcircumflex;
layers = (
{
layerId = "35FD6BC4-8300-47F6-A560-C4E3FDEA81EC";
name = Bold;
paths = (
{
closed = 1;
nodes = (
"58 949 OFFCURVE",
"179 1164 OFFCURVE",
"389 1274 CURVE SMOOTH",
"494 1329 OFFCURVE",
"616 1356 OFFCURVE",
"757 1356 CURVE SMOOTH",
"922 1356 OFFCURVE",
"1095 1325 OFFCURVE",
"1207 1300 CURVE",
"1186 957 LINE",
"980 957 LINE",
"927 1187 LINE",
"916 1200 OFFCURVE",
"896 1211 OFFCURVE",
"868 1221 CURVE",
"839 1230 OFFCURVE",
"800 1235 OFFCURVE",
"749 1235 CURVE SMOOTH",
"604 1235 OFFCURVE",
"498 1152 OFFCURVE",
"443 989 CURVE SMOOTH",
"415 908 OFFCURVE",
"401 808 OFFCURVE",
"401 689 CURVE SMOOTH",
"401 461 OFFCURVE",
"445 281 OFFCURVE",
"544 181 CURVE SMOOTH",
"593 131 OFFCURVE",
"656 106 OFFCURVE",
"731 106 CURVE SMOOTH",
"816 106 OFFCURVE",
"894 127 OFFCURVE",
"929 166 CURVE",
"929 537 LINE",
"759 557 LINE",
"759 689 LINE",
"1312 689 LINE",
"1312 557 LINE",
"1221 540 LINE",
"1221 72 LINE",
"1190 71 OFFCURVE",
"1151 61 OFFCURVE",
"1086 42 CURVE SMOOTH",
"939 2 OFFCURVE",
"837 -20 OFFCURVE",
"704 -20 CURVE SMOOTH",
"435 -20 OFFCURVE",
"234 105 OFFCURVE",
"134 309 CURVE SMOOTH",
"83 411 OFFCURVE",
"58 527 OFFCURVE",
"58 656 CURVE SMOOTH"
);
},
{
closed = 1;
nodes = (
"663 1767 LINE",
"841 1767 LINE",
"1105 1507 LINE",
"1006 1429 LINE",
"752 1597 LINE",
"496 1429 LINE",
"400 1506 LINE"
);
}
);
width = 1347;
}
);
note = Gcircumflex;
unicode = 011C;
},
{
glyphname = Gcommaaccent;
layers = (
{
layerId = "35FD6BC4-8300-47F6-A560-C4E3FDEA81EC";
name = Bold;
paths = (
{
closed = 1;
nodes = (
"691 -493 LINE",
"604 -462 LINE",
"601 -446 LINE",
"628 -435 OFFCURVE",
"645 -387 OFFCURVE",
"645 -343 CURVE SMOOTH",
"645 -316 OFFCURVE",
"632 -296 OFFCURVE",
"607 -282 CURVE",
"584 -266 OFFCURVE",
"569 -238 OFFCURVE",
"569 -194 CURVE SMOOTH",
"569 -142 OFFCURVE",
"603 -110 OFFCURVE",
"644 -95 CURVE SMOOTH",
"665 -88 OFFCURVE",
"685 -84 OFFCURVE",
"705 -84 CURVE SMOOTH",
"714 -84 LINE SMOOTH",
"798 -84 OFFCURVE",
"855 -139 OFFCURVE",
"855 -231 CURVE SMOOTH",
"855 -312 OFFCURVE",
"809 -396 OFFCURVE",
"757 -448 CURVE SMOOTH",
"731 -475 OFFCURVE",
"710 -490 OFFCURVE",
"694 -493 CURVE"
);
},
{
closed = 1;
nodes = (
"62 949 OFFCURVE",
"183 1164 OFFCURVE",
"393 1274 CURVE SMOOTH",
"498 1329 OFFCURVE",
"620 1356 OFFCURVE",
"761 1356 CURVE SMOOTH",
"926 1356 OFFCURVE",
"1099 1325 OFFCURVE",
"1211 1300 CURVE",
"1190 957 LINE",
"984 957 LINE",
"931 1187 LINE",
"920 1200 OFFCURVE",
"900 1211 OFFCURVE",
"872 1221 CURVE",
"843 1230 OFFCURVE",
"804 1235 OFFCURVE",
"753 1235 CURVE SMOOTH",
"608 1235 OFFCURVE",
"502 1152 OFFCURVE",
"447 989 CURVE SMOOTH",
"419 908 OFFCURVE",
"405 808 OFFCURVE",
"405 689 CURVE SMOOTH",
"405 461 OFFCURVE",
"449 281 OFFCURVE",
"548 181 CURVE SMOOTH",
"597 131 OFFCURVE",
"660 106 OFFCURVE",
"735 106 CURVE SMOOTH",
"820 106 OFFCURVE",
"898 127 OFFCURVE",
"933 166 CURVE",
"933 537 LINE",
"763 557 LINE",
"763 689 LINE",
"1316 689 LINE",
"1316 557 LINE",
"1225 540 LINE",
"1225 72 LINE",
"1194 71 OFFCURVE",
"1155 61 OFFCURVE",
"1090 42 CURVE SMOOTH",
"943 2 OFFCURVE",
"841 -20 OFFCURVE",
"708 -20 CURVE SMOOTH",
"439 -20 OFFCURVE",
"238 105 OFFCURVE",
"138 309 CURVE SMOOTH",
"87 411 OFFCURVE",
"62 527 OFFCURVE",
"62 656 CURVE SMOOTH"
);
}
);
width = 1351;
}
);
note = Gcommaaccent;
unicode = 0122;
},
{
glyphname = Gdotaccent;
layers = (
{
layerId = "35FD6BC4-8300-47F6-A560-C4E3FDEA81EC";
name = Bold;
paths = (
{
closed = 1;
nodes = (
"578 1696 OFFCURVE",
"635 1758 OFFCURVE",
"740 1758 CURVE",
"740 1758 LINE",
"805 1758 OFFCURVE",
"854 1732 OFFCURVE",
"879 1691 CURVE SMOOTH",
"891 1670 OFFCURVE",
"897 1647 OFFCURVE",
"897 1622 CURVE SMOOTH",
"897 1523 OFFCURVE",
"839 1463 OFFCURVE",
"724 1463 CURVE SMOOTH",
"723 1463 LINE SMOOTH",
"667 1463 OFFCURVE",
"621 1488 OFFCURVE",
"597 1529 CURVE SMOOTH",
"584 1550 OFFCURVE",
"578 1573 OFFCURVE",
"578 1600 CURVE SMOOTH"
);
},
{
closed = 1;
nodes = (
"62 949 OFFCURVE",
"183 1164 OFFCURVE",
"393 1274 CURVE SMOOTH",
"498 1329 OFFCURVE",
"620 1356 OFFCURVE",
"761 1356 CURVE SMOOTH",
"926 1356 OFFCURVE",
"1099 1325 OFFCURVE",
"1211 1300 CURVE",
"1190 957 LINE",
"984 957 LINE",
"931 1187 LINE",
"920 1200 OFFCURVE",
"900 1211 OFFCURVE",
"872 1221 CURVE",
"843 1230 OFFCURVE",
"804 1235 OFFCURVE",
"753 1235 CURVE SMOOTH",
"608 1235 OFFCURVE",
"502 1152 OFFCURVE",
"447 989 CURVE SMOOTH",
"419 908 OFFCURVE",
"405 808 OFFCURVE",
"405 689 CURVE SMOOTH",
"405 461 OFFCURVE",
"449 281 OFFCURVE",
"548 181 CURVE SMOOTH",
"597 131 OFFCURVE",
"660 106 OFFCURVE",
"735 106 CURVE SMOOTH",
"820 106 OFFCURVE",
"898 127 OFFCURVE",
"933 166 CURVE",
"933 537 LINE",
"763 557 LINE",
"763 689 LINE",
"1316 689 LINE",
"1316 557 LINE",
"1225 540 LINE",
"1225 72 LINE",
"1194 71 OFFCURVE",
"1155 61 OFFCURVE",
"1090 42 CURVE SMOOTH",
"943 2 OFFCURVE",
"841 -20 OFFCURVE",
"708 -20 CURVE SMOOTH",
"439 -20 OFFCURVE",
"238 105 OFFCURVE",
"138 309 CURVE SMOOTH",
"87 411 OFFCURVE",
"62 527 OFFCURVE",
"62 656 CURVE SMOOTH"
);
}
);
width = 1351;
}
);
note = Gdotaccent;
unicode = 0120;
},
{
glyphname = H;
layers = (
{
layerId = "35FD6BC4-8300-47F6-A560-C4E3FDEA81EC";
name = Bold;
paths = (
{
closed = 1;
nodes = (
"205 140 LINE",
"205 1191 LINE",
"75 1215 LINE",
"75 1339 LINE",
"649 1339 LINE",
"649 1215 LINE",
"502 1191 LINE",
"502 758 LINE",
"1008 758 LINE",
"1008 1190 LINE",
"871 1215 LINE",
"871 1339 LINE",
"1439 1339 LINE",
"1439 1215 LINE",
"1305 1191 LINE",
"1305 140 LINE",
"1439 118 LINE",
"1439 0 LINE",
"873 0 LINE",
"873 118 LINE",
"1008 141 LINE",
"1008 609 LINE",
"502 609 LINE",
"502 141 LINE",
"649 118 LINE",
"649 0 LINE",
"71 0 LINE",
"71 118 LINE"
);
}
);
width = 1510;
}
);
note = H;
unicode = 0048;
},
{
glyphname = Hbar;
layers = (
{
layerId = "35FD6BC4-8300-47F6-A560-C4E3FDEA81EC";
name = Bold;
paths = (
{
closed = 1;
nodes = (
"205 999 LINE",
"205 1190 LINE",
"67 1215 LINE",
"67 1339 LINE",
"648 1339 LINE",
"648 1215 LINE",
"502 1191 LINE",
"502 999 LINE",
"1008 999 LINE",
"1008 1190 LINE",
"872 1215 LINE",
"872 1339 LINE",
"1443 1339 LINE",
"1443 1215 LINE",
"1305 1191 LINE",
"1305 999 LINE",
"1478 999 LINE",
"1478 882 LINE",
"1305 882 LINE",
"1305 141 LINE",
"1442 118 LINE",
"1442 0 LINE",
"873 0 LINE",
"873 118 LINE",
"1008 141 LINE",
"1008 517 LINE",
"502 517 LINE",
"502 141 LINE",
"648 118 LINE",
"648 0 LINE",
"66 0 LINE",
"66 118 LINE",
"205 141 LINE",
"205 882 LINE",
"48 882 LINE",
"48 999 LINE"
);
},
{
closed = 1;
nodes = (
"1008 882 LINE",
"502 882 LINE",
"502 665 LINE",
"1008 665 LINE"
);
}
);
width = 1510;
}
);
note = Hbar;
unicode = 0126;
},
{
glyphname = Hcircumflex;
layers = (
{
layerId = "35FD6BC4-8300-47F6-A560-C4E3FDEA81EC";
name = Bold;
paths = (
{
closed = 1;
nodes = (
"205 140 LINE",
"205 1191 LINE",
"75 1215 LINE",
"75 1339 LINE",
"649 1339 LINE",
"649 1215 LINE",
"502 1191 LINE",
"502 758 LINE",
"1008 758 LINE",
"1008 1190 LINE",
"871 1215 LINE",
"871 1339 LINE",
"1439 1339 LINE",
"1439 1215 LINE",
"1305 1191 LINE",
"1305 140 LINE",
"1439 118 LINE",
"1439 0 LINE",
"873 0 LINE",
"873 118 LINE",
"1008 141 LINE",
"1008 609 LINE",
"502 609 LINE",
"502 141 LINE",
"649 118 LINE",
"649 0 LINE",
"71 0 LINE",
"71 118 LINE"
);
},
{
closed = 1;
nodes = (
"666 1767 LINE",
"844 1767 LINE",
"1108 1507 LINE",
"1009 1429 LINE",
"755 1597 LINE",
"499 1429 LINE",
"403 1506 LINE"
);
}
);
width = 1510;
}
);
note = Hcircumflex;
unicode = 0124;
},
{
glyphname = I;
layers = (
{
layerId = "35FD6BC4-8300-47F6-A560-C4E3FDEA81EC";
name = Bold;
paths = (
{
closed = 1;
nodes = (
"225 141 LINE",
"225 1190 LINE",
"78 1215 LINE",
"78 1339 LINE",
"671 1339 LINE",
"671 1215 LINE",
"524 1191 LINE",
"524 141 LINE",
"673 116 LINE",
"673 0 LINE",
"80 0 LINE",
"80 118 LINE"
);
}
);
width = 748;
}
);
note = I;
unicode = 0049;
},
{
glyphname = IJ;
layers = (
{
layerId = "35FD6BC4-8300-47F6-A560-C4E3FDEA81EC";
name = Bold;
paths = (
{
closed = 1;
nodes = (
"225 141 LINE",
"225 1190 LINE",
"78 1215 LINE",
"78 1339 LINE",
"671 1339 LINE",
"671 1215 LINE",
"524 1191 LINE",
"524 141 LINE",
"673 116 LINE",
"673 0 LINE",
"80 0 LINE",
"80 118 LINE"
);
},
{
closed = 1;
nodes = (
"715 -242 LINE",
"770 -225 OFFCURVE",
"831 -180 OFFCURVE",
"880 -112 CURVE SMOOTH",
"929 -45 OFFCURVE",
"954 35 OFFCURVE",
"966 143 CURVE SMOOTH",
"971 197 OFFCURVE",
"974 271 OFFCURVE",
"974 365 CURVE SMOOTH",
"974 1190 LINE",
"823 1215 LINE",
"823 1339 LINE",
"1413 1339 LINE",
"1413 1215 LINE",
"1270 1191 LINE",
"1270 501 LINE SMOOTH",
"1270 261 OFFCURVE",
"1265 120 OFFCURVE",
"1245 36 CURVE SMOOTH",
"1193 -164 OFFCURVE",
"1025 -301 OFFCURVE",
"781 -346 CURVE"
);
}
);
width = 1458;
}
);
note = IJ;
unicode = 0132;
},
{
glyphname = Iacute;
layers = (
{
layerId = "35FD6BC4-8300-47F6-A560-C4E3FDEA81EC";
name = Bold;
paths = (
{
closed = 1;
nodes = (
"225 141 LINE",
"225 1190 LINE",
"78 1215 LINE",
"78 1339 LINE",
"671 1339 LINE",
"671 1215 LINE",
"524 1191 LINE",
"524 141 LINE",
"673 116 LINE",
"673 0 LINE",
"80 0 LINE",
"80 118 LINE"
);
},
{
closed = 1;
nodes = (
"513 1772 LINE",
"514 1772 LINE",
"695 1642 LINE",
"636 1573 OFFCURVE",
"537 1506 OFFCURVE",
"448 1463 CURVE SMOOTH",
"403 1441 OFFCURVE",
"368 1427 OFFCURVE",
"342 1420 CURVE",
"341 1420 LINE",
"238 1498 LINE"
);
}
);
width = 748;
}
);
note = Iacute;
unicode = 00CD;
},
{
glyphname = Ibreve;
layers = (
{
layerId = "35FD6BC4-8300-47F6-A560-C4E3FDEA81EC";
name = Bold;
paths = (
{
closed = 1;
nodes = (
"225 141 LINE",
"225 1190 LINE",
"78 1215 LINE",
"78 1339 LINE",
"671 1339 LINE",
"671 1215 LINE",
"524 1191 LINE",
"524 141 LINE",
"673 116 LINE",
"673 0 LINE",
"80 0 LINE",
"80 118 LINE"
);
},
{
closed = 1;
nodes = (
"45 1741 OFFCURVE",
"45 1755 OFFCURVE",
"46 1764 CURVE",
"185 1764 LINE",
"187 1743 LINE",
"199 1678 OFFCURVE",
"251 1614 OFFCURVE",
"378 1614 CURVE SMOOTH",
"503 1614 OFFCURVE",
"552 1676 OFFCURVE",
"561 1743 CURVE SMOOTH",
"562 1749 OFFCURVE",
"562 1756 OFFCURVE",
"562 1764 CURVE",
"704 1764 LINE",
"705 1755 OFFCURVE",
"706 1742 OFFCURVE",
"706 1725 CURVE SMOOTH",
"706 1618 OFFCURVE",
"654 1525 OFFCURVE",
"555 1472 CURVE SMOOTH",
"505 1445 OFFCURVE",
"445 1432 OFFCURVE",
"376 1432 CURVE SMOOTH",
"233 1432 OFFCURVE",
"131 1489 OFFCURVE",
"82 1578 CURVE SMOOTH",
"57 1622 OFFCURVE",
"45 1671 OFFCURVE",
"45 1724 CURVE SMOOTH"
);
}
);
width = 748;
}
);
note = Ibreve;
unicode = 012C;
},
{
glyphname = Icircumflex;
layers = (
{
layerId = "35FD6BC4-8300-47F6-A560-C4E3FDEA81EC";
name = Bold;
paths = (
{
closed = 1;
nodes = (
"225 141 LINE",
"225 1190 LINE",
"78 1215 LINE",
"78 1339 LINE",
"671 1339 LINE",
"671 1215 LINE",
"524 1191 LINE",
"524 141 LINE",
"673 116 LINE",
"673 0 LINE",
"80 0 LINE",
"80 118 LINE"
);
},
{
closed = 1;
nodes = (
"283 1767 LINE",
"461 1767 LINE",
"725 1507 LINE",
"626 1429 LINE",
"372 1597 LINE",
"116 1429 LINE",
"20 1506 LINE"
);
}
);
width = 748;
}
);
note = Icircumflex;
unicode = 00CE;
},
{
glyphname = Idieresis;
layers = (
{
layerId = "35FD6BC4-8300-47F6-A560-C4E3FDEA81EC";
name = Bold;
paths = (
{
closed = 1;
nodes = (
"225 141 LINE",
"225 1190 LINE",
"78 1215 LINE",
"78 1339 LINE",
"671 1339 LINE",
"671 1215 LINE",
"524 1191 LINE",
"524 141 LINE",
"673 116 LINE",
"673 0 LINE",
"80 0 LINE",
"80 118 LINE"
);
},
{
closed = 1;
nodes = (
"-8 1689 OFFCURVE",
"47 1757 OFFCURVE",
"148 1757 CURVE SMOOTH",
"149 1757 LINE SMOOTH",
"241 1757 OFFCURVE",
"291 1696 OFFCURVE",
"291 1619 CURVE SMOOTH",
"291 1520 OFFCURVE",
"235 1455 OFFCURVE",
"123 1455 CURVE SMOOTH",
"122 1455 LINE SMOOTH",
"71 1455 OFFCURVE",
"31 1481 OFFCURVE",
"9 1524 CURVE SMOOTH",
"-2 1545 OFFCURVE",
"-8 1569 OFFCURVE",
"-8 1594 CURVE SMOOTH"
);
},
{
closed = 1;
nodes = (
"457 1689 OFFCURVE",
"511 1757 OFFCURVE",
"611 1757 CURVE SMOOTH",
"612 1757 LINE SMOOTH",
"705 1757 OFFCURVE",
"756 1696 OFFCURVE",
"756 1619 CURVE SMOOTH",
"756 1520 OFFCURVE",
"699 1455 OFFCURVE",
"587 1455 CURVE SMOOTH",
"586 1455 LINE SMOOTH",
"537 1455 OFFCURVE",
"496 1483 OFFCURVE",
"474 1526 CURVE SMOOTH",
"463 1547 OFFCURVE",
"457 1570 OFFCURVE",
"457 1594 CURVE SMOOTH"
);
}
);
width = 748;
}
);
note = Idieresis;
unicode = 00CF;
},
{
glyphname = Idotaccent;
layers = (
{
layerId = "35FD6BC4-8300-47F6-A560-C4E3FDEA81EC";
name = Bold;
paths = (
{
closed = 1;
nodes = (
"225 141 LINE",
"225 1190 LINE",
"78 1215 LINE",
"78 1339 LINE",
"671 1339 LINE",
"671 1215 LINE",
"524 1191 LINE",
"524 141 LINE",
"673 116 LINE",
"673 0 LINE",
"80 0 LINE",
"80 118 LINE"
);
},
{
closed = 1;
nodes = (
"216 1696 OFFCURVE",
"273 1758 OFFCURVE",
"378 1758 CURVE",
"378 1758 LINE",
"443 1758 OFFCURVE",
"492 1732 OFFCURVE",
"517 1691 CURVE SMOOTH",
"529 1670 OFFCURVE",
"535 1647 OFFCURVE",
"535 1622 CURVE SMOOTH",
"535 1523 OFFCURVE",
"477 1463 OFFCURVE",
"362 1463 CURVE SMOOTH",
"361 1463 LINE SMOOTH",
"305 1463 OFFCURVE",
"259 1488 OFFCURVE",
"235 1529 CURVE SMOOTH",
"222 1550 OFFCURVE",
"216 1573 OFFCURVE",
"216 1600 CURVE SMOOTH"
);
}
);
width = 748;
}
);
note = Idotaccent;
unicode = 0130;
},
{
glyphname = Igrave;
layers = (
{
layerId = "35FD6BC4-8300-47F6-A560-C4E3FDEA81EC";
name = Bold;
paths = (
{
closed = 1;
nodes = (
"225 141 LINE",
"225 1190 LINE",
"78 1215 LINE",
"78 1339 LINE",
"671 1339 LINE",
"671 1215 LINE",
"524 1191 LINE",
"524 141 LINE",
"673 116 LINE",
"673 0 LINE",
"80 0 LINE",
"80 118 LINE"
);
},
{
closed = 1;
nodes = (
"246 1772 LINE",
"247 1772 LINE",
"522 1498 LINE",
"419 1420 LINE",
"418 1420 LINE",
"359 1436 OFFCURVE",
"251 1488 OFFCURVE",
"163 1551 CURVE SMOOTH",
"118 1582 OFFCURVE",
"86 1613 OFFCURVE",
"66 1642 CURVE"
);
}
);
width = 748;
}
);
note = Igrave;
unicode = 00CC;
},
{
glyphname = Imacron;
layers = (
{
layerId = "35FD6BC4-8300-47F6-A560-C4E3FDEA81EC";
name = Bold;
paths = (
{
closed = 1;
nodes = (
"225 141 LINE",
"225 1190 LINE",
"78 1215 LINE",
"78 1339 LINE",
"671 1339 LINE",
"671 1215 LINE",
"524 1191 LINE",
"524 141 LINE",
"673 116 LINE",
"673 0 LINE",
"80 0 LINE",
"80 118 LINE"
);
},
{
closed = 1;
nodes = (
"657 1685 LINE",
"657 1514 LINE",
"95 1514 LINE",
"95 1685 LINE"
);
}
);
width = 748;
}
);
note = Imacron;
unicode = 012A;
},
{
glyphname = Iogonek;
layers = (
{
layerId = "35FD6BC4-8300-47F6-A560-C4E3FDEA81EC";
name = Bold;
paths = (
{
closed = 1;
nodes = (
"225 141 LINE",
"225 1190 LINE",
"78 1215 LINE",
"78 1339 LINE",
"671 1339 LINE",
"671 1215 LINE",
"524 1191 LINE",
"524 141 LINE",
"673 116 LINE",
"673 0 LINE",
"517 0 LINE",
"452 -28 OFFCURVE",
"397 -78 OFFCURVE",
"367 -127 CURVE SMOOTH",
"352 -152 OFFCURVE",
"344 -174 OFFCURVE",
"344 -194 CURVE SMOOTH",
"344 -255 OFFCURVE",
"392 -290 OFFCURVE",
"473 -290 CURVE SMOOTH",
"513 -290 OFFCURVE",
"536 -284 OFFCURVE",
"579 -268 CURVE",
"579 -392 LINE",
"530 -428 OFFCURVE",
"434 -451 OFFCURVE",
"357 -451 CURVE SMOOTH",
"262 -451 OFFCURVE",
"184 -423 OFFCURVE",
"141 -369 CURVE SMOOTH",
"120 -342 OFFCURVE",
"109 -310 OFFCURVE",
"109 -272 CURVE SMOOTH",
"109 -205 OFFCURVE",
"153 -132 OFFCURVE",
"224 -72 CURVE SMOOTH",
"259 -43 OFFCURVE",
"299 -19 OFFCURVE",
"344 0 CURVE",
"80 0 LINE",
"80 118 LINE"
);
}
);
width = 748;
}
);
note = Iogonek;
unicode = 012E;
},
{
glyphname = Itilde;
layers = (
{
layerId = "35FD6BC4-8300-47F6-A560-C4E3FDEA81EC";
name = Bold;
paths = (
{
closed = 1;
nodes = (
"225 141 LINE",
"225 1190 LINE",
"78 1215 LINE",
"78 1339 LINE",
"671 1339 LINE",
"671 1215 LINE",
"524 1191 LINE",
"524 141 LINE",
"673 116 LINE",
"673 0 LINE",
"80 0 LINE",
"80 118 LINE"
);
},
{
closed = 1;
nodes = (
"142 1593 OFFCURVE",
"109 1563 OFFCURVE",
"70 1516 CURVE SMOOTH",
"56 1500 LINE",
"-35 1579 LINE",
"-10 1636 OFFCURVE",
"39 1698 OFFCURVE",
"114 1738 CURVE SMOOTH",
"151 1758 OFFCURVE",
"193 1768 OFFCURVE",
"238 1768 CURVE SMOOTH",
"314 1768 OFFCURVE",
"361 1740 OFFCURVE",
"430 1689 CURVE SMOOTH",
"485 1649 OFFCURVE",
"515 1631 OFFCURVE",
"556 1631 CURVE SMOOTH",
"615 1631 OFFCURVE",
"641 1657 OFFCURVE",
"676 1704 CURVE SMOOTH",
"691 1723 LINE",
"783 1645 LINE",
"720 1518 OFFCURVE",
"635 1455 OFFCURVE",
"527 1455 CURVE SMOOTH",
"455 1455 OFFCURVE",
"408 1480 OFFCURVE",
"335 1531 CURVE SMOOTH",
"275 1574 OFFCURVE",
"241 1593 OFFCURVE",
"194 1593 CURVE SMOOTH"
);
}
);
width = 748;
}
);
note = Itilde;
unicode = 0128;
},
{
glyphname = J;
layers = (
{
layerId = "35FD6BC4-8300-47F6-A560-C4E3FDEA81EC";
name = Bold;
paths = (
{
closed = 1;
nodes = (
"-33 -242 LINE",
"22 -225 OFFCURVE",
"83 -180 OFFCURVE",
"132 -112 CURVE SMOOTH",
"181 -45 OFFCURVE",
"206 35 OFFCURVE",
"218 143 CURVE SMOOTH",
"223 197 OFFCURVE",
"226 271 OFFCURVE",
"226 365 CURVE SMOOTH",
"226 1190 LINE",
"75 1215 LINE",
"75 1339 LINE",
"665 1339 LINE",
"665 1215 LINE",
"522 1191 LINE",
"522 501 LINE SMOOTH",
"522 261 OFFCURVE",
"517 120 OFFCURVE",
"497 36 CURVE SMOOTH",
"445 -164 OFFCURVE",
"277 -301 OFFCURVE",
"33 -346 CURVE"
);
}
);
width = 710;
}
);
note = J;
unicode = 004A;
},
{
glyphname = Jcircumflex;
layers = (
{
layerId = "35FD6BC4-8300-47F6-A560-C4E3FDEA81EC";
name = Bold;
paths = (
{
closed = 1;
nodes = (
"-33 -242 LINE",
"22 -225 OFFCURVE",
"83 -180 OFFCURVE",
"132 -112 CURVE SMOOTH",
"181 -45 OFFCURVE",
"206 35 OFFCURVE",
"218 143 CURVE SMOOTH",
"223 197 OFFCURVE",
"226 271 OFFCURVE",
"226 365 CURVE SMOOTH",
"226 1190 LINE",
"75 1215 LINE",
"75 1339 LINE",
"665 1339 LINE",
"665 1215 LINE",
"522 1191 LINE",
"522 501 LINE SMOOTH",
"522 261 OFFCURVE",
"517 120 OFFCURVE",
"497 36 CURVE SMOOTH",
"445 -164 OFFCURVE",
"277 -301 OFFCURVE",
"33 -346 CURVE"
);
},
{
closed = 1;
nodes = (
"281 1767 LINE",
"459 1767 LINE",
"723 1507 LINE",
"624 1429 LINE",
"370 1597 LINE",
"114 1429 LINE",
"18 1506 LINE"
);
}
);
width = 710;
}
);
note = Jcircumflex;
unicode = 0134;
},
{
glyphname = K;
layers = (
{
layerId = "35FD6BC4-8300-47F6-A560-C4E3FDEA81EC";
name = Bold;
paths = (
{
closed = 1;
nodes = (
"1009 0 LINE SMOOTH",
"991 0 OFFCURVE",
"968 24 OFFCURVE",
"941 71 CURVE SMOOTH",
"914 118 OFFCURVE",
"876 190 OFFCURVE",
"828 289 CURVE SMOOTH",
"748 452 OFFCURVE",
"698 547 OFFCURVE",
"649 614 CURVE",
"502 442 LINE",
"502 140 LINE",
"656 118 LINE",
"656 0 LINE",
"66 0 LINE",
"66 118 LINE",
"205 141 LINE",
"205 1191 LINE",
"67 1215 LINE",
"67 1339 LINE",
"633 1339 LINE",
"633 1215 LINE",
"502 1190 LINE",
"502 627 LINE",
"942 1191 LINE",
"799 1215 LINE",
"798 1339 LINE",
"1302 1339 LINE",
"1302 1216 LINE",
"1149 1191 LINE",
"822 818 LINE",
"903 745 OFFCURVE",
"989 608 OFFCURVE",
"1118 385 CURVE SMOOTH",
"1166 303 OFFCURVE",
"1202 243 OFFCURVE",
"1226 206 CURVE SMOOTH",
"1250 169 OFFCURVE",
"1269 147 OFFCURVE",
"1282 141 CURVE",
"1363 118 LINE",
"1363 0 LINE"
);
}
);
width = 1356;
}
);
note = K;
unicode = 004B;
},
{
glyphname = Kcommaaccent;
layers = (
{
layerId = "35FD6BC4-8300-47F6-A560-C4E3FDEA81EC";
name = Bold;
paths = (
{
closed = 1;
nodes = (
"691 -493 LINE",
"604 -462 LINE",
"601 -446 LINE",
"628 -435 OFFCURVE",
"645 -387 OFFCURVE",
"645 -343 CURVE SMOOTH",
"645 -316 OFFCURVE",
"632 -296 OFFCURVE",
"607 -282 CURVE",
"584 -266 OFFCURVE",
"569 -238 OFFCURVE",
"569 -194 CURVE SMOOTH",
"569 -142 OFFCURVE",
"603 -110 OFFCURVE",
"644 -95 CURVE SMOOTH",
"665 -88 OFFCURVE",
"685 -84 OFFCURVE",
"705 -84 CURVE SMOOTH",
"714 -84 LINE SMOOTH",
"798 -84 OFFCURVE",
"855 -139 OFFCURVE",
"855 -231 CURVE SMOOTH",
"855 -312 OFFCURVE",
"809 -396 OFFCURVE",
"757 -448 CURVE SMOOTH",
"731 -475 OFFCURVE",
"710 -490 OFFCURVE",
"694 -493 CURVE"
);
},
{
closed = 1;
nodes = (
"1009 0 LINE SMOOTH",
"991 0 OFFCURVE",
"968 24 OFFCURVE",
"941 71 CURVE SMOOTH",
"914 118 OFFCURVE",
"876 190 OFFCURVE",
"828 289 CURVE SMOOTH",
"748 452 OFFCURVE",
"698 547 OFFCURVE",
"649 614 CURVE",
"502 442 LINE",
"502 140 LINE",
"656 118 LINE",
"656 0 LINE",
"66 0 LINE",
"66 118 LINE",
"205 141 LINE",
"205 1191 LINE",
"67 1215 LINE",
"67 1339 LINE",
"633 1339 LINE",
"633 1215 LINE",
"502 1190 LINE",
"502 627 LINE",
"942 1191 LINE",
"799 1215 LINE",
"798 1339 LINE",
"1302 1339 LINE",
"1302 1216 LINE",
"1149 1191 LINE",
"822 818 LINE",
"903 745 OFFCURVE",
"989 608 OFFCURVE",
"1118 385 CURVE SMOOTH",
"1166 303 OFFCURVE",
"1202 243 OFFCURVE",
"1226 206 CURVE SMOOTH",
"1250 169 OFFCURVE",
"1269 147 OFFCURVE",
"1282 141 CURVE",
"1363 118 LINE",
"1363 0 LINE"
);
}
);
width = 1356;
}
);
note = Kcommaaccent;
unicode = 0136;
},
{
glyphname = L;
layers = (
{
layerId = "35FD6BC4-8300-47F6-A560-C4E3FDEA81EC";
name = Bold;
paths = (
{
closed = 1;
nodes = (
"205 141 LINE",
"205 1190 LINE",
"70 1215 LINE",
"70 1339 LINE",
"671 1339 LINE",
"671 1215 LINE",
"504 1190 LINE",
"504 142 LINE",
"851 161 LINE",
"967 502 LINE",
"1132 477 LINE",
"1080 0 LINE",
"68 0 LINE",
"68 118 LINE"
);
}
);
width = 1153;
}
);
note = L;
unicode = 004C;
},
{
glyphname = Lacute;
layers = (
{
layerId = "35FD6BC4-8300-47F6-A560-C4E3FDEA81EC";
name = Bold;
paths = (
{
closed = 1;
nodes = (
"538 1772 LINE",
"539 1772 LINE",
"720 1642 LINE",
"661 1573 OFFCURVE",
"562 1506 OFFCURVE",
"473 1463 CURVE SMOOTH",
"428 1441 OFFCURVE",
"393 1427 OFFCURVE",
"367 1420 CURVE",
"366 1420 LINE",
"263 1498 LINE"
);
},
{
closed = 1;
nodes = (
"205 141 LINE",
"205 1190 LINE",
"70 1215 LINE",
"70 1339 LINE",
"671 1339 LINE",
"671 1215 LINE",
"504 1190 LINE",
"504 142 LINE",
"851 161 LINE",
"967 502 LINE",
"1132 477 LINE",
"1080 0 LINE",
"68 0 LINE",
"68 118 LINE"
);
}
);
width = 1153;
}
);
note = Lacute;
unicode = 0139;
},
{
glyphname = Lcaron;
layers = (
{
layerId = "35FD6BC4-8300-47F6-A560-C4E3FDEA81EC";
name = Bold;
paths = (
{
closed = 1;
nodes = (
"205 141 LINE",
"205 1190 LINE",
"70 1215 LINE",
"70 1339 LINE",
"671 1339 LINE",
"671 1215 LINE",
"504 1190 LINE",
"504 142 LINE",
"851 161 LINE",
"967 502 LINE",
"1132 477 LINE",
"1080 0 LINE",
"68 0 LINE",
"68 118 LINE"
);
},
{
closed = 1;
nodes = (
"812 925 LINE",
"828 986 OFFCURVE",
"836 1051 OFFCURVE",
"836 1179 CURVE SMOOTH",
"836 1294 OFFCURVE",
"809 1382 OFFCURVE",
"788 1410 CURVE",
"798 1447 LINE",
"993 1491 LINE",
"1022 1458 OFFCURVE",
"1046 1369 OFFCURVE",
"1046 1262 CURVE SMOOTH",
"1046 1143 OFFCURVE",
"1018 1028 OFFCURVE",
"983 949 CURVE SMOOTH",
"966 910 OFFCURVE",
"950 883 OFFCURVE",
"935 869 CURVE",
"817 902 LINE"
);
}
);
width = 1153;
}
);
note = Lcaron;
unicode = 013D;
},
{
glyphname = Lcommaaccent;
layers = (
{
layerId = "35FD6BC4-8300-47F6-A560-C4E3FDEA81EC";
name = Bold;
paths = (
{
closed = 1;
nodes = (
"603 -493 LINE",
"516 -462 LINE",
"513 -446 LINE",
"540 -435 OFFCURVE",
"557 -387 OFFCURVE",
"557 -343 CURVE SMOOTH",
"557 -316 OFFCURVE",
"544 -296 OFFCURVE",
"519 -282 CURVE",
"496 -266 OFFCURVE",
"481 -238 OFFCURVE",
"481 -194 CURVE SMOOTH",
"481 -142 OFFCURVE",
"515 -110 OFFCURVE",
"556 -95 CURVE SMOOTH",
"577 -88 OFFCURVE",
"597 -84 OFFCURVE",
"617 -84 CURVE SMOOTH",
"626 -84 LINE SMOOTH",
"710 -84 OFFCURVE",
"767 -139 OFFCURVE",
"767 -231 CURVE SMOOTH",
"767 -312 OFFCURVE",
"721 -396 OFFCURVE",
"669 -448 CURVE SMOOTH",
"643 -475 OFFCURVE",
"622 -490 OFFCURVE",
"606 -493 CURVE"
);
},
{
closed = 1;
nodes = (
"205 141 LINE",
"205 1190 LINE",
"70 1215 LINE",
"70 1339 LINE",
"671 1339 LINE",
"671 1215 LINE",
"504 1190 LINE",
"504 142 LINE",
"851 161 LINE",
"967 502 LINE",
"1132 477 LINE",
"1080 0 LINE",
"68 0 LINE",
"68 118 LINE"
);
}
);
width = 1150;
}
);
note = Lcommaaccent;
unicode = 013B;
},
{
glyphname = Ldot;
layers = (
{
layerId = "35FD6BC4-8300-47F6-A560-C4E3FDEA81EC";
name = Bold;
paths = (
{
closed = 1;
nodes = (
"205 141 LINE",
"205 1190 LINE",
"70 1215 LINE",
"70 1339 LINE",
"671 1339 LINE",
"671 1215 LINE",
"504 1190 LINE",
"504 142 LINE",
"851 161 LINE",
"967 502 LINE",
"1132 477 LINE",
"1080 0 LINE",
"68 0 LINE",
"68 118 LINE"
);
},
{
closed = 1;
nodes = (
"756 849 OFFCURVE",
"791 900 OFFCURVE",
"846 928 CURVE SMOOTH",
"873 942 OFFCURVE",
"903 949 OFFCURVE",
"935 949 CURVE SMOOTH",
"1002 949 OFFCURVE",
"1050 919 OFFCURVE",
"1075 874 CURVE SMOOTH",
"1088 851 OFFCURVE",
"1094 827 OFFCURVE",
"1094 802 CURVE SMOOTH",
"1094 701 OFFCURVE",
"1017 638 OFFCURVE",
"908 638 CURVE SMOOTH",
"856 638 OFFCURVE",
"806 665 OFFCURVE",
"778 710 CURVE",
"763 732 OFFCURVE",
"756 757 OFFCURVE",
"756 786 CURVE SMOOTH"
);
}
);
width = 1196;
}
);
note = Ldot;
unicode = 013F;
},
{
glyphname = Lslash;
layers = (
{
layerId = "35FD6BC4-8300-47F6-A560-C4E3FDEA81EC";
name = Bold;
paths = (
{
closed = 1;
nodes = (
"205 652 LINE",
"205 1190 LINE",
"70 1215 LINE",
"70 1339 LINE",
"671 1339 LINE",
"671 1215 LINE",
"504 1190 LINE",
"504 770 LINE",
"805 897 LINE",
"805 759 LINE",
"504 638 LINE",
"504 142 LINE",
"851 161 LINE",
"967 502 LINE",
"1132 477 LINE",
"1080 0 LINE",
"68 0 LINE",
"68 118 LINE",
"205 141 LINE",
"205 521 LINE",
"39 455 LINE",
"39 584 LINE"
);
}
);
width = 1150;
}
);
note = Lslash;
unicode = 0141;
},
{
glyphname = M;
layers = (
{
layerId = "35FD6BC4-8300-47F6-A560-C4E3FDEA81EC";
name = Bold;
paths = (
{
closed = 1;
nodes = (
"148 140 LINE",
"270 1191 LINE",
"93 1215 LINE",
"93 1339 LINE",
"676 1339 LINE",
"906 561 LINE",
"938 390 LINE",
"967 561 LINE",
"1160 1339 LINE",
"1749 1339 LINE",
"1749 1215 LINE",
"1558 1190 LINE",
"1714 141 LINE",
"1864 118 LINE",
"1864 0 LINE",
"1261 0 LINE",
"1261 118 LINE",
"1410 140 LINE",
"1319 915 LINE",
"1285 1237 LINE",
"1233 988 LINE",
"991 51 LINE",
"775 51 LINE",
"491 923 LINE",
"414 1243 LINE",
"392 916 LINE",
"335 141 LINE",
"514 118 LINE",
"514 0 LINE",
"-4 0 LINE",
"-4 118 LINE"
);
}
);
width = 1855;
}
);
note = M;
unicode = 004D;
},
{
glyphname = N;
layers = (
{
layerId = "35FD6BC4-8300-47F6-A560-C4E3FDEA81EC";
name = Bold;
paths = (
{
closed = 1;
nodes = (
"207 140 LINE",
"207 1191 LINE",
"64 1215 LINE",
"64 1339 LINE",
"503 1339 LINE",
"1016 562 LINE",
"1111 358 LINE",
"1111 1192 LINE",
"957 1215 LINE",
"957 1339 LINE",
"1419 1339 LINE",
"1419 1215 LINE",
"1280 1191 LINE",
"1280 0 LINE",
"1036 0 LINE",
"496 825 LINE",
"377 1066 LINE",
"377 140 LINE",
"561 118 LINE",
"561 0 LINE",
"64 0 LINE",
"64 118 LINE"
);
}
);
width = 1450;
}
);
note = N;
unicode = 004E;
},
{
glyphname = Nacute;
layers = (
{
layerId = "35FD6BC4-8300-47F6-A560-C4E3FDEA81EC";
name = Bold;
paths = (
{
closed = 1;
nodes = (
"887 1772 LINE",
"888 1772 LINE",
"1069 1642 LINE",
"1010 1573 OFFCURVE",
"911 1506 OFFCURVE",
"822 1463 CURVE SMOOTH",
"777 1441 OFFCURVE",
"742 1427 OFFCURVE",
"716 1420 CURVE",
"715 1420 LINE",
"612 1498 LINE"
);
},
{
closed = 1;
nodes = (
"207 140 LINE",
"207 1191 LINE",
"64 1215 LINE",
"64 1339 LINE",
"503 1339 LINE",
"1016 562 LINE",
"1111 358 LINE",
"1111 1192 LINE",
"957 1215 LINE",
"957 1339 LINE",
"1419 1339 LINE",
"1419 1215 LINE",
"1280 1191 LINE",
"1280 0 LINE",
"1036 0 LINE",
"496 825 LINE",
"377 1066 LINE",
"377 140 LINE",
"561 118 LINE",
"561 0 LINE",
"64 0 LINE",
"64 118 LINE"
);
}
);
width = 1456;
}
);
note = Nacute;
unicode = 0143;
},
{
glyphname = Ncaron;
layers = (
{
layerId = "35FD6BC4-8300-47F6-A560-C4E3FDEA81EC";
name = Bold;
paths = (
{
closed = 1;
nodes = (
"505 1772 LINE",
"742 1616 LINE",
"992 1772 LINE",
"1089 1695 LINE",
"832 1448 LINE",
"653 1448 LINE",
"407 1695 LINE"
);
},
{
closed = 1;
nodes = (
"207 140 LINE",
"207 1191 LINE",
"64 1215 LINE",
"64 1339 LINE",
"503 1339 LINE",
"1016 562 LINE",
"1111 358 LINE",
"1111 1192 LINE",
"957 1215 LINE",
"957 1339 LINE",
"1419 1339 LINE",
"1419 1215 LINE",
"1280 1191 LINE",
"1280 0 LINE",
"1036 0 LINE",
"496 825 LINE",
"377 1066 LINE",
"377 140 LINE",
"561 118 LINE",
"561 0 LINE",
"64 0 LINE",
"64 118 LINE"
);
}
);
width = 1456;
}
);
note = Ncaron;
unicode = 0147;
},
{
glyphname = Ncommaaccent;
layers = (
{
layerId = "35FD6BC4-8300-47F6-A560-C4E3FDEA81EC";
name = Bold;
paths = (
{
closed = 1;
nodes = (
"742 -493 LINE",
"655 -462 LINE",
"652 -446 LINE",
"679 -435 OFFCURVE",
"696 -387 OFFCURVE",
"696 -343 CURVE SMOOTH",
"696 -316 OFFCURVE",
"683 -296 OFFCURVE",
"658 -282 CURVE",
"635 -266 OFFCURVE",
"620 -238 OFFCURVE",
"620 -194 CURVE SMOOTH",
"620 -142 OFFCURVE",
"654 -110 OFFCURVE",
"695 -95 CURVE SMOOTH",
"716 -88 OFFCURVE",
"736 -84 OFFCURVE",
"756 -84 CURVE SMOOTH",
"765 -84 LINE SMOOTH",
"849 -84 OFFCURVE",
"906 -139 OFFCURVE",
"906 -231 CURVE SMOOTH",
"906 -312 OFFCURVE",
"860 -396 OFFCURVE",
"808 -448 CURVE SMOOTH",
"782 -475 OFFCURVE",
"761 -490 OFFCURVE",
"745 -493 CURVE"
);
},
{
closed = 1;
nodes = (
"207 140 LINE",
"207 1191 LINE",
"64 1215 LINE",
"64 1339 LINE",
"503 1339 LINE",
"1016 562 LINE",
"1111 358 LINE",
"1111 1192 LINE",
"957 1215 LINE",
"957 1339 LINE",
"1419 1339 LINE",
"1419 1215 LINE",
"1280 1191 LINE",
"1280 0 LINE",
"1036 0 LINE",
"496 825 LINE",
"377 1066 LINE",
"377 140 LINE",
"561 118 LINE",
"561 0 LINE",
"64 0 LINE",
"64 118 LINE"
);
}
);
width = 1456;
}
);
note = Ncommaaccent;
unicode = 0145;
},
{
glyphname = Eng;
layers = (
{
layerId = "35FD6BC4-8300-47F6-A560-C4E3FDEA81EC";
name = Bold;
paths = (
{
closed = 1;
nodes = (
"216 139 LINE",
"216 1201 LINE",
"61 1231 LINE",
"61 1339 LINE",
"504 1339 LINE",
"996 562 LINE",
"1114 325 LINE",
"1114 1192 LINE",
"956 1218 LINE",
"956 1339 LINE",
"1432 1339 LINE",
"1432 1218 LINE",
"1282 1192 LINE",
"1282 378 LINE SMOOTH",
"1282 154 OFFCURVE",
"1243 14 OFFCURVE",
"1200 -59 CURVE SMOOTH",
"1178 -96 OFFCURVE",
"1150 -134 OFFCURVE",
"1117 -173 CURVE SMOOTH",
"1021 -280 OFFCURVE",
"911 -333 OFFCURVE",
"786 -349 CURVE",
"728 -254 LINE",
"835 -223 OFFCURVE",
"917 -162 OFFCURVE",
"973 -72 CURVE SMOOTH",
"987 -49 OFFCURVE",
"1000 -23 OFFCURVE",
"1012 6 CURVE",
"483 845 LINE",
"385 1049 LINE",
"385 139 LINE",
"554 116 LINE",
"554 0 LINE",
"61 0 LINE",
"61 116 LINE"
);
}
);
width = 1433;
}
);
note = Eng;
unicode = 014A;
},
{
glyphname = Ntilde;
layers = (
{
layerId = "35FD6BC4-8300-47F6-A560-C4E3FDEA81EC";
name = Bold;
paths = (
{
closed = 1;
nodes = (
"513 1593 OFFCURVE",
"480 1563 OFFCURVE",
"441 1516 CURVE SMOOTH",
"427 1500 LINE",
"336 1579 LINE",
"361 1636 OFFCURVE",
"410 1698 OFFCURVE",
"485 1738 CURVE SMOOTH",
"522 1758 OFFCURVE",
"564 1768 OFFCURVE",
"609 1768 CURVE SMOOTH",
"685 1768 OFFCURVE",
"732 1740 OFFCURVE",
"801 1689 CURVE SMOOTH",
"856 1649 OFFCURVE",
"886 1631 OFFCURVE",
"927 1631 CURVE SMOOTH",
"986 1631 OFFCURVE",
"1012 1657 OFFCURVE",
"1047 1704 CURVE SMOOTH",
"1062 1723 LINE",
"1154 1645 LINE",
"1091 1518 OFFCURVE",
"1006 1455 OFFCURVE",
"898 1455 CURVE SMOOTH",
"826 1455 OFFCURVE",
"779 1480 OFFCURVE",
"706 1531 CURVE SMOOTH",
"646 1574 OFFCURVE",
"612 1593 OFFCURVE",
"565 1593 CURVE SMOOTH"
);
},
{
closed = 1;
nodes = (
"207 140 LINE",
"207 1191 LINE",
"64 1215 LINE",
"64 1339 LINE",
"503 1339 LINE",
"1016 562 LINE",
"1111 358 LINE",
"1111 1192 LINE",
"957 1215 LINE",
"957 1339 LINE",
"1419 1339 LINE",
"1419 1215 LINE",
"1280 1191 LINE",
"1280 0 LINE",
"1036 0 LINE",
"496 825 LINE",
"377 1066 LINE",
"377 140 LINE",
"561 118 LINE",
"561 0 LINE",
"64 0 LINE",
"64 118 LINE"
);
}
);
width = 1456;
}
);
note = Ntilde;
unicode = 00D1;
},
{
glyphname = O;
layers = (
{
layerId = "35FD6BC4-8300-47F6-A560-C4E3FDEA81EC";
name = Bold;
paths = (
{
closed = 1;
nodes = (
"48 943 OFFCURVE",
"156 1158 OFFCURVE",
"344 1271 CURVE SMOOTH",
"531 1384 OFFCURVE",
"923 1413 OFFCURVE",
"1119 1181 CURVE SMOOTH",
"1217 1064 OFFCURVE",
"1266 901 OFFCURVE",
"1266 690 CURVE SMOOTH",
"1266 409 OFFCURVE",
"1158 187 OFFCURVE",
"968 69 CURVE SMOOTH",
"873 10 OFFCURVE",
"763 -20 OFFCURVE",
"639 -20 CURVE SMOOTH",
"371 -20 OFFCURVE",
"196 99 OFFCURVE",
"112 303 CURVE SMOOTH",
"69 405 OFFCURVE",
"48 525 OFFCURVE",
"48 664 CURVE SMOOTH"
);
},
{
closed = 1;
nodes = (
"376 290 OFFCURVE",
"477 102 OFFCURVE",
"656 102 CURVE SMOOTH",
"775 102 OFFCURVE",
"860 190 OFFCURVE",
"905 366 CURVE SMOOTH",
"928 453 OFFCURVE",
"939 561 OFFCURVE",
"939 689 CURVE SMOOTH",
"939 1062 OFFCURVE",
"840 1235 OFFCURVE",
"657 1235 CURVE SMOOTH",
"477 1235 OFFCURVE",
"376 1046 OFFCURVE",
"376 666 CURVE SMOOTH"
);
}
);
width = 1314;
}
);
note = O;
unicode = 004F;
},
{
glyphname = Oacute;
layers = (
{
layerId = "35FD6BC4-8300-47F6-A560-C4E3FDEA81EC";
name = Bold;
paths = (
{
closed = 1;
nodes = (
"802 1772 LINE",
"803 1772 LINE",
"984 1642 LINE",
"925 1573 OFFCURVE",
"826 1506 OFFCURVE",
"737 1463 CURVE SMOOTH",
"692 1441 OFFCURVE",
"657 1427 OFFCURVE",
"631 1420 CURVE",
"630 1420 LINE",
"527 1498 LINE"
);
},
{
closed = 1;
nodes = (
"52 943 OFFCURVE",
"160 1158 OFFCURVE",
"348 1271 CURVE SMOOTH",
"535 1384 OFFCURVE",
"927 1413 OFFCURVE",
"1123 1181 CURVE SMOOTH",
"1221 1064 OFFCURVE",
"1270 901 OFFCURVE",
"1270 690 CURVE SMOOTH",
"1270 409 OFFCURVE",
"1162 187 OFFCURVE",
"972 69 CURVE SMOOTH",
"877 10 OFFCURVE",
"767 -20 OFFCURVE",
"643 -20 CURVE SMOOTH",
"375 -20 OFFCURVE",
"200 99 OFFCURVE",
"116 303 CURVE SMOOTH",
"73 405 OFFCURVE",
"52 525 OFFCURVE",
"52 664 CURVE SMOOTH"
);
},
{
closed = 1;
nodes = (
"380 290 OFFCURVE",
"481 102 OFFCURVE",
"660 102 CURVE SMOOTH",
"779 102 OFFCURVE",
"864 190 OFFCURVE",
"909 366 CURVE SMOOTH",
"932 453 OFFCURVE",
"943 561 OFFCURVE",
"943 689 CURVE SMOOTH",
"943 1062 OFFCURVE",
"844 1235 OFFCURVE",
"661 1235 CURVE SMOOTH",
"481 1235 OFFCURVE",
"380 1046 OFFCURVE",
"380 666 CURVE SMOOTH"
);
}
);
width = 1322;
}
);
note = Oacute;
unicode = 00D3;
},
{
glyphname = Obreve;
layers = (
{
layerId = "35FD6BC4-8300-47F6-A560-C4E3FDEA81EC";
name = Bold;
paths = (
{
closed = 1;
nodes = (
"336 1741 OFFCURVE",
"336 1755 OFFCURVE",
"337 1764 CURVE",
"476 1764 LINE",
"478 1743 LINE",
"490 1678 OFFCURVE",
"542 1614 OFFCURVE",
"669 1614 CURVE SMOOTH",
"794 1614 OFFCURVE",
"843 1676 OFFCURVE",
"852 1743 CURVE SMOOTH",
"853 1749 OFFCURVE",
"853 1756 OFFCURVE",
"853 1764 CURVE",
"995 1764 LINE",
"996 1755 OFFCURVE",
"997 1742 OFFCURVE",
"997 1725 CURVE SMOOTH",
"997 1618 OFFCURVE",
"945 1525 OFFCURVE",
"846 1472 CURVE SMOOTH",
"796 1445 OFFCURVE",
"736 1432 OFFCURVE",
"667 1432 CURVE SMOOTH",
"524 1432 OFFCURVE",
"422 1489 OFFCURVE",
"373 1578 CURVE SMOOTH",
"348 1622 OFFCURVE",
"336 1671 OFFCURVE",
"336 1724 CURVE SMOOTH"
);
},
{
closed = 1;
nodes = (
"52 943 OFFCURVE",
"160 1158 OFFCURVE",
"348 1271 CURVE SMOOTH",
"535 1384 OFFCURVE",
"927 1413 OFFCURVE",
"1123 1181 CURVE SMOOTH",
"1221 1064 OFFCURVE",
"1270 901 OFFCURVE",
"1270 690 CURVE SMOOTH",
"1270 409 OFFCURVE",
"1162 187 OFFCURVE",
"972 69 CURVE SMOOTH",
"877 10 OFFCURVE",
"767 -20 OFFCURVE",
"643 -20 CURVE SMOOTH",
"375 -20 OFFCURVE",
"200 99 OFFCURVE",
"116 303 CURVE SMOOTH",
"73 405 OFFCURVE",
"52 525 OFFCURVE",
"52 664 CURVE SMOOTH"
);
},
{
closed = 1;
nodes = (
"380 290 OFFCURVE",
"481 102 OFFCURVE",
"660 102 CURVE SMOOTH",
"779 102 OFFCURVE",
"864 190 OFFCURVE",
"909 366 CURVE SMOOTH",
"932 453 OFFCURVE",
"943 561 OFFCURVE",
"943 689 CURVE SMOOTH",
"943 1062 OFFCURVE",
"844 1235 OFFCURVE",
"661 1235 CURVE SMOOTH",
"481 1235 OFFCURVE",
"380 1046 OFFCURVE",
"380 666 CURVE SMOOTH"
);
}
);
width = 1322;
}
);
note = Obreve;
unicode = 014E;
},
{
glyphname = Ocircumflex;
layers = (
{
layerId = "35FD6BC4-8300-47F6-A560-C4E3FDEA81EC";
name = Bold;
paths = (
{
closed = 1;
nodes = (
"48 943 OFFCURVE",
"156 1158 OFFCURVE",
"344 1271 CURVE SMOOTH",
"531 1384 OFFCURVE",
"923 1413 OFFCURVE",
"1119 1181 CURVE SMOOTH",
"1217 1064 OFFCURVE",
"1266 901 OFFCURVE",
"1266 690 CURVE SMOOTH",
"1266 409 OFFCURVE",
"1158 187 OFFCURVE",
"968 69 CURVE SMOOTH",
"873 10 OFFCURVE",
"763 -20 OFFCURVE",
"639 -20 CURVE SMOOTH",
"371 -20 OFFCURVE",
"196 99 OFFCURVE",
"112 303 CURVE SMOOTH",
"69 405 OFFCURVE",
"48 525 OFFCURVE",
"48 664 CURVE SMOOTH"
);
},
{
closed = 1;
nodes = (
"376 290 OFFCURVE",
"477 102 OFFCURVE",
"656 102 CURVE SMOOTH",
"775 102 OFFCURVE",
"860 190 OFFCURVE",
"905 366 CURVE SMOOTH",
"928 453 OFFCURVE",
"939 561 OFFCURVE",
"939 689 CURVE SMOOTH",
"939 1062 OFFCURVE",
"840 1235 OFFCURVE",
"657 1235 CURVE SMOOTH",
"477 1235 OFFCURVE",
"376 1046 OFFCURVE",
"376 666 CURVE SMOOTH"
);
},
{
closed = 1;
nodes = (
"569 1767 LINE",
"747 1767 LINE",
"1011 1507 LINE",
"912 1429 LINE",
"658 1597 LINE",
"402 1429 LINE",
"306 1506 LINE"
);
}
);
width = 1314;
}
);
note = Ocircumflex;
unicode = 00D4;
},
{
glyphname = Odieresis;
layers = (
{
layerId = "35FD6BC4-8300-47F6-A560-C4E3FDEA81EC";
name = Bold;
paths = (
{
closed = 1;
nodes = (
"283 1689 OFFCURVE",
"338 1757 OFFCURVE",
"439 1757 CURVE SMOOTH",
"440 1757 LINE SMOOTH",
"532 1757 OFFCURVE",
"582 1696 OFFCURVE",
"582 1619 CURVE SMOOTH",
"582 1520 OFFCURVE",
"526 1455 OFFCURVE",
"414 1455 CURVE SMOOTH",
"413 1455 LINE SMOOTH",
"362 1455 OFFCURVE",
"322 1481 OFFCURVE",
"300 1524 CURVE SMOOTH",
"289 1545 OFFCURVE",
"283 1569 OFFCURVE",
"283 1594 CURVE SMOOTH"
);
},
{
closed = 1;
nodes = (
"748 1689 OFFCURVE",
"802 1757 OFFCURVE",
"902 1757 CURVE SMOOTH",
"903 1757 LINE SMOOTH",
"996 1757 OFFCURVE",
"1047 1696 OFFCURVE",
"1047 1619 CURVE SMOOTH",
"1047 1520 OFFCURVE",
"990 1455 OFFCURVE",
"878 1455 CURVE SMOOTH",
"877 1455 LINE SMOOTH",
"828 1455 OFFCURVE",
"787 1483 OFFCURVE",
"765 1526 CURVE SMOOTH",
"754 1547 OFFCURVE",
"748 1570 OFFCURVE",
"748 1594 CURVE SMOOTH"
);
},
{
closed = 1;
nodes = (
"52 943 OFFCURVE",
"160 1158 OFFCURVE",
"348 1271 CURVE SMOOTH",
"535 1384 OFFCURVE",
"927 1413 OFFCURVE",
"1123 1181 CURVE SMOOTH",
"1221 1064 OFFCURVE",
"1270 901 OFFCURVE",
"1270 690 CURVE SMOOTH",
"1270 409 OFFCURVE",
"1162 187 OFFCURVE",
"972 69 CURVE SMOOTH",
"877 10 OFFCURVE",
"767 -20 OFFCURVE",
"643 -20 CURVE SMOOTH",
"375 -20 OFFCURVE",
"200 99 OFFCURVE",
"116 303 CURVE SMOOTH",
"73 405 OFFCURVE",
"52 525 OFFCURVE",
"52 664 CURVE SMOOTH"
);
},
{
closed = 1;
nodes = (
"380 290 OFFCURVE",
"481 102 OFFCURVE",
"660 102 CURVE SMOOTH",
"779 102 OFFCURVE",
"864 190 OFFCURVE",
"909 366 CURVE SMOOTH",
"932 453 OFFCURVE",
"943 561 OFFCURVE",
"943 689 CURVE SMOOTH",
"943 1062 OFFCURVE",
"844 1235 OFFCURVE",
"661 1235 CURVE SMOOTH",
"481 1235 OFFCURVE",
"380 1046 OFFCURVE",
"380 666 CURVE SMOOTH"
);
}
);
width = 1322;
}
);
note = Odieresis;
unicode = 00D6;
},
{
glyphname = Ograve;
layers = (
{
layerId = "35FD6BC4-8300-47F6-A560-C4E3FDEA81EC";
name = Bold;
paths = (
{
closed = 1;
nodes = (
"540 1772 LINE",
"541 1772 LINE",
"816 1498 LINE",
"713 1420 LINE",
"712 1420 LINE",
"653 1436 OFFCURVE",
"545 1488 OFFCURVE",
"457 1551 CURVE SMOOTH",
"412 1582 OFFCURVE",
"380 1613 OFFCURVE",
"360 1642 CURVE"
);
},
{
closed = 1;
nodes = (
"52 943 OFFCURVE",
"160 1158 OFFCURVE",
"348 1271 CURVE SMOOTH",
"535 1384 OFFCURVE",
"927 1413 OFFCURVE",
"1123 1181 CURVE SMOOTH",
"1221 1064 OFFCURVE",
"1270 901 OFFCURVE",
"1270 690 CURVE SMOOTH",
"1270 409 OFFCURVE",
"1162 187 OFFCURVE",
"972 69 CURVE SMOOTH",
"877 10 OFFCURVE",
"767 -20 OFFCURVE",
"643 -20 CURVE SMOOTH",
"375 -20 OFFCURVE",
"200 99 OFFCURVE",
"116 303 CURVE SMOOTH",
"73 405 OFFCURVE",
"52 525 OFFCURVE",
"52 664 CURVE SMOOTH"
);
},
{
closed = 1;
nodes = (
"380 290 OFFCURVE",
"481 102 OFFCURVE",
"660 102 CURVE SMOOTH",
"779 102 OFFCURVE",
"864 190 OFFCURVE",
"909 366 CURVE SMOOTH",
"932 453 OFFCURVE",
"943 561 OFFCURVE",
"943 689 CURVE SMOOTH",
"943 1062 OFFCURVE",
"844 1235 OFFCURVE",
"661 1235 CURVE SMOOTH",
"481 1235 OFFCURVE",
"380 1046 OFFCURVE",
"380 666 CURVE SMOOTH"
);
}
);
width = 1322;
}
);
note = Ograve;
unicode = 00D2;
},
{
glyphname = Ohungarumlaut;
layers = (
{
layerId = "35FD6BC4-8300-47F6-A560-C4E3FDEA81EC";
name = Bold;
paths = (
{
closed = 1;
nodes = (
"48 943 OFFCURVE",
"156 1158 OFFCURVE",
"344 1271 CURVE SMOOTH",
"531 1384 OFFCURVE",
"923 1413 OFFCURVE",
"1119 1181 CURVE SMOOTH",
"1217 1064 OFFCURVE",
"1266 901 OFFCURVE",
"1266 690 CURVE SMOOTH",
"1266 409 OFFCURVE",
"1158 187 OFFCURVE",
"968 69 CURVE SMOOTH",
"873 10 OFFCURVE",
"763 -20 OFFCURVE",
"639 -20 CURVE SMOOTH",
"371 -20 OFFCURVE",
"196 99 OFFCURVE",
"112 303 CURVE SMOOTH",
"69 405 OFFCURVE",
"48 525 OFFCURVE",
"48 664 CURVE SMOOTH"
);
},
{
closed = 1;
nodes = (
"376 290 OFFCURVE",
"477 102 OFFCURVE",
"656 102 CURVE SMOOTH",
"775 102 OFFCURVE",
"860 190 OFFCURVE",
"905 366 CURVE SMOOTH",
"928 453 OFFCURVE",
"939 561 OFFCURVE",
"939 689 CURVE SMOOTH",
"939 1062 OFFCURVE",
"840 1235 OFFCURVE",
"657 1235 CURVE SMOOTH",
"477 1235 OFFCURVE",
"376 1046 OFFCURVE",
"376 666 CURVE SMOOTH"
);
},
{
closed = 1;
nodes = (
"551 1772 LINE",
"710 1649 LINE",
"637 1560 OFFCURVE",
"506 1465 OFFCURVE",
"409 1417 CURVE",
"296 1511 LINE"
);
},
{
closed = 1;
nodes = (
"1042 1772 LINE",
"1192 1651 LINE",
"1131 1568 OFFCURVE",
"989 1464 OFFCURVE",
"890 1417 CURVE",
"778 1511 LINE"
);
}
);
width = 1314;
}
);
note = Ohungarumlaut;
unicode = 0150;
},
{
glyphname = Omacron;
layers = (
{
layerId = "35FD6BC4-8300-47F6-A560-C4E3FDEA81EC";
name = Bold;
paths = (
{
closed = 1;
nodes = (
"947 1685 LINE",
"947 1514 LINE",
"385 1514 LINE",
"385 1685 LINE"
);
},
{
closed = 1;
nodes = (
"52 943 OFFCURVE",
"160 1158 OFFCURVE",
"348 1271 CURVE SMOOTH",
"535 1384 OFFCURVE",
"927 1413 OFFCURVE",
"1123 1181 CURVE SMOOTH",
"1221 1064 OFFCURVE",
"1270 901 OFFCURVE",
"1270 690 CURVE SMOOTH",
"1270 409 OFFCURVE",
"1162 187 OFFCURVE",
"972 69 CURVE SMOOTH",
"877 10 OFFCURVE",
"767 -20 OFFCURVE",
"643 -20 CURVE SMOOTH",
"375 -20 OFFCURVE",
"200 99 OFFCURVE",
"116 303 CURVE SMOOTH",
"73 405 OFFCURVE",
"52 525 OFFCURVE",
"52 664 CURVE SMOOTH"
);
},
{
closed = 1;
nodes = (
"380 290 OFFCURVE",
"481 102 OFFCURVE",
"660 102 CURVE SMOOTH",
"779 102 OFFCURVE",
"864 190 OFFCURVE",
"909 366 CURVE SMOOTH",
"932 453 OFFCURVE",
"943 561 OFFCURVE",
"943 689 CURVE SMOOTH",
"943 1062 OFFCURVE",
"844 1235 OFFCURVE",
"661 1235 CURVE SMOOTH",
"481 1235 OFFCURVE",
"380 1046 OFFCURVE",
"380 666 CURVE SMOOTH"
);
}
);
width = 1322;
}
);
note = Omacron;
unicode = 014C;
},
{
glyphname = Oslash;
layers = (
{
layerId = "35FD6BC4-8300-47F6-A560-C4E3FDEA81EC";
name = Bold;
paths = (
{
closed = 1;
nodes = (
"350 40 LINE",
"147 140 OFFCURVE",
"48 361 OFFCURVE",
"48 664 CURVE SMOOTH",
"48 941 OFFCURVE",
"155 1157 OFFCURVE",
"343 1271 CURVE SMOOTH",
"436 1328 OFFCURVE",
"544 1356 OFFCURVE",
"667 1356 CURVE SMOOTH",
"726 1356 OFFCURVE",
"783 1350 OFFCURVE",
"837 1339 CURVE",
"912 1534 LINE",
"1038 1494 LINE",
"961 1298 LINE",
"1168 1203 OFFCURVE",
"1266 991 OFFCURVE",
"1266 690 CURVE SMOOTH",
"1266 410 OFFCURVE",
"1159 190 OFFCURVE",
"972 71 CURVE SMOOTH",
"879 12 OFFCURVE",
"771 -19 OFFCURVE",
"649 -20 CURVE SMOOTH",
"588 -20 OFFCURVE",
"532 -15 OFFCURVE",
"481 -4 CURVE",
"400 -211 LINE",
"266 -173 LINE"
);
},
{
closed = 1;
nodes = (
"376 467 OFFCURVE",
"403 319 OFFCURVE",
"458 224 CURVE",
"790 1193 LINE",
"753 1221 OFFCURVE",
"709 1235 OFFCURVE",
"657 1235 CURVE SMOOTH",
"477 1235 OFFCURVE",
"376 1046 OFFCURVE",
"376 666 CURVE SMOOTH"
);
},
{
closed = 1;
nodes = (
"531 142 LINE",
"567 115 OFFCURVE",
"609 102 OFFCURVE",
"656 102 CURVE SMOOTH",
"775 102 OFFCURVE",
"860 190 OFFCURVE",
"905 366 CURVE SMOOTH",
"928 453 OFFCURVE",
"939 561 OFFCURVE",
"939 689 CURVE SMOOTH",
"939 878 OFFCURVE",
"913 1018 OFFCURVE",
"862 1109 CURVE"
);
}
);
width = 1314;
}
);
note = Oslash;
unicode = 00D8;
},
{
glyphname = Otilde;
layers = (
{
layerId = "35FD6BC4-8300-47F6-A560-C4E3FDEA81EC";
name = Bold;
paths = (
{
closed = 1;
nodes = (
"433 1593 OFFCURVE",
"400 1563 OFFCURVE",
"361 1516 CURVE SMOOTH",
"347 1500 LINE",
"256 1579 LINE",
"281 1636 OFFCURVE",
"330 1698 OFFCURVE",
"405 1738 CURVE SMOOTH",
"442 1758 OFFCURVE",
"484 1768 OFFCURVE",
"529 1768 CURVE SMOOTH",
"605 1768 OFFCURVE",
"652 1740 OFFCURVE",
"721 1689 CURVE SMOOTH",
"776 1649 OFFCURVE",
"806 1631 OFFCURVE",
"847 1631 CURVE SMOOTH",
"906 1631 OFFCURVE",
"932 1657 OFFCURVE",
"967 1704 CURVE SMOOTH",
"982 1723 LINE",
"1074 1645 LINE",
"1011 1518 OFFCURVE",
"926 1455 OFFCURVE",
"818 1455 CURVE SMOOTH",
"746 1455 OFFCURVE",
"699 1480 OFFCURVE",
"626 1531 CURVE SMOOTH",
"566 1574 OFFCURVE",
"532 1593 OFFCURVE",
"485 1593 CURVE SMOOTH"
);
},
{
closed = 1;
nodes = (
"52 943 OFFCURVE",
"160 1158 OFFCURVE",
"348 1271 CURVE SMOOTH",
"535 1384 OFFCURVE",
"927 1413 OFFCURVE",
"1123 1181 CURVE SMOOTH",
"1221 1064 OFFCURVE",
"1270 901 OFFCURVE",
"1270 690 CURVE SMOOTH",
"1270 409 OFFCURVE",
"1162 187 OFFCURVE",
"972 69 CURVE SMOOTH",
"877 10 OFFCURVE",
"767 -20 OFFCURVE",
"643 -20 CURVE SMOOTH",
"375 -20 OFFCURVE",
"200 99 OFFCURVE",
"116 303 CURVE SMOOTH",
"73 405 OFFCURVE",
"52 525 OFFCURVE",
"52 664 CURVE SMOOTH"
);
},
{
closed = 1;
nodes = (
"380 290 OFFCURVE",
"481 102 OFFCURVE",
"660 102 CURVE SMOOTH",
"779 102 OFFCURVE",
"864 190 OFFCURVE",
"909 366 CURVE SMOOTH",
"932 453 OFFCURVE",
"943 561 OFFCURVE",
"943 689 CURVE SMOOTH",
"943 1062 OFFCURVE",
"844 1235 OFFCURVE",
"661 1235 CURVE SMOOTH",
"481 1235 OFFCURVE",
"380 1046 OFFCURVE",
"380 666 CURVE SMOOTH"
);
}
);
width = 1322;
}
);
note = Otilde;
unicode = 00D5;
},
{
glyphname = OE;
layers = (
{
layerId = "35FD6BC4-8300-47F6-A560-C4E3FDEA81EC";
name = Bold;
paths = (
{
closed = 1;
nodes = (
"873 41 LINE",
"808 4 OFFCURVE",
"733 -14 OFFCURVE",
"648 -14 CURVE SMOOTH",
"385 -14 OFFCURVE",
"208 105 OFFCURVE",
"121 309 CURVE SMOOTH",
"77 410 OFFCURVE",
"55 529 OFFCURVE",
"55 665 CURVE SMOOTH",
"55 945 OFFCURVE",
"160 1159 OFFCURVE",
"348 1272 CURVE SMOOTH",
"441 1329 OFFCURVE",
"551 1357 OFFCURVE",
"676 1357 CURVE SMOOTH",
"751 1357 OFFCURVE",
"816 1346 OFFCURVE",
"873 1324 CURVE",
"873 1339 LINE",
"1712 1339 LINE",
"1737 1029 LINE",
"1594 1029 LINE",
"1533 1203 LINE",
"1175 1221 LINE",
"1175 752 LINE",
"1401 758 LINE",
"1431 901 LINE",
"1567 901 LINE",
"1567 457 LINE",
"1431 457 LINE",
"1402 608 LINE",
"1175 613 LINE",
"1175 128 LINE",
"1583 151 LINE",
"1709 375 LINE",
"1853 332 LINE",
"1792 0 LINE",
"873 0 LINE"
);
},
{
closed = 1;
nodes = (
"873 1106 LINE",
"829 1201 OFFCURVE",
"763 1239 OFFCURVE",
"660 1239 CURVE SMOOTH",
"479 1239 OFFCURVE",
"379 1045 OFFCURVE",
"379 666 CURVE SMOOTH",
"379 427 OFFCURVE",
"427 256 OFFCURVE",
"512 170 CURVE SMOOTH",
"597 84 OFFCURVE",
"717 90 OFFCURVE",
"787 148 CURVE SMOOTH",
"822 177 OFFCURVE",
"850 218 OFFCURVE",
"873 272 CURVE"
);
}
);
width = 1872;
}
);
note = OE;
unicode = 0152;
},
{
glyphname = P;
layers = (
{
layerId = "35FD6BC4-8300-47F6-A560-C4E3FDEA81EC";
name = Bold;
paths = (
{
closed = 1;
nodes = (
"205 140 LINE",
"205 1191 LINE",
"74 1215 LINE",
"74 1339 LINE",
"343 1339 LINE SMOOTH",
"376 1339 OFFCURVE",
"414 1341 OFFCURVE",
"459 1344 CURVE SMOOTH",
"538 1348 OFFCURVE",
"601 1350 OFFCURVE",
"646 1350 CURVE SMOOTH",
"907 1350 OFFCURVE",
"1053 1287 OFFCURVE",
"1117 1172 CURVE SMOOTH",
"1148 1114 OFFCURVE",
"1164 1041 OFFCURVE",
"1164 952 CURVE SMOOTH",
"1164 749 OFFCURVE",
"1078 602 OFFCURVE",
"917 525 CURVE SMOOTH",
"836 486 OFFCURVE",
"740 467 OFFCURVE",
"627 467 CURVE SMOOTH",
"572 467 OFFCURVE",
"518 470 OFFCURVE",
"502 473 CURVE",
"502 141 LINE",
"736 118 LINE",
"736 0 LINE",
"68 0 LINE",
"68 118 LINE"
);
},
{
closed = 1;
nodes = (
"765 589 OFFCURVE",
"857 688 OFFCURVE",
"857 945 CURVE SMOOTH",
"857 1142 OFFCURVE",
"777 1230 OFFCURVE",
"617 1230 CURVE SMOOTH",
"583 1230 OFFCURVE",
"553 1228 OFFCURVE",
"527 1223 CURVE",
"520 1222 OFFCURVE",
"512 1221 OFFCURVE",
"502 1220 CURVE",
"502 598 LINE",
"529 592 OFFCURVE",
"569 589 OFFCURVE",
"622 589 CURVE SMOOTH"
);
}
);
width = 1197;
}
);
note = P;
unicode = 0050;
},
{
glyphname = Thorn;
layers = (
{
layerId = "35FD6BC4-8300-47F6-A560-C4E3FDEA81EC";
name = Bold;
paths = (
{
closed = 1;
nodes = (
"204 139 LINE",
"204 1192 LINE",
"64 1218 LINE",
"64 1339 LINE",
"649 1339 LINE",
"650 1218 LINE",
"502 1192 LINE",
"502 1032 LINE",
"570 1038 LINE SMOOTH",
"642 1046 OFFCURVE",
"706 1050 OFFCURVE",
"762 1050 CURVE SMOOTH",
"1026 1050 OFFCURVE",
"1162 932 OFFCURVE",
"1162 693 CURVE SMOOTH",
"1162 420 OFFCURVE",
"1000 286 OFFCURVE",
"708 286 CURVE SMOOTH",
"639 286 OFFCURVE",
"570 290 OFFCURVE",
"502 297 CURVE",
"502 139 LINE",
"686 116 LINE",
"686 0 LINE",
"64 0 LINE",
"64 116 LINE"
);
},
{
closed = 1;
nodes = (
"848 824 OFFCURVE",
"785 921 OFFCURVE",
"637 921 CURVE SMOOTH",
"592 921 OFFCURVE",
"547 917 OFFCURVE",
"502 908 CURVE",
"502 414 LINE",
"551 406 OFFCURVE",
"587 407 OFFCURVE",
"656 407 CURVE SMOOTH",
"732 407 OFFCURVE",
"791 448 OFFCURVE",
"824 530 CURVE SMOOTH",
"840 571 OFFCURVE",
"848 621 OFFCURVE",
"848 681 CURVE SMOOTH"
);
}
);
width = 1202;
}
);
note = Thorn;
unicode = 00DE;
},
{
glyphname = Q;
layers = (
{
layerId = "35FD6BC4-8300-47F6-A560-C4E3FDEA81EC";
name = Bold;
paths = (
{
closed = 1;
nodes = (
"53 943 OFFCURVE",
"161 1158 OFFCURVE",
"348 1271 CURVE SMOOTH",
"535 1384 OFFCURVE",
"928 1413 OFFCURVE",
"1124 1181 CURVE SMOOTH",
"1222 1064 OFFCURVE",
"1271 901 OFFCURVE",
"1271 690 CURVE SMOOTH",
"1271 399 OFFCURVE",
"1154 171 OFFCURVE",
"954 58 CURVE",
"1033 42 OFFCURVE",
"1106 9 OFFCURVE",
"1237 -54 CURVE SMOOTH",
"1390 -126 OFFCURVE",
"1473 -163 OFFCURVE",
"1552 -163 CURVE SMOOTH",
"1554 -163 LINE SMOOTH",
"1590 -163 OFFCURVE",
"1620 -160 OFFCURVE",
"1643 -155 CURVE",
"1673 -248 LINE",
"1672 -249 OFFCURVE",
"1664 -259 OFFCURVE",
"1649 -276 CURVE SMOOTH",
"1619 -311 OFFCURVE",
"1536 -344 OFFCURVE",
"1439 -344 CURVE SMOOTH",
"1429 -344 LINE SMOOTH",
"1324 -344 OFFCURVE",
"1224 -303 OFFCURVE",
"1145 -250 CURVE SMOOTH",
"1105 -224 OFFCURVE",
"1057 -190 OFFCURVE",
"1002 -147 CURVE SMOOTH",
"907 -74 OFFCURVE",
"849 -33 OFFCURVE",
"784 -6 CURVE",
"741 -15 OFFCURVE",
"694 -20 OFFCURVE",
"643 -20 CURVE SMOOTH",
"376 -20 OFFCURVE",
"201 99 OFFCURVE",
"117 303 CURVE SMOOTH",
"74 405 OFFCURVE",
"53 525 OFFCURVE",
"53 664 CURVE SMOOTH"
);
},
{
closed = 1;
nodes = (
"380 290 OFFCURVE",
"481 102 OFFCURVE",
"661 102 CURVE SMOOTH",
"780 102 OFFCURVE",
"865 190 OFFCURVE",
"910 366 CURVE SMOOTH",
"932 453 OFFCURVE",
"943 561 OFFCURVE",
"943 689 CURVE SMOOTH",
"943 1062 OFFCURVE",
"843 1235 OFFCURVE",
"662 1235 CURVE SMOOTH",
"481 1235 OFFCURVE",
"380 1046 OFFCURVE",
"380 666 CURVE SMOOTH"
);
}
);
width = 1324;
}
);
note = Q;
unicode = 0051;
},
{
glyphname = R;
layers = (
{
layerId = "35FD6BC4-8300-47F6-A560-C4E3FDEA81EC";
name = Bold;
paths = (
{
closed = 1;
nodes = (
"205 140 LINE",
"205 1191 LINE",
"74 1215 LINE",
"74 1339 LINE",
"348 1339 LINE SMOOTH",
"379 1339 OFFCURVE",
"425 1341 OFFCURVE",
"486 1345 CURVE",
"493 1346 OFFCURVE",
"513 1347 OFFCURVE",
"546 1349 CURVE SMOOTH",
"579 1350 OFFCURVE",
"613 1351 OFFCURVE",
"649 1351 CURVE SMOOTH",
"902 1351 OFFCURVE",
"1047 1302 OFFCURVE",
"1114 1198 CURVE SMOOTH",
"1147 1146 OFFCURVE",
"1164 1078 OFFCURVE",
"1164 993 CURVE SMOOTH",
"1164 889 OFFCURVE",
"1126 785 OFFCURVE",
"1049 706 CURVE SMOOTH",
"1010 667 OFFCURVE",
"963 638 OFFCURVE",
"906 620 CURVE",
"977 591 OFFCURVE",
"1036 518 OFFCURVE",
"1078 442 CURVE SMOOTH",
"1099 403 OFFCURVE",
"1122 357 OFFCURVE",
"1147 302 CURVE SMOOTH",
"1172 247 OFFCURVE",
"1193 207 OFFCURVE",
"1208 182 CURVE SMOOTH",
"1223 156 OFFCURVE",
"1239 141 OFFCURVE",
"1256 137 CURVE",
"1311 118 LINE",
"1311 0 LINE",
"969 0 LINE SMOOTH",
"951 0 OFFCURVE",
"933 19 OFFCURVE",
"915 58 CURVE SMOOTH",
"896 96 OFFCURVE",
"872 156 OFFCURVE",
"842 238 CURVE SMOOTH",
"798 365 OFFCURVE",
"769 440 OFFCURVE",
"729 505 CURVE SMOOTH",
"709 538 OFFCURVE",
"688 560 OFFCURVE",
"666 571 CURVE",
"576 571 OFFCURVE",
"521 572 OFFCURVE",
"502 573 CURVE",
"502 139 LINE",
"663 118 LINE",
"663 0 LINE",
"68 0 LINE",
"68 118 LINE"
);
},
{
closed = 1;
nodes = (
"643 691 LINE SMOOTH",
"774 691 OFFCURVE",
"848 786 OFFCURVE",
"848 981 CURVE SMOOTH",
"848 1149 OFFCURVE",
"782 1231 OFFCURVE",
"617 1231 CURVE SMOOTH",
"568 1231 OFFCURVE",
"530 1228 OFFCURVE",
"502 1222 CURVE",
"502 694 LINE",
"512 691 OFFCURVE",
"537 690 OFFCURVE",
"576 690 CURVE SMOOTH"
);
}
);
width = 1307;
}
);
note = R;
unicode = 0052;
},
{
glyphname = Racute;
layers = (
{
layerId = "35FD6BC4-8300-47F6-A560-C4E3FDEA81EC";
name = Bold;
paths = (
{
closed = 1;
nodes = (
"205 140 LINE",
"205 1191 LINE",
"74 1215 LINE",
"74 1339 LINE",
"348 1339 LINE SMOOTH",
"379 1339 OFFCURVE",
"425 1341 OFFCURVE",
"486 1345 CURVE",
"493 1346 OFFCURVE",
"513 1347 OFFCURVE",
"546 1349 CURVE SMOOTH",
"579 1350 OFFCURVE",
"613 1351 OFFCURVE",
"649 1351 CURVE SMOOTH",
"902 1351 OFFCURVE",
"1047 1302 OFFCURVE",
"1114 1198 CURVE SMOOTH",
"1147 1146 OFFCURVE",
"1164 1078 OFFCURVE",
"1164 993 CURVE SMOOTH",
"1164 889 OFFCURVE",
"1126 785 OFFCURVE",
"1049 706 CURVE SMOOTH",
"1010 667 OFFCURVE",
"963 638 OFFCURVE",
"906 620 CURVE",
"977 591 OFFCURVE",
"1036 518 OFFCURVE",
"1078 442 CURVE SMOOTH",
"1099 403 OFFCURVE",
"1122 357 OFFCURVE",
"1147 302 CURVE SMOOTH",
"1172 247 OFFCURVE",
"1193 207 OFFCURVE",
"1208 182 CURVE SMOOTH",
"1223 156 OFFCURVE",
"1239 141 OFFCURVE",
"1256 137 CURVE",
"1311 118 LINE",
"1311 0 LINE",
"969 0 LINE SMOOTH",
"951 0 OFFCURVE",
"933 19 OFFCURVE",
"915 58 CURVE SMOOTH",
"896 96 OFFCURVE",
"872 156 OFFCURVE",
"842 238 CURVE SMOOTH",
"798 365 OFFCURVE",
"769 440 OFFCURVE",
"729 505 CURVE SMOOTH",
"709 538 OFFCURVE",
"688 560 OFFCURVE",
"666 571 CURVE",
"576 571 OFFCURVE",
"521 572 OFFCURVE",
"502 573 CURVE",
"502 139 LINE",
"663 118 LINE",
"663 0 LINE",
"68 0 LINE",
"68 118 LINE"
);
},
{
closed = 1;
nodes = (
"643 691 LINE SMOOTH",
"774 691 OFFCURVE",
"848 786 OFFCURVE",
"848 981 CURVE SMOOTH",
"848 1149 OFFCURVE",
"782 1231 OFFCURVE",
"617 1231 CURVE SMOOTH",
"568 1231 OFFCURVE",
"530 1228 OFFCURVE",
"502 1222 CURVE",
"502 694 LINE",
"512 691 OFFCURVE",
"537 690 OFFCURVE",
"576 690 CURVE SMOOTH"
);
},
{
closed = 1;
nodes = (
"782 1772 LINE",
"783 1772 LINE",
"964 1642 LINE",
"905 1573 OFFCURVE",
"806 1506 OFFCURVE",
"717 1463 CURVE SMOOTH",
"672 1441 OFFCURVE",
"637 1427 OFFCURVE",
"611 1420 CURVE",
"610 1420 LINE",
"507 1498 LINE"
);
}
);
width = 1307;
}
);
note = Racute;
unicode = 0154;
},
{
glyphname = Rcaron;
layers = (
{
layerId = "35FD6BC4-8300-47F6-A560-C4E3FDEA81EC";
name = Bold;
paths = (
{
closed = 1;
nodes = (
"405 1772 LINE",
"642 1616 LINE",
"892 1772 LINE",
"989 1695 LINE",
"732 1448 LINE",
"553 1448 LINE",
"307 1695 LINE"
);
},
{
closed = 1;
nodes = (
"205 140 LINE",
"205 1191 LINE",
"74 1215 LINE",
"74 1339 LINE",
"348 1339 LINE SMOOTH",
"379 1339 OFFCURVE",
"425 1341 OFFCURVE",
"486 1345 CURVE",
"493 1346 OFFCURVE",
"513 1347 OFFCURVE",
"546 1349 CURVE SMOOTH",
"579 1350 OFFCURVE",
"613 1351 OFFCURVE",
"649 1351 CURVE SMOOTH",
"902 1351 OFFCURVE",
"1047 1302 OFFCURVE",
"1114 1198 CURVE SMOOTH",
"1147 1146 OFFCURVE",
"1164 1078 OFFCURVE",
"1164 993 CURVE SMOOTH",
"1164 889 OFFCURVE",
"1126 785 OFFCURVE",
"1049 706 CURVE SMOOTH",
"1010 667 OFFCURVE",
"963 638 OFFCURVE",
"906 620 CURVE",
"977 591 OFFCURVE",
"1036 518 OFFCURVE",
"1078 442 CURVE SMOOTH",
"1099 403 OFFCURVE",
"1122 357 OFFCURVE",
"1147 302 CURVE SMOOTH",
"1172 247 OFFCURVE",
"1193 207 OFFCURVE",
"1208 182 CURVE SMOOTH",
"1223 156 OFFCURVE",
"1239 141 OFFCURVE",
"1256 137 CURVE",
"1311 118 LINE",
"1311 0 LINE",
"969 0 LINE SMOOTH",
"951 0 OFFCURVE",
"933 19 OFFCURVE",
"915 58 CURVE SMOOTH",
"896 96 OFFCURVE",
"872 156 OFFCURVE",
"842 238 CURVE SMOOTH",
"798 365 OFFCURVE",
"769 440 OFFCURVE",
"729 505 CURVE SMOOTH",
"709 538 OFFCURVE",
"688 560 OFFCURVE",
"666 571 CURVE",
"576 571 OFFCURVE",
"521 572 OFFCURVE",
"502 573 CURVE",
"502 139 LINE",
"663 118 LINE",
"663 0 LINE",
"68 0 LINE",
"68 118 LINE"
);
},
{
closed = 1;
nodes = (
"643 691 LINE SMOOTH",
"774 691 OFFCURVE",
"848 786 OFFCURVE",
"848 981 CURVE SMOOTH",
"848 1149 OFFCURVE",
"782 1231 OFFCURVE",
"617 1231 CURVE SMOOTH",
"568 1231 OFFCURVE",
"530 1228 OFFCURVE",
"502 1222 CURVE",
"502 694 LINE",
"512 691 OFFCURVE",
"537 690 OFFCURVE",
"576 690 CURVE SMOOTH"
);
}
);
width = 1307;
}
);
note = Rcaron;
unicode = 0158;
},
{
glyphname = Rcommaaccent;
layers = (
{
layerId = "35FD6BC4-8300-47F6-A560-C4E3FDEA81EC";
name = Bold;
paths = (
{
closed = 1;
nodes = (
"683 -493 LINE",
"596 -462 LINE",
"593 -446 LINE",
"620 -435 OFFCURVE",
"637 -387 OFFCURVE",
"637 -343 CURVE SMOOTH",
"637 -316 OFFCURVE",
"624 -296 OFFCURVE",
"599 -282 CURVE",
"576 -266 OFFCURVE",
"561 -238 OFFCURVE",
"561 -194 CURVE SMOOTH",
"561 -142 OFFCURVE",
"595 -110 OFFCURVE",
"636 -95 CURVE SMOOTH",
"657 -88 OFFCURVE",
"677 -84 OFFCURVE",
"697 -84 CURVE SMOOTH",
"706 -84 LINE SMOOTH",
"790 -84 OFFCURVE",
"847 -139 OFFCURVE",
"847 -231 CURVE SMOOTH",
"847 -312 OFFCURVE",
"801 -396 OFFCURVE",
"749 -448 CURVE SMOOTH",
"723 -475 OFFCURVE",
"702 -490 OFFCURVE",
"686 -493 CURVE"
);
},
{
closed = 1;
nodes = (
"205 140 LINE",
"205 1191 LINE",
"74 1215 LINE",
"74 1339 LINE",
"348 1339 LINE SMOOTH",
"379 1339 OFFCURVE",
"425 1341 OFFCURVE",
"486 1345 CURVE",
"493 1346 OFFCURVE",
"513 1347 OFFCURVE",
"546 1349 CURVE SMOOTH",
"579 1350 OFFCURVE",
"613 1351 OFFCURVE",
"649 1351 CURVE SMOOTH",
"902 1351 OFFCURVE",
"1047 1302 OFFCURVE",
"1114 1198 CURVE SMOOTH",
"1147 1146 OFFCURVE",
"1164 1078 OFFCURVE",
"1164 993 CURVE SMOOTH",
"1164 889 OFFCURVE",
"1126 785 OFFCURVE",
"1049 706 CURVE SMOOTH",
"1010 667 OFFCURVE",
"963 638 OFFCURVE",
"906 620 CURVE",
"977 591 OFFCURVE",
"1036 518 OFFCURVE",
"1078 442 CURVE SMOOTH",
"1099 403 OFFCURVE",
"1122 357 OFFCURVE",
"1147 302 CURVE SMOOTH",
"1172 247 OFFCURVE",
"1193 207 OFFCURVE",
"1208 182 CURVE SMOOTH",
"1223 156 OFFCURVE",
"1239 141 OFFCURVE",
"1256 137 CURVE",
"1311 118 LINE",
"1311 0 LINE",
"969 0 LINE SMOOTH",
"951 0 OFFCURVE",
"933 19 OFFCURVE",
"915 58 CURVE SMOOTH",
"896 96 OFFCURVE",
"872 156 OFFCURVE",
"842 238 CURVE SMOOTH",
"798 365 OFFCURVE",
"769 440 OFFCURVE",
"729 505 CURVE SMOOTH",
"709 538 OFFCURVE",
"688 560 OFFCURVE",
"666 571 CURVE",
"576 571 OFFCURVE",
"521 572 OFFCURVE",
"502 573 CURVE",
"502 139 LINE",
"663 118 LINE",
"663 0 LINE",
"68 0 LINE",
"68 118 LINE"
);
},
{
closed = 1;
nodes = (
"643 691 LINE SMOOTH",
"774 691 OFFCURVE",
"848 786 OFFCURVE",
"848 981 CURVE SMOOTH",
"848 1149 OFFCURVE",
"782 1231 OFFCURVE",
"617 1231 CURVE SMOOTH",
"568 1231 OFFCURVE",
"530 1228 OFFCURVE",
"502 1222 CURVE",
"502 694 LINE",
"512 691 OFFCURVE",
"537 690 OFFCURVE",
"576 690 CURVE SMOOTH"
);
}
);
width = 1307;
}
);
note = Rcommaaccent;
unicode = 0156;
},
{
glyphname = S;
layers = (
{
layerId = "35FD6BC4-8300-47F6-A560-C4E3FDEA81EC";
name = Bold;
paths = (
{
closed = 1;
nodes = (
"113 394 LINE",
"277 394 LINE",
"322 171 LINE",
"351 135 OFFCURVE",
"431 106 OFFCURVE",
"527 106 CURVE SMOOTH",
"675 106 OFFCURVE",
"744 173 OFFCURVE",
"744 289 CURVE SMOOTH",
"744 368 OFFCURVE",
"698 425 OFFCURVE",
"616 474 CURVE SMOOTH",
"575 498 OFFCURVE",
"518 527 OFFCURVE",
"447 561 CURVE SMOOTH",
"256 649 OFFCURVE",
"104 773 OFFCURVE",
"104 992 CURVE SMOOTH",
"104 1125 OFFCURVE",
"174 1242 OFFCURVE",
"315 1307 CURVE SMOOTH",
"385 1340 OFFCURVE",
"471 1356 OFFCURVE",
"573 1356 CURVE SMOOTH",
"694 1356 OFFCURVE",
"785 1336 OFFCURVE",
"886 1308 CURVE SMOOTH",
"921 1299 OFFCURVE",
"943 1293 OFFCURVE",
"953 1292 CURVE",
"942 975 LINE",
"781 975 LINE",
"738 1190 LINE",
"721 1211 OFFCURVE",
"654 1235 OFFCURVE",
"582 1235 CURVE SMOOTH",
"447 1235 OFFCURVE",
"386 1171 OFFCURVE",
"386 1068 CURVE SMOOTH",
"386 985 OFFCURVE",
"444 924 OFFCURVE",
"524 876 CURVE SMOOTH",
"564 852 OFFCURVE",
"623 821 OFFCURVE",
"700 782 CURVE SMOOTH",
"831 717 OFFCURVE",
"925 660 OFFCURVE",
"993 560 CURVE SMOOTH",
"1027 509 OFFCURVE",
"1044 450 OFFCURVE",
"1044 383 CURVE SMOOTH",
"1044 250 OFFCURVE",
"983 120 OFFCURVE",
"832 40 CURVE SMOOTH",
"756 0 OFFCURVE",
"658 -20 OFFCURVE",
"537 -20 CURVE SMOOTH",
"402 -20 OFFCURVE",
"298 4 OFFCURVE",
"178 40 CURVE SMOOTH",
"137 52 OFFCURVE",
"111 59 OFFCURVE",
"98 60 CURVE"
);
}
);
width = 1092;
}
);
note = S;
unicode = 0053;
},
{
glyphname = Sacute;
layers = (
{
layerId = "35FD6BC4-8300-47F6-A560-C4E3FDEA81EC";
name = Bold;
paths = (
{
closed = 1;
nodes = (
"113 394 LINE",
"277 394 LINE",
"322 171 LINE",
"351 135 OFFCURVE",
"431 106 OFFCURVE",
"527 106 CURVE SMOOTH",
"675 106 OFFCURVE",
"744 173 OFFCURVE",
"744 289 CURVE SMOOTH",
"744 368 OFFCURVE",
"698 425 OFFCURVE",
"616 474 CURVE SMOOTH",
"575 498 OFFCURVE",
"518 527 OFFCURVE",
"447 561 CURVE SMOOTH",
"256 649 OFFCURVE",
"104 773 OFFCURVE",
"104 992 CURVE SMOOTH",
"104 1125 OFFCURVE",
"174 1242 OFFCURVE",
"315 1307 CURVE SMOOTH",
"385 1340 OFFCURVE",
"471 1356 OFFCURVE",
"573 1356 CURVE SMOOTH",
"694 1356 OFFCURVE",
"785 1336 OFFCURVE",
"886 1308 CURVE SMOOTH",
"921 1299 OFFCURVE",
"943 1293 OFFCURVE",
"953 1292 CURVE",
"942 975 LINE",
"781 975 LINE",
"738 1190 LINE",
"721 1211 OFFCURVE",
"654 1235 OFFCURVE",
"582 1235 CURVE SMOOTH",
"447 1235 OFFCURVE",
"386 1171 OFFCURVE",
"386 1068 CURVE SMOOTH",
"386 985 OFFCURVE",
"444 924 OFFCURVE",
"524 876 CURVE SMOOTH",
"564 852 OFFCURVE",
"623 821 OFFCURVE",
"700 782 CURVE SMOOTH",
"831 717 OFFCURVE",
"925 660 OFFCURVE",
"993 560 CURVE SMOOTH",
"1027 509 OFFCURVE",
"1044 450 OFFCURVE",
"1044 383 CURVE SMOOTH",
"1044 250 OFFCURVE",
"983 120 OFFCURVE",
"832 40 CURVE SMOOTH",
"756 0 OFFCURVE",
"658 -20 OFFCURVE",
"537 -20 CURVE SMOOTH",
"402 -20 OFFCURVE",
"298 4 OFFCURVE",
"178 40 CURVE SMOOTH",
"137 52 OFFCURVE",
"111 59 OFFCURVE",
"98 60 CURVE"
);
},
{
closed = 1;
nodes = (
"713 1772 LINE",
"714 1772 LINE",
"895 1642 LINE",
"836 1573 OFFCURVE",
"737 1506 OFFCURVE",
"648 1463 CURVE SMOOTH",
"603 1441 OFFCURVE",
"568 1427 OFFCURVE",
"542 1420 CURVE",
"541 1420 LINE",
"438 1498 LINE"
);
}
);
width = 1092;
}
);
note = Sacute;
unicode = 015A;
},
{
glyphname = Scaron;
layers = (
{
layerId = "35FD6BC4-8300-47F6-A560-C4E3FDEA81EC";
name = Bold;
paths = (
{
closed = 1;
nodes = (
"113 394 LINE",
"277 394 LINE",
"322 171 LINE",
"351 135 OFFCURVE",
"431 106 OFFCURVE",
"527 106 CURVE SMOOTH",
"675 106 OFFCURVE",
"744 173 OFFCURVE",
"744 289 CURVE SMOOTH",
"744 368 OFFCURVE",
"698 425 OFFCURVE",
"616 474 CURVE SMOOTH",
"575 498 OFFCURVE",
"518 527 OFFCURVE",
"447 561 CURVE SMOOTH",
"256 649 OFFCURVE",
"104 773 OFFCURVE",
"104 992 CURVE SMOOTH",
"104 1125 OFFCURVE",
"174 1242 OFFCURVE",
"315 1307 CURVE SMOOTH",
"385 1340 OFFCURVE",
"471 1356 OFFCURVE",
"573 1356 CURVE SMOOTH",
"694 1356 OFFCURVE",
"785 1336 OFFCURVE",
"886 1308 CURVE SMOOTH",
"921 1299 OFFCURVE",
"943 1293 OFFCURVE",
"953 1292 CURVE",
"942 975 LINE",
"781 975 LINE",
"738 1190 LINE",
"721 1211 OFFCURVE",
"654 1235 OFFCURVE",
"582 1235 CURVE SMOOTH",
"447 1235 OFFCURVE",
"386 1171 OFFCURVE",
"386 1068 CURVE SMOOTH",
"386 985 OFFCURVE",
"444 924 OFFCURVE",
"524 876 CURVE SMOOTH",
"564 852 OFFCURVE",
"623 821 OFFCURVE",
"700 782 CURVE SMOOTH",
"831 717 OFFCURVE",
"925 660 OFFCURVE",
"993 560 CURVE SMOOTH",
"1027 509 OFFCURVE",
"1044 450 OFFCURVE",
"1044 383 CURVE SMOOTH",
"1044 250 OFFCURVE",
"983 120 OFFCURVE",
"832 40 CURVE SMOOTH",
"756 0 OFFCURVE",
"658 -20 OFFCURVE",
"537 -20 CURVE SMOOTH",
"402 -20 OFFCURVE",
"298 4 OFFCURVE",
"178 40 CURVE SMOOTH",
"137 52 OFFCURVE",
"111 59 OFFCURVE",
"98 60 CURVE"
);
},
{
closed = 1;
nodes = (
"337 1772 LINE",
"574 1616 LINE",
"824 1772 LINE",
"921 1695 LINE",
"664 1448 LINE",
"485 1448 LINE",
"239 1695 LINE"
);
}
);
width = 1092;
}
);
note = Scaron;
unicode = 0160;
},
{
glyphname = Scedilla;
layers = (
{
layerId = "35FD6BC4-8300-47F6-A560-C4E3FDEA81EC";
name = Bold;
paths = (
{
closed = 1;
nodes = (
"1044 263 OFFCURVE",
"993 143 OFFCURVE",
"869 61 CURVE SMOOTH",
"806 20 OFFCURVE",
"726 -6 OFFCURVE",
"627 -16 CURVE",
"683 -77 OFFCURVE",
"733 -169 OFFCURVE",
"729 -260 CURVE SMOOTH",
"721 -405 OFFCURVE",
"638 -458 OFFCURVE",
"466 -458 CURVE SMOOTH",
"466 -458 LINE SMOOTH",
"426 -458 OFFCURVE",
"370 -447 OFFCURVE",
"339 -432 CURVE",
"340 -265 LINE",
"361 -272 OFFCURVE",
"396 -276 OFFCURVE",
"412 -276 CURVE SMOOTH",
"413 -276 LINE SMOOTH",
"472 -276 OFFCURVE",
"502 -269 OFFCURVE",
"519 -234 CURVE SMOOTH",
"528 -217 OFFCURVE",
"532 -190 OFFCURVE",
"532 -154 CURVE SMOOTH",
"532 -111 OFFCURVE",
"514 -59 OFFCURVE",
"493 -19 CURVE",
"376 -14 OFFCURVE",
"283 9 OFFCURVE",
"176 40 CURVE",
"168 43 OFFCURVE",
"119 57 OFFCURVE",
"98 60 CURVE",
"113 394 LINE",
"277 394 LINE",
"322 171 LINE",
"351 135 OFFCURVE",
"431 106 OFFCURVE",
"527 106 CURVE SMOOTH",
"675 106 OFFCURVE",
"744 173 OFFCURVE",
"744 289 CURVE SMOOTH",
"744 368 OFFCURVE",
"698 425 OFFCURVE",
"616 474 CURVE SMOOTH",
"575 498 OFFCURVE",
"518 527 OFFCURVE",
"447 561 CURVE SMOOTH",
"256 649 OFFCURVE",
"104 773 OFFCURVE",
"104 992 CURVE SMOOTH",
"104 1125 OFFCURVE",
"174 1242 OFFCURVE",
"315 1307 CURVE SMOOTH",
"385 1340 OFFCURVE",
"471 1356 OFFCURVE",
"573 1356 CURVE SMOOTH",
"694 1356 OFFCURVE",
"785 1336 OFFCURVE",
"886 1308 CURVE SMOOTH",
"921 1299 OFFCURVE",
"943 1293 OFFCURVE",
"953 1292 CURVE",
"942 975 LINE",
"781 975 LINE",
"738 1190 LINE",
"721 1211 OFFCURVE",
"654 1235 OFFCURVE",
"582 1235 CURVE SMOOTH",
"447 1235 OFFCURVE",
"386 1171 OFFCURVE",
"386 1068 CURVE SMOOTH",
"386 985 OFFCURVE",
"444 924 OFFCURVE",
"524 876 CURVE SMOOTH",
"564 852 OFFCURVE",
"623 821 OFFCURVE",
"700 782 CURVE SMOOTH",
"831 717 OFFCURVE",
"925 660 OFFCURVE",
"993 560 CURVE SMOOTH",
"1027 509 OFFCURVE",
"1044 450 OFFCURVE",
"1044 383 CURVE SMOOTH"
);
}
);
width = 1092;
}
);
note = Scedilla;
unicode = 015E;
},
{
glyphname = Scircumflex;
layers = (
{
layerId = "35FD6BC4-8300-47F6-A560-C4E3FDEA81EC";
name = Bold;
paths = (
{
closed = 1;
nodes = (
"113 394 LINE",
"277 394 LINE",
"322 171 LINE",
"351 135 OFFCURVE",
"431 106 OFFCURVE",
"527 106 CURVE SMOOTH",
"675 106 OFFCURVE",
"744 173 OFFCURVE",
"744 289 CURVE SMOOTH",
"744 368 OFFCURVE",
"698 425 OFFCURVE",
"616 474 CURVE SMOOTH",
"575 498 OFFCURVE",
"518 527 OFFCURVE",
"447 561 CURVE SMOOTH",
"256 649 OFFCURVE",
"104 773 OFFCURVE",
"104 992 CURVE SMOOTH",
"104 1125 OFFCURVE",
"174 1242 OFFCURVE",
"315 1307 CURVE SMOOTH",
"385 1340 OFFCURVE",
"471 1356 OFFCURVE",
"573 1356 CURVE SMOOTH",
"694 1356 OFFCURVE",
"785 1336 OFFCURVE",
"886 1308 CURVE SMOOTH",
"921 1299 OFFCURVE",
"943 1293 OFFCURVE",
"953 1292 CURVE",
"942 975 LINE",
"781 975 LINE",
"738 1190 LINE",
"721 1211 OFFCURVE",
"654 1235 OFFCURVE",
"582 1235 CURVE SMOOTH",
"447 1235 OFFCURVE",
"386 1171 OFFCURVE",
"386 1068 CURVE SMOOTH",
"386 985 OFFCURVE",
"444 924 OFFCURVE",
"524 876 CURVE SMOOTH",
"564 852 OFFCURVE",
"623 821 OFFCURVE",
"700 782 CURVE SMOOTH",
"831 717 OFFCURVE",
"925 660 OFFCURVE",
"993 560 CURVE SMOOTH",
"1027 509 OFFCURVE",
"1044 450 OFFCURVE",
"1044 383 CURVE SMOOTH",
"1044 250 OFFCURVE",
"983 120 OFFCURVE",
"832 40 CURVE SMOOTH",
"756 0 OFFCURVE",
"658 -20 OFFCURVE",
"537 -20 CURVE SMOOTH",
"402 -20 OFFCURVE",
"298 4 OFFCURVE",
"178 40 CURVE SMOOTH",
"137 52 OFFCURVE",
"111 59 OFFCURVE",
"98 60 CURVE"
);
},
{
closed = 1;
nodes = (
"484 1767 LINE",
"662 1767 LINE",
"926 1507 LINE",
"827 1429 LINE",
"573 1597 LINE",
"317 1429 LINE",
"221 1506 LINE"
);
}
);
width = 1092;
}
);
note = Scircumflex;
unicode = 015C;
},
{
glyphname = Scommaaccent;
layers = (
{
layerId = "35FD6BC4-8300-47F6-A560-C4E3FDEA81EC";
name = Bold;
paths = (
{
closed = 1;
nodes = (
"546 -493 LINE",
"459 -462 LINE",
"456 -446 LINE",
"483 -435 OFFCURVE",
"500 -387 OFFCURVE",
"500 -343 CURVE SMOOTH",
"500 -316 OFFCURVE",
"487 -296 OFFCURVE",
"462 -282 CURVE",
"439 -266 OFFCURVE",
"424 -238 OFFCURVE",
"424 -194 CURVE SMOOTH",
"424 -142 OFFCURVE",
"458 -110 OFFCURVE",
"499 -95 CURVE SMOOTH",
"520 -88 OFFCURVE",
"540 -84 OFFCURVE",
"560 -84 CURVE SMOOTH",
"569 -84 LINE SMOOTH",
"653 -84 OFFCURVE",
"710 -139 OFFCURVE",
"710 -231 CURVE SMOOTH",
"710 -312 OFFCURVE",
"664 -396 OFFCURVE",
"612 -448 CURVE SMOOTH",
"586 -475 OFFCURVE",
"565 -490 OFFCURVE",
"549 -493 CURVE"
);
},
{
closed = 1;
nodes = (
"113 394 LINE",
"277 394 LINE",
"322 171 LINE",
"351 135 OFFCURVE",
"431 106 OFFCURVE",
"527 106 CURVE SMOOTH",
"675 106 OFFCURVE",
"744 173 OFFCURVE",
"744 289 CURVE SMOOTH",
"744 368 OFFCURVE",
"698 425 OFFCURVE",
"616 474 CURVE SMOOTH",
"575 498 OFFCURVE",
"518 527 OFFCURVE",
"447 561 CURVE SMOOTH",
"256 649 OFFCURVE",
"104 773 OFFCURVE",
"104 992 CURVE SMOOTH",
"104 1125 OFFCURVE",
"174 1242 OFFCURVE",
"315 1307 CURVE SMOOTH",
"385 1340 OFFCURVE",
"471 1356 OFFCURVE",
"573 1356 CURVE SMOOTH",
"694 1356 OFFCURVE",
"785 1336 OFFCURVE",
"886 1308 CURVE SMOOTH",
"921 1299 OFFCURVE",
"943 1293 OFFCURVE",
"953 1292 CURVE",
"942 975 LINE",
"781 975 LINE",
"738 1190 LINE",
"721 1211 OFFCURVE",
"654 1235 OFFCURVE",
"582 1235 CURVE SMOOTH",
"447 1235 OFFCURVE",
"386 1171 OFFCURVE",
"386 1068 CURVE SMOOTH",
"386 985 OFFCURVE",
"444 924 OFFCURVE",
"524 876 CURVE SMOOTH",
"564 852 OFFCURVE",
"623 821 OFFCURVE",
"700 782 CURVE SMOOTH",
"831 717 OFFCURVE",
"925 660 OFFCURVE",
"993 560 CURVE SMOOTH",
"1027 509 OFFCURVE",
"1044 450 OFFCURVE",
"1044 383 CURVE SMOOTH",
"1044 250 OFFCURVE",
"983 120 OFFCURVE",
"832 40 CURVE SMOOTH",
"756 0 OFFCURVE",
"658 -20 OFFCURVE",
"537 -20 CURVE SMOOTH",
"402 -20 OFFCURVE",
"298 4 OFFCURVE",
"178 40 CURVE SMOOTH",
"137 52 OFFCURVE",
"111 59 OFFCURVE",
"98 60 CURVE"
);
}
);
width = 1092;
}
);
note = Scommaaccent;
unicode = 0218;
},
{
glyphname = uni1E9E;
layers = (
{
layerId = "35FD6BC4-8300-47F6-A560-C4E3FDEA81EC";
name = Bold;
paths = (
{
closed = 1;
nodes = (
"25 118 LINE",
"121 140 LINE",
"121 794 LINE SMOOTH",
"121 1019 OFFCURVE",
"232 1194 OFFCURVE",
"425 1286 CURVE SMOOTH",
"521 1332 OFFCURVE",
"633 1355 OFFCURVE",
"760 1355 CURVE SMOOTH",
"916 1355 OFFCURVE",
"1010 1330 OFFCURVE",
"1126 1287 CURVE SMOOTH",
"1132 1285 OFFCURVE",
"1139 1283 OFFCURVE",
"1147 1280 CURVE",
"1154 1277 OFFCURVE",
"1162 1275 OFFCURVE",
"1171 1272 CURVE",
"1170 1150 LINE",
"898 843 LINE",
"1193 767 OFFCURVE",
"1340 619 OFFCURVE",
"1340 400 CURVE SMOOTH",
"1340 221 OFFCURVE",
"1269 93 OFFCURVE",
"1137 28 CURVE SMOOTH",
"1071 -5 OFFCURVE",
"991 -21 OFFCURVE",
"898 -21 CURVE SMOOTH",
"795 -21 OFFCURVE",
"726 -1 OFFCURVE",
"642 31 CURVE SMOOTH",
"613 43 OFFCURVE",
"583 52 OFFCURVE",
"564 53 CURVE",
"574 378 LINE",
"720 378 LINE",
"765 152 LINE",
"785 120 OFFCURVE",
"836 101 OFFCURVE",
"889 101 CURVE SMOOTH",
"977 101 OFFCURVE",
"1042 175 OFFCURVE",
"1042 356 CURVE SMOOTH",
"1042 463 OFFCURVE",
"966 583 OFFCURVE",
"855 663 CURVE SMOOTH",
"799 702 OFFCURVE",
"741 727 OFFCURVE",
"681 737 CURVE",
"681 804 LINE",
"922 1172 LINE",
"875 1212 OFFCURVE",
"813 1235 OFFCURVE",
"721 1235 CURVE SMOOTH",
"596 1235 OFFCURVE",
"501 1171 OFFCURVE",
"451 1048 CURVE SMOOTH",
"426 986 OFFCURVE",
"413 912 OFFCURVE",
"413 825 CURVE SMOOTH",
"413 0 LINE",
"25 0 LINE"
);
}
);
width = 1349;
}
);
note = uni1E9E;
unicode = 1E9E;
},
{
glyphname = uni018F;
layers = (
{
layerId = "35FD6BC4-8300-47F6-A560-C4E3FDEA81EC";
name = Bold;
paths = (
{
closed = 1;
nodes = (
"77 589 OFFCURVE",
"82 679 OFFCURVE",
"93 722 CURVE",
"893 721 LINE",
"886 928 OFFCURVE",
"831 1086 OFFCURVE",
"740 1169 CURVE SMOOTH",
"694 1210 OFFCURVE",
"642 1231 OFFCURVE",
"584 1231 CURVE SMOOTH",
"495 1231 OFFCURVE",
"440 1208 OFFCURVE",
"409 1174 CURVE SMOOTH",
"393 1157 OFFCURVE",
"377 1135 OFFCURVE",
"362 1108 CURVE",
"326 987 LINE",
"130 995 LINE",
"133 1284 LINE",
"166 1285 OFFCURVE",
"193 1291 OFFCURVE",
"260 1307 CURVE SMOOTH",
"383 1336 OFFCURVE",
"475 1353 OFFCURVE",
"616 1353 CURVE SMOOTH",
"845 1353 OFFCURVE",
"1028 1246 OFFCURVE",
"1126 1043 CURVE SMOOTH",
"1175 942 OFFCURVE",
"1199 821 OFFCURVE",
"1199 681 CURVE SMOOTH",
"1199 394 OFFCURVE",
"1086 176 OFFCURVE",
"899 64 CURVE SMOOTH",
"806 8 OFFCURVE",
"700 -20 OFFCURVE",
"582 -20 CURVE SMOOTH",
"395 -20 OFFCURVE",
"239 55 OFFCURVE",
"149 212 CURVE SMOOTH",
"104 291 OFFCURVE",
"80 388 OFFCURVE",
"77 504 CURVE"
);
},
{
closed = 1;
nodes = (
"379 582 LINE",
"378 560 OFFCURVE",
"377 529 OFFCURVE",
"377 488 CURVE SMOOTH",
"377 369 OFFCURVE",
"405 251 OFFCURVE",
"480 178 CURVE SMOOTH",
"517 141 OFFCURVE",
"566 123 OFFCURVE",
"626 123 CURVE SMOOTH",
"798 123 OFFCURVE",
"892 266 OFFCURVE",
"897 581 CURVE"
);
}
);
width = 1243;
}
);
note = uni018F;
unicode = 018F;
},
{
glyphname = T;
layers = (
{
layerId = "35FD6BC4-8300-47F6-A560-C4E3FDEA81EC";
name = Bold;
paths = (
{
closed = 1;
nodes = (
"497 141 LINE",
"497 1206 LINE",
"270 1198 LINE",
"197 807 LINE",
"30 807 LINE",
"56 1339 LINE",
"1224 1339 LINE",
"1250 807 LINE",
"1089 807 LINE",
"1011 1198 LINE",
"798 1206 LINE",
"798 142 LINE",
"1045 118 LINE",
"1045 0 LINE",
"271 0 LINE",
"271 118 LINE"
);
}
);
width = 1290;
}
);
note = T;
unicode = 0054;
},
{
glyphname = Tbar;
layers = (
{
layerId = "35FD6BC4-8300-47F6-A560-C4E3FDEA81EC";
name = Bold;
paths = (
{
closed = 1;
nodes = (
"508 659 LINE",
"508 1206 LINE",
"281 1198 LINE",
"208 807 LINE",
"40 807 LINE",
"67 1339 LINE",
"1235 1339 LINE",
"1260 807 LINE",
"1099 807 LINE",
"1022 1198 LINE",
"809 1206 LINE",
"809 659 LINE",
"997 659 LINE",
"997 526 LINE",
"809 526 LINE",
"809 142 LINE",
"1055 118 LINE",
"1055 0 LINE",
"282 0 LINE",
"282 118 LINE",
"508 141 LINE",
"508 526 LINE",
"315 526 LINE",
"315 659 LINE"
);
}
);
width = 1312;
}
);
note = Tbar;
unicode = 0166;
},
{
glyphname = Tcaron;
layers = (
{
layerId = "35FD6BC4-8300-47F6-A560-C4E3FDEA81EC";
name = Bold;
paths = (
{
closed = 1;
nodes = (
"420 1772 LINE",
"657 1616 LINE",
"907 1772 LINE",
"1004 1695 LINE",
"747 1448 LINE",
"568 1448 LINE",
"322 1695 LINE"
);
},
{
closed = 1;
nodes = (
"497 141 LINE",
"497 1206 LINE",
"270 1198 LINE",
"197 807 LINE",
"30 807 LINE",
"56 1339 LINE",
"1224 1339 LINE",
"1250 807 LINE",
"1089 807 LINE",
"1011 1198 LINE",
"798 1206 LINE",
"798 142 LINE",
"1045 118 LINE",
"1045 0 LINE",
"271 0 LINE",
"271 118 LINE"
);
}
);
width = 1290;
}
);
note = Tcaron;
unicode = 0164;
},
{
glyphname = U;
layers = (
{
layerId = "35FD6BC4-8300-47F6-A560-C4E3FDEA81EC";
name = Bold;
paths = (
{
closed = 1;
nodes = (
"141 1190 LINE",
"26 1215 LINE",
"26 1339 LINE",
"598 1339 LINE",
"598 1215 LINE",
"450 1189 LINE",
"450 524 LINE SMOOTH",
"450 243 OFFCURVE",
"542 111 OFFCURVE",
"733 111 CURVE SMOOTH",
"921 111 OFFCURVE",
"1009 262 OFFCURVE",
"1009 519 CURVE SMOOTH",
"1009 1190 LINE",
"858 1215 LINE",
"858 1339 LINE",
"1319 1339 LINE",
"1319 1215 LINE",
"1200 1190 LINE",
"1200 534 LINE SMOOTH",
"1200 281 OFFCURVE",
"1109 118 OFFCURVE",
"958 43 CURVE SMOOTH",
"882 5 OFFCURVE",
"794 -14 OFFCURVE",
"693 -14 CURVE SMOOTH",
"440 -14 OFFCURVE",
"280 61 OFFCURVE",
"201 226 CURVE SMOOTH",
"161 309 OFFCURVE",
"141 416 OFFCURVE",
"141 549 CURVE SMOOTH"
);
}
);
width = 1336;
}
);
note = U;
unicode = 0055;
},
{
glyphname = Uacute;
layers = (
{
layerId = "35FD6BC4-8300-47F6-A560-C4E3FDEA81EC";
name = Bold;
paths = (
{
closed = 1;
nodes = (
"842 1772 LINE",
"843 1772 LINE",
"1024 1642 LINE",
"965 1573 OFFCURVE",
"866 1506 OFFCURVE",
"777 1463 CURVE SMOOTH",
"732 1441 OFFCURVE",
"697 1427 OFFCURVE",
"671 1420 CURVE",
"670 1420 LINE",
"567 1498 LINE"
);
},
{
closed = 1;
nodes = (
"141 1190 LINE",
"26 1215 LINE",
"26 1339 LINE",
"598 1339 LINE",
"598 1215 LINE",
"450 1189 LINE",
"450 524 LINE SMOOTH",
"450 243 OFFCURVE",
"542 111 OFFCURVE",
"733 111 CURVE SMOOTH",
"921 111 OFFCURVE",
"1009 262 OFFCURVE",
"1009 519 CURVE SMOOTH",
"1009 1190 LINE",
"858 1215 LINE",
"858 1339 LINE",
"1319 1339 LINE",
"1319 1215 LINE",
"1200 1190 LINE",
"1200 534 LINE SMOOTH",
"1200 281 OFFCURVE",
"1109 118 OFFCURVE",
"958 43 CURVE SMOOTH",
"882 5 OFFCURVE",
"794 -14 OFFCURVE",
"693 -14 CURVE SMOOTH",
"440 -14 OFFCURVE",
"280 61 OFFCURVE",
"201 226 CURVE SMOOTH",
"161 309 OFFCURVE",
"141 416 OFFCURVE",
"141 549 CURVE SMOOTH"
);
}
);
width = 1336;
}
);
note = Uacute;
unicode = 00DA;
},
{
glyphname = Ubreve;
layers = (
{
layerId = "35FD6BC4-8300-47F6-A560-C4E3FDEA81EC";
name = Bold;
paths = (
{
closed = 1;
nodes = (
"375 1741 OFFCURVE",
"375 1755 OFFCURVE",
"376 1764 CURVE",
"515 1764 LINE",
"517 1743 LINE",
"529 1678 OFFCURVE",
"581 1614 OFFCURVE",
"708 1614 CURVE SMOOTH",
"833 1614 OFFCURVE",
"882 1676 OFFCURVE",
"891 1743 CURVE SMOOTH",
"892 1749 OFFCURVE",
"892 1756 OFFCURVE",
"892 1764 CURVE",
"1034 1764 LINE",
"1035 1755 OFFCURVE",
"1036 1742 OFFCURVE",
"1036 1725 CURVE SMOOTH",
"1036 1618 OFFCURVE",
"984 1525 OFFCURVE",
"885 1472 CURVE SMOOTH",
"835 1445 OFFCURVE",
"775 1432 OFFCURVE",
"706 1432 CURVE SMOOTH",
"563 1432 OFFCURVE",
"461 1489 OFFCURVE",
"412 1578 CURVE SMOOTH",
"387 1622 OFFCURVE",
"375 1671 OFFCURVE",
"375 1724 CURVE SMOOTH"
);
},
{
closed = 1;
nodes = (
"141 1190 LINE",
"26 1215 LINE",
"26 1339 LINE",
"598 1339 LINE",
"598 1215 LINE",
"450 1189 LINE",
"450 524 LINE SMOOTH",
"450 243 OFFCURVE",
"542 111 OFFCURVE",
"733 111 CURVE SMOOTH",
"921 111 OFFCURVE",
"1009 262 OFFCURVE",
"1009 519 CURVE SMOOTH",
"1009 1190 LINE",
"858 1215 LINE",
"858 1339 LINE",
"1319 1339 LINE",
"1319 1215 LINE",
"1200 1190 LINE",
"1200 534 LINE SMOOTH",
"1200 281 OFFCURVE",
"1109 118 OFFCURVE",
"958 43 CURVE SMOOTH",
"882 5 OFFCURVE",
"794 -14 OFFCURVE",
"693 -14 CURVE SMOOTH",
"440 -14 OFFCURVE",
"280 61 OFFCURVE",
"201 226 CURVE SMOOTH",
"161 309 OFFCURVE",
"141 416 OFFCURVE",
"141 549 CURVE SMOOTH"
);
}
);
width = 1336;
}
);
note = Ubreve;
unicode = 016C;
},
{
glyphname = Ucircumflex;
layers = (
{
layerId = "35FD6BC4-8300-47F6-A560-C4E3FDEA81EC";
name = Bold;
paths = (
{
closed = 1;
nodes = (
"141 1190 LINE",
"26 1215 LINE",
"26 1339 LINE",
"598 1339 LINE",
"598 1215 LINE",
"450 1189 LINE",
"450 524 LINE SMOOTH",
"450 243 OFFCURVE",
"542 111 OFFCURVE",
"733 111 CURVE SMOOTH",
"921 111 OFFCURVE",
"1009 262 OFFCURVE",
"1009 519 CURVE SMOOTH",
"1009 1190 LINE",
"858 1215 LINE",
"858 1339 LINE",
"1319 1339 LINE",
"1319 1215 LINE",
"1200 1190 LINE",
"1200 534 LINE SMOOTH",
"1200 281 OFFCURVE",
"1109 118 OFFCURVE",
"958 43 CURVE SMOOTH",
"882 5 OFFCURVE",
"794 -14 OFFCURVE",
"693 -14 CURVE SMOOTH",
"440 -14 OFFCURVE",
"280 61 OFFCURVE",
"201 226 CURVE SMOOTH",
"161 309 OFFCURVE",
"141 416 OFFCURVE",
"141 549 CURVE SMOOTH"
);
},
{
closed = 1;
nodes = (
"613 1767 LINE",
"791 1767 LINE",
"1055 1507 LINE",
"956 1429 LINE",
"702 1597 LINE",
"446 1429 LINE",
"350 1506 LINE"
);
}
);
width = 1336;
}
);
note = Ucircumflex;
unicode = 00DB;
},
{
glyphname = Udieresis;
layers = (
{
layerId = "35FD6BC4-8300-47F6-A560-C4E3FDEA81EC";
name = Bold;
paths = (
{
closed = 1;
nodes = (
"323 1689 OFFCURVE",
"378 1757 OFFCURVE",
"479 1757 CURVE SMOOTH",
"480 1757 LINE SMOOTH",
"572 1757 OFFCURVE",
"622 1696 OFFCURVE",
"622 1619 CURVE SMOOTH",
"622 1520 OFFCURVE",
"566 1455 OFFCURVE",
"454 1455 CURVE SMOOTH",
"453 1455 LINE SMOOTH",
"402 1455 OFFCURVE",
"362 1481 OFFCURVE",
"340 1524 CURVE SMOOTH",
"329 1545 OFFCURVE",
"323 1569 OFFCURVE",
"323 1594 CURVE SMOOTH"
);
},
{
closed = 1;
nodes = (
"788 1689 OFFCURVE",
"842 1757 OFFCURVE",
"942 1757 CURVE SMOOTH",
"943 1757 LINE SMOOTH",
"1036 1757 OFFCURVE",
"1087 1696 OFFCURVE",
"1087 1619 CURVE SMOOTH",
"1087 1520 OFFCURVE",
"1030 1455 OFFCURVE",
"918 1455 CURVE SMOOTH",
"917 1455 LINE SMOOTH",
"868 1455 OFFCURVE",
"827 1483 OFFCURVE",
"805 1526 CURVE SMOOTH",
"794 1547 OFFCURVE",
"788 1570 OFFCURVE",
"788 1594 CURVE SMOOTH"
);
},
{
closed = 1;
nodes = (
"141 1190 LINE",
"26 1215 LINE",
"26 1339 LINE",
"598 1339 LINE",
"598 1215 LINE",
"450 1189 LINE",
"450 524 LINE SMOOTH",
"450 243 OFFCURVE",
"542 111 OFFCURVE",
"733 111 CURVE SMOOTH",
"921 111 OFFCURVE",
"1009 262 OFFCURVE",
"1009 519 CURVE SMOOTH",
"1009 1190 LINE",
"858 1215 LINE",
"858 1339 LINE",
"1319 1339 LINE",
"1319 1215 LINE",
"1200 1190 LINE",
"1200 534 LINE SMOOTH",
"1200 281 OFFCURVE",
"1109 118 OFFCURVE",
"958 43 CURVE SMOOTH",
"882 5 OFFCURVE",
"794 -14 OFFCURVE",
"693 -14 CURVE SMOOTH",
"440 -14 OFFCURVE",
"280 61 OFFCURVE",
"201 226 CURVE SMOOTH",
"161 309 OFFCURVE",
"141 416 OFFCURVE",
"141 549 CURVE SMOOTH"
);
}
);
width = 1336;
}
);
note = Udieresis;
unicode = 00DC;
},
{
glyphname = Ugrave;
layers = (
{
layerId = "35FD6BC4-8300-47F6-A560-C4E3FDEA81EC";
name = Bold;
paths = (
{
closed = 1;
nodes = (
"581 1772 LINE",
"582 1772 LINE",
"857 1498 LINE",
"754 1420 LINE",
"753 1420 LINE",
"694 1436 OFFCURVE",
"586 1488 OFFCURVE",
"498 1551 CURVE SMOOTH",
"453 1582 OFFCURVE",
"421 1613 OFFCURVE",
"401 1642 CURVE"
);
},
{
closed = 1;
nodes = (
"141 1190 LINE",
"26 1215 LINE",
"26 1339 LINE",
"598 1339 LINE",
"598 1215 LINE",
"450 1189 LINE",
"450 524 LINE SMOOTH",
"450 243 OFFCURVE",
"542 111 OFFCURVE",
"733 111 CURVE SMOOTH",
"921 111 OFFCURVE",
"1009 262 OFFCURVE",
"1009 519 CURVE SMOOTH",
"1009 1190 LINE",
"858 1215 LINE",
"858 1339 LINE",
"1319 1339 LINE",
"1319 1215 LINE",
"1200 1190 LINE",
"1200 534 LINE SMOOTH",
"1200 281 OFFCURVE",
"1109 118 OFFCURVE",
"958 43 CURVE SMOOTH",
"882 5 OFFCURVE",
"794 -14 OFFCURVE",
"693 -14 CURVE SMOOTH",
"440 -14 OFFCURVE",
"280 61 OFFCURVE",
"201 226 CURVE SMOOTH",
"161 309 OFFCURVE",
"141 416 OFFCURVE",
"141 549 CURVE SMOOTH"
);
}
);
width = 1336;
}
);
note = Ugrave;
unicode = 00D9;
},
{
glyphname = Uhungarumlaut;
layers = (
{
layerId = "35FD6BC4-8300-47F6-A560-C4E3FDEA81EC";
name = Bold;
paths = (
{
closed = 1;
nodes = (
"141 1190 LINE",
"26 1215 LINE",
"26 1339 LINE",
"598 1339 LINE",
"598 1215 LINE",
"450 1189 LINE",
"450 524 LINE SMOOTH",
"450 243 OFFCURVE",
"542 111 OFFCURVE",
"733 111 CURVE SMOOTH",
"921 111 OFFCURVE",
"1009 262 OFFCURVE",
"1009 519 CURVE SMOOTH",
"1009 1190 LINE",
"858 1215 LINE",
"858 1339 LINE",
"1319 1339 LINE",
"1319 1215 LINE",
"1200 1190 LINE",
"1200 534 LINE SMOOTH",
"1200 281 OFFCURVE",
"1109 118 OFFCURVE",
"958 43 CURVE SMOOTH",
"882 5 OFFCURVE",
"794 -14 OFFCURVE",
"693 -14 CURVE SMOOTH",
"440 -14 OFFCURVE",
"280 61 OFFCURVE",
"201 226 CURVE SMOOTH",
"161 309 OFFCURVE",
"141 416 OFFCURVE",
"141 549 CURVE SMOOTH"
);
},
{
closed = 1;
nodes = (
"595 1772 LINE",
"754 1649 LINE",
"681 1560 OFFCURVE",
"550 1465 OFFCURVE",
"453 1417 CURVE",
"340 1511 LINE"
);
},
{
closed = 1;
nodes = (
"1086 1772 LINE",
"1236 1651 LINE",
"1175 1568 OFFCURVE",
"1033 1464 OFFCURVE",
"934 1417 CURVE",
"822 1511 LINE"
);
}
);
width = 1336;
}
);
note = Uhungarumlaut;
unicode = 0170;
},
{
glyphname = Umacron;
layers = (
{
layerId = "35FD6BC4-8300-47F6-A560-C4E3FDEA81EC";
name = Bold;
paths = (
{
closed = 1;
nodes = (
"987 1685 LINE",
"987 1514 LINE",
"425 1514 LINE",
"425 1685 LINE"
);
},
{
closed = 1;
nodes = (
"141 1190 LINE",
"26 1215 LINE",
"26 1339 LINE",
"598 1339 LINE",
"598 1215 LINE",
"450 1189 LINE",
"450 524 LINE SMOOTH",
"450 243 OFFCURVE",
"542 111 OFFCURVE",
"733 111 CURVE SMOOTH",
"921 111 OFFCURVE",
"1009 262 OFFCURVE",
"1009 519 CURVE SMOOTH",
"1009 1190 LINE",
"858 1215 LINE",
"858 1339 LINE",
"1319 1339 LINE",
"1319 1215 LINE",
"1200 1190 LINE",
"1200 534 LINE SMOOTH",
"1200 281 OFFCURVE",
"1109 118 OFFCURVE",
"958 43 CURVE SMOOTH",
"882 5 OFFCURVE",
"794 -14 OFFCURVE",
"693 -14 CURVE SMOOTH",
"440 -14 OFFCURVE",
"280 61 OFFCURVE",
"201 226 CURVE SMOOTH",
"161 309 OFFCURVE",
"141 416 OFFCURVE",
"141 549 CURVE SMOOTH"
);
}
);
width = 1336;
}
);
note = Umacron;
unicode = 016A;
},
{
glyphname = Uogonek;
layers = (
{
layerId = "35FD6BC4-8300-47F6-A560-C4E3FDEA81EC";
name = Bold;
paths = (
{
closed = 1;
nodes = (
"141 1190 LINE",
"26 1215 LINE",
"26 1339 LINE",
"598 1339 LINE",
"598 1215 LINE",
"450 1189 LINE",
"450 524 LINE SMOOTH",
"450 243 OFFCURVE",
"542 111 OFFCURVE",
"733 111 CURVE SMOOTH",
"921 111 OFFCURVE",
"1009 262 OFFCURVE",
"1009 519 CURVE SMOOTH",
"1009 1190 LINE",
"858 1215 LINE",
"858 1339 LINE",
"1319 1339 LINE",
"1319 1215 LINE",
"1200 1190 LINE",
"1200 534 LINE SMOOTH",
"1200 258 OFFCURVE",
"1094 91 OFFCURVE",
"911 22 CURVE",
"812 -50 OFFCURVE",
"753 -122 OFFCURVE",
"753 -186 CURVE SMOOTH",
"753 -247 OFFCURVE",
"799 -290 OFFCURVE",
"868 -290 CURVE SMOOTH",
"908 -290 OFFCURVE",
"932 -284 OFFCURVE",
"977 -268 CURVE",
"977 -391 LINE",
"928 -427 OFFCURVE",
"833 -451 OFFCURVE",
"756 -451 CURVE SMOOTH",
"620 -451 OFFCURVE",
"518 -393 OFFCURVE",
"518 -272 CURVE SMOOTH",
"518 -208 OFFCURVE",
"565 -137 OFFCURVE",
"631 -81 CURVE SMOOTH",
"664 -54 OFFCURVE",
"698 -31 OFFCURVE",
"735 -12 CURVE",
"716 -13 OFFCURVE",
"702 -14 OFFCURVE",
"693 -14 CURVE SMOOTH",
"440 -14 OFFCURVE",
"280 61 OFFCURVE",
"201 226 CURVE SMOOTH",
"161 309 OFFCURVE",
"141 416 OFFCURVE",
"141 549 CURVE SMOOTH"
);
}
);
width = 1336;
}
);
note = Uogonek;
unicode = 0172;
},
{
glyphname = Uring;
layers = (
{
layerId = "35FD6BC4-8300-47F6-A560-C4E3FDEA81EC";
name = Bold;
paths = (
{
closed = 1;
nodes = (
"141 1190 LINE",
"26 1215 LINE",
"26 1339 LINE",
"598 1339 LINE",
"598 1215 LINE",
"450 1189 LINE",
"450 524 LINE SMOOTH",
"450 243 OFFCURVE",
"542 111 OFFCURVE",
"733 111 CURVE SMOOTH",
"921 111 OFFCURVE",
"1009 262 OFFCURVE",
"1009 519 CURVE SMOOTH",
"1009 1190 LINE",
"858 1215 LINE",
"858 1339 LINE",
"1319 1339 LINE",
"1319 1215 LINE",
"1200 1190 LINE",
"1200 534 LINE SMOOTH",
"1200 281 OFFCURVE",
"1109 118 OFFCURVE",
"958 43 CURVE SMOOTH",
"882 5 OFFCURVE",
"794 -14 OFFCURVE",
"693 -14 CURVE SMOOTH",
"440 -14 OFFCURVE",
"280 61 OFFCURVE",
"201 226 CURVE SMOOTH",
"161 309 OFFCURVE",
"141 416 OFFCURVE",
"141 549 CURVE SMOOTH"
);
},
{
closed = 1;
nodes = (
"391 1723 OFFCURVE",
"452 1796 OFFCURVE",
"550 1833 CURVE SMOOTH",
"599 1851 OFFCURVE",
"653 1860 OFFCURVE",
"714 1860 CURVE SMOOTH",
"715 1860 LINE SMOOTH",
"920 1860 OFFCURVE",
"1018 1767 OFFCURVE",
"1018 1627 CURVE SMOOTH",
"1018 1532 OFFCURVE",
"962 1460 OFFCURVE",
"867 1423 CURVE SMOOTH",
"819 1404 OFFCURVE",
"764 1395 OFFCURVE",
"702 1395 CURVE SMOOTH",
"701 1395 LINE SMOOTH",
"485 1395 OFFCURVE",
"391 1488 OFFCURVE",
"391 1624 CURVE SMOOTH"
);
},
{
closed = 1;
nodes = (
"806 1499 OFFCURVE",
"839 1539 OFFCURVE",
"839 1619 CURVE SMOOTH",
"839 1700 OFFCURVE",
"802 1755 OFFCURVE",
"707 1755 CURVE SMOOTH",
"706 1755 LINE SMOOTH",
"607 1755 OFFCURVE",
"570 1710 OFFCURVE",
"570 1630 CURVE SMOOTH",
"570 1555 OFFCURVE",
"611 1499 OFFCURVE",
"706 1499 CURVE SMOOTH"
);
}
);
width = 1336;
}
);
note = Uring;
unicode = 016E;
},
{
glyphname = Utilde;
layers = (
{
layerId = "35FD6BC4-8300-47F6-A560-C4E3FDEA81EC";
name = Bold;
paths = (
{
closed = 1;
nodes = (
"472 1593 OFFCURVE",
"439 1563 OFFCURVE",
"400 1516 CURVE SMOOTH",
"386 1500 LINE",
"295 1579 LINE",
"320 1636 OFFCURVE",
"369 1698 OFFCURVE",
"444 1738 CURVE SMOOTH",
"481 1758 OFFCURVE",
"523 1768 OFFCURVE",
"568 1768 CURVE SMOOTH",
"644 1768 OFFCURVE",
"691 1740 OFFCURVE",
"760 1689 CURVE SMOOTH",
"815 1649 OFFCURVE",
"845 1631 OFFCURVE",
"886 1631 CURVE SMOOTH",
"945 1631 OFFCURVE",
"971 1657 OFFCURVE",
"1006 1704 CURVE SMOOTH",
"1021 1723 LINE",
"1113 1645 LINE",
"1050 1518 OFFCURVE",
"965 1455 OFFCURVE",
"857 1455 CURVE SMOOTH",
"785 1455 OFFCURVE",
"738 1480 OFFCURVE",
"665 1531 CURVE SMOOTH",
"605 1574 OFFCURVE",
"571 1593 OFFCURVE",
"524 1593 CURVE SMOOTH"
);
},
{
closed = 1;
nodes = (
"141 1190 LINE",
"26 1215 LINE",
"26 1339 LINE",
"598 1339 LINE",
"598 1215 LINE",
"450 1189 LINE",
"450 524 LINE SMOOTH",
"450 243 OFFCURVE",
"542 111 OFFCURVE",
"733 111 CURVE SMOOTH",
"921 111 OFFCURVE",
"1009 262 OFFCURVE",
"1009 519 CURVE SMOOTH",
"1009 1190 LINE",
"858 1215 LINE",
"858 1339 LINE",
"1319 1339 LINE",
"1319 1215 LINE",
"1200 1190 LINE",
"1200 534 LINE SMOOTH",
"1200 281 OFFCURVE",
"1109 118 OFFCURVE",
"958 43 CURVE SMOOTH",
"882 5 OFFCURVE",
"794 -14 OFFCURVE",
"693 -14 CURVE SMOOTH",
"440 -14 OFFCURVE",
"280 61 OFFCURVE",
"201 226 CURVE SMOOTH",
"161 309 OFFCURVE",
"141 416 OFFCURVE",
"141 549 CURVE SMOOTH"
);
}
);
width = 1336;
}
);
note = Utilde;
unicode = 0168;
},
{
glyphname = V;
layers = (
{
layerId = "35FD6BC4-8300-47F6-A560-C4E3FDEA81EC";
name = Bold;
paths = (
{
closed = 1;
nodes = (
"-32 1215 LINE",
"-32 1339 LINE",
"549 1339 LINE",
"549 1215 LINE",
"398 1191 LINE",
"648 399 LINE",
"690 239 LINE",
"725 400 LINE",
"972 1190 LINE",
"835 1215 LINE",
"835 1339 LINE",
"1287 1339 LINE",
"1287 1215 LINE",
"1171 1191 LINE",
"758 -13 LINE",
"517 -13 LINE",
"76 1191 LINE"
);
}
);
width = 1253;
}
);
note = V;
unicode = 0056;
},
{
glyphname = W;
layers = (
{
layerId = "35FD6BC4-8300-47F6-A560-C4E3FDEA81EC";
name = Bold;
paths = (
{
closed = 1;
nodes = (
"-34 1215 LINE",
"-34 1339 LINE",
"531 1339 LINE",
"531 1215 LINE",
"383 1189 LINE",
"600 391 LINE",
"633 216 LINE",
"664 391 LINE",
"847 1035 LINE",
"796 1190 LINE",
"684 1215 LINE",
"684 1339 LINE",
"1271 1339 LINE",
"1271 1215 LINE",
"1104 1190 LINE",
"1322 391 LINE",
"1360 203 LINE",
"1390 391 LINE",
"1591 1190 LINE",
"1434 1215 LINE",
"1434 1339 LINE",
"1877 1339 LINE",
"1877 1215 LINE",
"1764 1189 LINE",
"1423 -9 LINE",
"1156 -9 LINE",
"923 792 LINE",
"700 -9 LINE",
"439 -9 LINE",
"71 1189 LINE"
);
}
);
width = 1843;
}
);
note = W;
unicode = 0057;
},
{
glyphname = Wacute;
layers = (
{
layerId = "35FD6BC4-8300-47F6-A560-C4E3FDEA81EC";
name = Bold;
paths = (
{
closed = 1;
nodes = (
"1076 1772 LINE",
"1077 1772 LINE",
"1258 1642 LINE",
"1199 1573 OFFCURVE",
"1100 1506 OFFCURVE",
"1011 1463 CURVE SMOOTH",
"966 1441 OFFCURVE",
"931 1427 OFFCURVE",
"905 1420 CURVE",
"904 1420 LINE",
"801 1498 LINE"
);
},
{
closed = 1;
nodes = (
"-38 1215 LINE",
"-38 1339 LINE",
"527 1339 LINE",
"527 1215 LINE",
"379 1189 LINE",
"596 391 LINE",
"629 216 LINE",
"660 391 LINE",
"843 1035 LINE",
"792 1190 LINE",
"680 1215 LINE",
"680 1339 LINE",
"1267 1339 LINE",
"1267 1215 LINE",
"1100 1190 LINE",
"1318 391 LINE",
"1356 203 LINE",
"1386 391 LINE",
"1587 1190 LINE",
"1430 1215 LINE",
"1430 1339 LINE",
"1873 1339 LINE",
"1873 1215 LINE",
"1760 1189 LINE",
"1419 -9 LINE",
"1152 -9 LINE",
"919 792 LINE",
"696 -9 LINE",
"435 -9 LINE",
"67 1189 LINE"
);
}
);
width = 1839;
}
);
note = Wacute;
unicode = 1E82;
},
{
glyphname = Wcircumflex;
layers = (
{
layerId = "35FD6BC4-8300-47F6-A560-C4E3FDEA81EC";
name = Bold;
paths = (
{
closed = 1;
nodes = (
"-34 1215 LINE",
"-34 1339 LINE",
"531 1339 LINE",
"531 1215 LINE",
"383 1189 LINE",
"600 391 LINE",
"633 216 LINE",
"664 391 LINE",
"847 1035 LINE",
"796 1190 LINE",
"684 1215 LINE",
"684 1339 LINE",
"1271 1339 LINE",
"1271 1215 LINE",
"1104 1190 LINE",
"1322 391 LINE",
"1360 203 LINE",
"1390 391 LINE",
"1591 1190 LINE",
"1434 1215 LINE",
"1434 1339 LINE",
"1877 1339 LINE",
"1877 1215 LINE",
"1764 1189 LINE",
"1423 -9 LINE",
"1156 -9 LINE",
"923 792 LINE",
"700 -9 LINE",
"439 -9 LINE",
"71 1189 LINE"
);
},
{
closed = 1;
nodes = (
"851 1767 LINE",
"1029 1767 LINE",
"1293 1507 LINE",
"1194 1429 LINE",
"940 1597 LINE",
"684 1429 LINE",
"588 1506 LINE"
);
}
);
width = 1843;
}
);
note = Wcircumflex;
unicode = 0174;
},
{
glyphname = Wdieresis;
layers = (
{
layerId = "35FD6BC4-8300-47F6-A560-C4E3FDEA81EC";
name = Bold;
paths = (
{
closed = 1;
nodes = (
"556 1689 OFFCURVE",
"611 1757 OFFCURVE",
"712 1757 CURVE SMOOTH",
"713 1757 LINE SMOOTH",
"805 1757 OFFCURVE",
"855 1696 OFFCURVE",
"855 1619 CURVE SMOOTH",
"855 1520 OFFCURVE",
"799 1455 OFFCURVE",
"687 1455 CURVE SMOOTH",
"686 1455 LINE SMOOTH",
"635 1455 OFFCURVE",
"595 1481 OFFCURVE",
"573 1524 CURVE SMOOTH",
"562 1545 OFFCURVE",
"556 1569 OFFCURVE",
"556 1594 CURVE SMOOTH"
);
},
{
closed = 1;
nodes = (
"1021 1689 OFFCURVE",
"1075 1757 OFFCURVE",
"1175 1757 CURVE SMOOTH",
"1176 1757 LINE SMOOTH",
"1269 1757 OFFCURVE",
"1320 1696 OFFCURVE",
"1320 1619 CURVE SMOOTH",
"1320 1520 OFFCURVE",
"1263 1455 OFFCURVE",
"1151 1455 CURVE SMOOTH",
"1150 1455 LINE SMOOTH",
"1101 1455 OFFCURVE",
"1060 1483 OFFCURVE",
"1038 1526 CURVE SMOOTH",
"1027 1547 OFFCURVE",
"1021 1570 OFFCURVE",
"1021 1594 CURVE SMOOTH"
);
},
{
closed = 1;
nodes = (
"-38 1215 LINE",
"-38 1339 LINE",
"527 1339 LINE",
"527 1215 LINE",
"379 1189 LINE",
"596 391 LINE",
"629 216 LINE",
"660 391 LINE",
"843 1035 LINE",
"792 1190 LINE",
"680 1215 LINE",
"680 1339 LINE",
"1267 1339 LINE",
"1267 1215 LINE",
"1100 1190 LINE",
"1318 391 LINE",
"1356 203 LINE",
"1386 391 LINE",
"1587 1190 LINE",
"1430 1215 LINE",
"1430 1339 LINE",
"1873 1339 LINE",
"1873 1215 LINE",
"1760 1189 LINE",
"1419 -9 LINE",
"1152 -9 LINE",
"919 792 LINE",
"696 -9 LINE",
"435 -9 LINE",
"67 1189 LINE"
);
}
);
width = 1839;
}
);
note = Wdieresis;
unicode = 1E84;
},
{
glyphname = Wgrave;
layers = (
{
layerId = "35FD6BC4-8300-47F6-A560-C4E3FDEA81EC";
name = Bold;
paths = (
{
closed = 1;
nodes = (
"810 1772 LINE",
"811 1772 LINE",
"1086 1498 LINE",
"983 1420 LINE",
"982 1420 LINE",
"923 1436 OFFCURVE",
"815 1488 OFFCURVE",
"727 1551 CURVE SMOOTH",
"682 1582 OFFCURVE",
"650 1613 OFFCURVE",
"630 1642 CURVE"
);
},
{
closed = 1;
nodes = (
"-38 1215 LINE",
"-38 1339 LINE",
"527 1339 LINE",
"527 1215 LINE",
"379 1189 LINE",
"596 391 LINE",
"629 216 LINE",
"660 391 LINE",
"843 1035 LINE",
"792 1190 LINE",
"680 1215 LINE",
"680 1339 LINE",
"1267 1339 LINE",
"1267 1215 LINE",
"1100 1190 LINE",
"1318 391 LINE",
"1356 203 LINE",
"1386 391 LINE",
"1587 1190 LINE",
"1430 1215 LINE",
"1430 1339 LINE",
"1873 1339 LINE",
"1873 1215 LINE",
"1760 1189 LINE",
"1419 -9 LINE",
"1152 -9 LINE",
"919 792 LINE",
"696 -9 LINE",
"435 -9 LINE",
"67 1189 LINE"
);
}
);
width = 1839;
}
);
note = Wgrave;
unicode = 1E80;
},
{
glyphname = X;
layers = (
{
layerId = "35FD6BC4-8300-47F6-A560-C4E3FDEA81EC";
name = Bold;
paths = (
{
closed = 1;
nodes = (
"158 140 LINE",
"504 650 LINE",
"144 1190 LINE",
"23 1215 LINE",
"23 1339 LINE",
"631 1339 LINE",
"631 1215 LINE",
"495 1189 LINE",
"722 809 LINE",
"958 1191 LINE",
"811 1215 LINE",
"811 1339 LINE",
"1283 1339 LINE",
"1283 1215 LINE",
"1140 1191 LINE",
"796 716 LINE",
"1183 141 LINE",
"1307 118 LINE",
"1307 0 LINE",
"699 0 LINE",
"699 118 LINE",
"834 141 LINE",
"582 554 LINE",
"346 140 LINE",
"508 118 LINE",
"508 0 LINE",
"9 0 LINE",
"9 118 LINE"
);
}
);
width = 1302;
}
);
note = X;
unicode = 0058;
},
{
glyphname = Y;
layers = (
{
layerId = "35FD6BC4-8300-47F6-A560-C4E3FDEA81EC";
name = Bold;
paths = (
{
closed = 1;
nodes = (
"448 140 LINE",
"448 536 LINE",
"75 1190 LINE",
"-31 1215 LINE",
"-31 1339 LINE",
"531 1339 LINE",
"531 1215 LINE",
"412 1190 LINE",
"622 766 LINE",
"663 653 LINE",
"708 765 LINE",
"900 1191 LINE",
"766 1215 LINE",
"766 1339 LINE",
"1221 1339 LINE",
"1221 1215 LINE",
"1109 1192 LINE",
"762 536 LINE",
"762 141 LINE",
"953 118 LINE",
"953 0 LINE",
"264 0 LINE",
"264 118 LINE"
);
}
);
width = 1188;
}
);
note = Y;
unicode = 0059;
},
{
glyphname = Yacute;
layers = (
{
layerId = "35FD6BC4-8300-47F6-A560-C4E3FDEA81EC";
name = Bold;
paths = (
{
closed = 1;
nodes = (
"448 140 LINE",
"448 536 LINE",
"75 1190 LINE",
"-31 1215 LINE",
"-31 1339 LINE",
"531 1339 LINE",
"531 1215 LINE",
"412 1190 LINE",
"622 766 LINE",
"663 653 LINE",
"708 765 LINE",
"900 1191 LINE",
"766 1215 LINE",
"766 1339 LINE",
"1221 1339 LINE",
"1221 1215 LINE",
"1109 1192 LINE",
"762 536 LINE",
"762 141 LINE",
"953 118 LINE",
"953 0 LINE",
"264 0 LINE",
"264 118 LINE"
);
},
{
closed = 1;
nodes = (
"756 1772 LINE",
"757 1772 LINE",
"938 1642 LINE",
"879 1573 OFFCURVE",
"780 1506 OFFCURVE",
"691 1463 CURVE SMOOTH",
"646 1441 OFFCURVE",
"611 1427 OFFCURVE",
"585 1420 CURVE",
"584 1420 LINE",
"481 1498 LINE"
);
}
);
width = 1188;
}
);
note = Yacute;
unicode = 00DD;
},
{
glyphname = Ycircumflex;
layers = (
{
layerId = "35FD6BC4-8300-47F6-A560-C4E3FDEA81EC";
name = Bold;
paths = (
{
closed = 1;
nodes = (
"448 140 LINE",
"448 536 LINE",
"75 1190 LINE",
"-31 1215 LINE",
"-31 1339 LINE",
"531 1339 LINE",
"531 1215 LINE",
"412 1190 LINE",
"622 766 LINE",
"663 653 LINE",
"708 765 LINE",
"900 1191 LINE",
"766 1215 LINE",
"766 1339 LINE",
"1221 1339 LINE",
"1221 1215 LINE",
"1109 1192 LINE",
"762 536 LINE",
"762 141 LINE",
"953 118 LINE",
"953 0 LINE",
"264 0 LINE",
"264 118 LINE"
);
},
{
closed = 1;
nodes = (
"526 1767 LINE",
"704 1767 LINE",
"968 1507 LINE",
"869 1429 LINE",
"615 1597 LINE",
"359 1429 LINE",
"263 1506 LINE"
);
}
);
width = 1188;
}
);
note = Ycircumflex;
unicode = 0176;
},
{
glyphname = Ydieresis;
layers = (
{
layerId = "35FD6BC4-8300-47F6-A560-C4E3FDEA81EC";
name = Bold;
paths = (
{
closed = 1;
nodes = (
"448 140 LINE",
"448 536 LINE",
"75 1190 LINE",
"-31 1215 LINE",
"-31 1339 LINE",
"531 1339 LINE",
"531 1215 LINE",
"412 1190 LINE",
"622 766 LINE",
"663 653 LINE",
"708 765 LINE",
"900 1191 LINE",
"766 1215 LINE",
"766 1339 LINE",
"1221 1339 LINE",
"1221 1215 LINE",
"1109 1192 LINE",
"762 536 LINE",
"762 141 LINE",
"953 118 LINE",
"953 0 LINE",
"264 0 LINE",
"264 118 LINE"
);
},
{
closed = 1;
nodes = (
"235 1689 OFFCURVE",
"290 1757 OFFCURVE",
"391 1757 CURVE SMOOTH",
"392 1757 LINE SMOOTH",
"484 1757 OFFCURVE",
"534 1696 OFFCURVE",
"534 1619 CURVE SMOOTH",
"534 1520 OFFCURVE",
"478 1455 OFFCURVE",
"366 1455 CURVE SMOOTH",
"365 1455 LINE SMOOTH",
"314 1455 OFFCURVE",
"274 1481 OFFCURVE",
"252 1524 CURVE SMOOTH",
"241 1545 OFFCURVE",
"235 1569 OFFCURVE",
"235 1594 CURVE SMOOTH"
);
},
{
closed = 1;
nodes = (
"700 1689 OFFCURVE",
"754 1757 OFFCURVE",
"854 1757 CURVE SMOOTH",
"855 1757 LINE SMOOTH",
"948 1757 OFFCURVE",
"999 1696 OFFCURVE",
"999 1619 CURVE SMOOTH",
"999 1520 OFFCURVE",
"942 1455 OFFCURVE",
"830 1455 CURVE SMOOTH",
"829 1455 LINE SMOOTH",
"780 1455 OFFCURVE",
"739 1483 OFFCURVE",
"717 1526 CURVE SMOOTH",
"706 1547 OFFCURVE",
"700 1570 OFFCURVE",
"700 1594 CURVE SMOOTH"
);
}
);
width = 1188;
}
);
note = Ydieresis;
unicode = 0178;
},
{
glyphname = Ygrave;
layers = (
{
layerId = "35FD6BC4-8300-47F6-A560-C4E3FDEA81EC";
name = Bold;
paths = (
{
closed = 1;
nodes = (
"448 140 LINE",
"448 536 LINE",
"75 1190 LINE",
"-31 1215 LINE",
"-31 1339 LINE",
"531 1339 LINE",
"531 1215 LINE",
"412 1190 LINE",
"622 766 LINE",
"663 653 LINE",
"708 765 LINE",
"900 1191 LINE",
"766 1215 LINE",
"766 1339 LINE",
"1221 1339 LINE",
"1221 1215 LINE",
"1109 1192 LINE",
"762 536 LINE",
"762 141 LINE",
"953 118 LINE",
"953 0 LINE",
"264 0 LINE",
"264 118 LINE"
);
},
{
closed = 1;
nodes = (
"488 1772 LINE",
"489 1772 LINE",
"764 1498 LINE",
"661 1420 LINE",
"660 1420 LINE",
"601 1436 OFFCURVE",
"493 1488 OFFCURVE",
"405 1551 CURVE SMOOTH",
"360 1582 OFFCURVE",
"328 1613 OFFCURVE",
"308 1642 CURVE"
);
}
);
width = 1188;
}
);
note = Ygrave;
unicode = 1EF2;
},
{
glyphname = Z;
layers = (
{
layerId = "35FD6BC4-8300-47F6-A560-C4E3FDEA81EC";
name = Bold;
paths = (
{
closed = 1;
nodes = (
"686 1110 LINE",
"788 1227 LINE",
"361 1203 LINE",
"257 960 LINE",
"106 982 LINE",
"150 1344 LINE",
"1076 1344 LINE",
"1124 1237 LINE",
"479 234 LINE",
"358 122 LINE",
"871 159 LINE",
"978 431 LINE",
"1130 401 LINE",
"1089 0 LINE",
"90 0 LINE",
"27 106 LINE"
);
}
);
width = 1185;
}
);
note = Z;
unicode = 005A;
},
{
glyphname = Zacute;
layers = (
{
layerId = "35FD6BC4-8300-47F6-A560-C4E3FDEA81EC";
name = Bold;
paths = (
{
closed = 1;
nodes = (
"686 1110 LINE",
"788 1227 LINE",
"361 1203 LINE",
"257 960 LINE",
"106 982 LINE",
"150 1344 LINE",
"1076 1344 LINE",
"1124 1237 LINE",
"479 234 LINE",
"358 122 LINE",
"871 159 LINE",
"978 431 LINE",
"1130 401 LINE",
"1089 0 LINE",
"90 0 LINE",
"27 106 LINE"
);
},
{
closed = 1;
nodes = (
"769 1772 LINE",
"770 1772 LINE",
"951 1642 LINE",
"892 1573 OFFCURVE",
"793 1506 OFFCURVE",
"704 1463 CURVE SMOOTH",
"659 1441 OFFCURVE",
"624 1427 OFFCURVE",
"598 1420 CURVE",
"597 1420 LINE",
"494 1498 LINE"
);
}
);
width = 1185;
}
);
note = Zacute;
unicode = 0179;
},
{
glyphname = Zcaron;
layers = (
{
layerId = "35FD6BC4-8300-47F6-A560-C4E3FDEA81EC";
name = Bold;
paths = (
{
closed = 1;
nodes = (
"393 1772 LINE",
"630 1616 LINE",
"880 1772 LINE",
"977 1695 LINE",
"720 1448 LINE",
"541 1448 LINE",
"295 1695 LINE"
);
},
{
closed = 1;
nodes = (
"686 1110 LINE",
"788 1227 LINE",
"361 1203 LINE",
"257 960 LINE",
"106 982 LINE",
"150 1344 LINE",
"1076 1344 LINE",
"1124 1237 LINE",
"479 234 LINE",
"358 122 LINE",
"871 159 LINE",
"978 431 LINE",
"1130 401 LINE",
"1089 0 LINE",
"90 0 LINE",
"27 106 LINE"
);
}
);
width = 1185;
}
);
note = Zcaron;
unicode = 017D;
},
{
glyphname = Zdotaccent;
layers = (
{
layerId = "35FD6BC4-8300-47F6-A560-C4E3FDEA81EC";
name = Bold;
paths = (
{
closed = 1;
nodes = (
"471 1696 OFFCURVE",
"528 1758 OFFCURVE",
"633 1758 CURVE",
"633 1758 LINE",
"698 1758 OFFCURVE",
"747 1732 OFFCURVE",
"772 1691 CURVE SMOOTH",
"784 1670 OFFCURVE",
"790 1647 OFFCURVE",
"790 1622 CURVE SMOOTH",
"790 1523 OFFCURVE",
"732 1463 OFFCURVE",
"617 1463 CURVE SMOOTH",
"616 1463 LINE SMOOTH",
"560 1463 OFFCURVE",
"514 1488 OFFCURVE",
"490 1529 CURVE SMOOTH",
"477 1550 OFFCURVE",
"471 1573 OFFCURVE",
"471 1600 CURVE SMOOTH"
);
},
{
closed = 1;
nodes = (
"686 1110 LINE",
"788 1227 LINE",
"361 1203 LINE",
"257 960 LINE",
"106 982 LINE",
"150 1344 LINE",
"1076 1344 LINE",
"1124 1237 LINE",
"479 234 LINE",
"358 122 LINE",
"871 159 LINE",
"978 431 LINE",
"1130 401 LINE",
"1089 0 LINE",
"90 0 LINE",
"27 106 LINE"
);
}
);
width = 1185;
}
);
note = Zdotaccent;
unicode = 017B;
},
{
glyphname = uni0162;
layers = (
{
layerId = "35FD6BC4-8300-47F6-A560-C4E3FDEA81EC";
name = Bold;
paths = (
{
closed = 1;
nodes = (
"798 1206 LINE",
"798 142 LINE",
"1045 118 LINE",
"1045 0 LINE",
"722 0 LINE",
"781 -57 OFFCURVE",
"845 -160 OFFCURVE",
"840 -260 CURVE SMOOTH",
"832 -405 OFFCURVE",
"749 -458 OFFCURVE",
"577 -458 CURVE SMOOTH",
"576 -458 LINE SMOOTH",
"536 -458 OFFCURVE",
"481 -447 OFFCURVE",
"450 -432 CURVE",
"451 -265 LINE",
"472 -272 OFFCURVE",
"507 -276 OFFCURVE",
"523 -276 CURVE SMOOTH",
"524 -276 LINE SMOOTH",
"583 -276 OFFCURVE",
"613 -269 OFFCURVE",
"630 -234 CURVE SMOOTH",
"639 -217 OFFCURVE",
"643 -190 OFFCURVE",
"643 -154 CURVE SMOOTH",
"643 -102 OFFCURVE",
"617 -37 OFFCURVE",
"593 0 CURVE",
"271 0 LINE",
"271 118 LINE",
"497 141 LINE",
"497 1206 LINE",
"270 1198 LINE",
"197 807 LINE",
"30 807 LINE",
"56 1339 LINE",
"1224 1339 LINE",
"1250 807 LINE",
"1089 807 LINE",
"1011 1198 LINE"
);
}
);
width = 1290;
}
);
note = uni0162;
unicode = 0162;
},
{
glyphname = uni01C4;
layers = (
{
layerId = "35FD6BC4-8300-47F6-A560-C4E3FDEA81EC";
name = Bold;
paths = (
{
closed = 1;
nodes = (
"1772 1772 LINE",
"2009 1616 LINE",
"2259 1772 LINE",
"2356 1695 LINE",
"2099 1448 LINE",
"1920 1448 LINE",
"1674 1695 LINE"
);
},
{
closed = 1;
nodes = (
"2066 1110 LINE",
"2168 1227 LINE",
"1741 1203 LINE",
"1637 960 LINE",
"1486 982 LINE",
"1530 1344 LINE",
"2456 1344 LINE",
"2504 1237 LINE",
"1859 234 LINE",
"1738 122 LINE",
"2251 159 LINE",
"2358 431 LINE",
"2510 401 LINE",
"2469 0 LINE",
"1470 0 LINE",
"1407 106 LINE"
);
},
{
closed = 1;
nodes = (
"205 140 LINE",
"205 1191 LINE",
"74 1215 LINE",
"74 1339 LINE",
"348 1339 LINE SMOOTH",
"385 1339 OFFCURVE",
"436 1341 OFFCURVE",
"503 1345 CURVE SMOOTH",
"562 1349 OFFCURVE",
"615 1351 OFFCURVE",
"662 1351 CURVE SMOOTH",
"1105 1351 OFFCURVE",
"1325 1124 OFFCURVE",
"1325 715 CURVE SMOOTH",
"1325 434 OFFCURVE",
"1212 204 OFFCURVE",
"1012 80 CURVE SMOOTH",
"911 17 OFFCURVE",
"794 -14 OFFCURVE",
"659 -14 CURVE SMOOTH",
"631 -14 OFFCURVE",
"574 -11 OFFCURVE",
"488 -6 CURVE SMOOTH",
"474 -5 OFFCURVE",
"453 -4 OFFCURVE",
"424 -2 CURVE SMOOTH",
"395 -1 OFFCURVE",
"372 0 OFFCURVE",
"355 0 CURVE SMOOTH",
"68 0 LINE",
"68 118 LINE"
);
},
{
closed = 1;
nodes = (
"500 133 LINE",
"539 118 OFFCURVE",
"587 115 OFFCURVE",
"651 116 CURVE SMOOTH",
"871 119 OFFCURVE",
"1001 299 OFFCURVE",
"1001 671 CURVE SMOOTH",
"1001 1023 OFFCURVE",
"881 1227 OFFCURVE",
"620 1227 CURVE SMOOTH",
"584 1227 OFFCURVE",
"556 1225 OFFCURVE",
"535 1221 CURVE",
"514 1216 OFFCURVE",
"503 1214 OFFCURVE",
"500 1213 CURVE"
);
}
);
width = 2565;
}
);
note = uni01C4;
unicode = 01C4;
},
{
glyphname = uni01C5;
layers = (
{
layerId = "35FD6BC4-8300-47F6-A560-C4E3FDEA81EC";
name = Bold;
paths = (
{
closed = 1;
nodes = (
"1683 1585 LINE",
"1941 1359 LINE",
"2201 1586 LINE",
"2295 1509 LINE",
"2026 1157 LINE",
"1854 1157 LINE",
"1588 1508 LINE"
);
},
{
closed = 1;
nodes = (
"2012 878 LINE",
"1681 863 LINE",
"1635 689 LINE",
"1491 689 LINE",
"1491 1001 LINE",
"2288 1001 LINE",
"2332 905 LINE",
"1883 256 LINE",
"1761 123 LINE",
"2119 144 LINE",
"2200 343 LINE",
"2337 329 LINE",
"2313 0 LINE",
"1469 0 LINE",
"1420 100 LINE",
"1882 737 LINE"
);
},
{
closed = 1;
nodes = (
"205 140 LINE",
"205 1191 LINE",
"74 1215 LINE",
"74 1339 LINE",
"348 1339 LINE SMOOTH",
"385 1339 OFFCURVE",
"436 1341 OFFCURVE",
"503 1345 CURVE SMOOTH",
"562 1349 OFFCURVE",
"615 1351 OFFCURVE",
"662 1351 CURVE SMOOTH",
"1105 1351 OFFCURVE",
"1325 1124 OFFCURVE",
"1325 715 CURVE SMOOTH",
"1325 434 OFFCURVE",
"1212 204 OFFCURVE",
"1012 80 CURVE SMOOTH",
"911 17 OFFCURVE",
"794 -14 OFFCURVE",
"659 -14 CURVE SMOOTH",
"631 -14 OFFCURVE",
"574 -11 OFFCURVE",
"488 -6 CURVE SMOOTH",
"474 -5 OFFCURVE",
"453 -4 OFFCURVE",
"424 -2 CURVE SMOOTH",
"395 -1 OFFCURVE",
"372 0 OFFCURVE",
"355 0 CURVE SMOOTH",
"68 0 LINE",
"68 118 LINE"
);
},
{
closed = 1;
nodes = (
"500 133 LINE",
"539 118 OFFCURVE",
"587 115 OFFCURVE",
"651 116 CURVE SMOOTH",
"871 119 OFFCURVE",
"1001 299 OFFCURVE",
"1001 671 CURVE SMOOTH",
"1001 1023 OFFCURVE",
"881 1227 OFFCURVE",
"620 1227 CURVE SMOOTH",
"584 1227 OFFCURVE",
"556 1225 OFFCURVE",
"535 1221 CURVE",
"514 1216 OFFCURVE",
"503 1214 OFFCURVE",
"500 1213 CURVE"
);
}
);
width = 2393;
}
);
note = uni01C5;
unicode = 01C5;
},
{
glyphname = uni01C7;
layers = (
{
layerId = "35FD6BC4-8300-47F6-A560-C4E3FDEA81EC";
name = Bold;
paths = (
{
closed = 1;
nodes = (
"205 141 LINE",
"205 1190 LINE",
"70 1215 LINE",
"70 1339 LINE",
"671 1339 LINE",
"671 1215 LINE",
"504 1190 LINE",
"504 142 LINE",
"851 161 LINE",
"967 502 LINE",
"1132 477 LINE",
"1080 0 LINE",
"68 0 LINE",
"68 118 LINE"
);
},
{
closed = 1;
nodes = (
"1121 -242 LINE",
"1176 -225 OFFCURVE",
"1237 -180 OFFCURVE",
"1286 -112 CURVE SMOOTH",
"1335 -45 OFFCURVE",
"1360 35 OFFCURVE",
"1372 143 CURVE SMOOTH",
"1377 197 OFFCURVE",
"1380 271 OFFCURVE",
"1380 365 CURVE SMOOTH",
"1380 1190 LINE",
"1229 1215 LINE",
"1229 1339 LINE",
"1819 1339 LINE",
"1819 1215 LINE",
"1676 1191 LINE",
"1676 501 LINE SMOOTH",
"1676 261 OFFCURVE",
"1671 120 OFFCURVE",
"1651 36 CURVE SMOOTH",
"1599 -164 OFFCURVE",
"1431 -301 OFFCURVE",
"1187 -346 CURVE"
);
}
);
width = 1863;
}
);
note = uni01C7;
unicode = 01C7;
},
{
glyphname = uni01C8;
layers = (
{
layerId = "35FD6BC4-8300-47F6-A560-C4E3FDEA81EC";
name = Bold;
paths = (
{
closed = 1;
nodes = (
"205 141 LINE",
"205 1190 LINE",
"70 1215 LINE",
"70 1339 LINE",
"671 1339 LINE",
"671 1215 LINE",
"504 1190 LINE",
"504 142 LINE",
"851 161 LINE",
"967 502 LINE",
"1132 477 LINE",
"1080 0 LINE",
"68 0 LINE",
"68 118 LINE"
);
},
{
closed = 1;
nodes = (
"1225 844 LINE",
"1227 982 LINE",
"1568 1026 LINE",
"1572 1026 LINE",
"1627 987 LINE",
"1627 19 LINE SMOOTH",
"1627 -172 OFFCURVE",
"1531 -314 OFFCURVE",
"1414 -385 CURVE SMOOTH",
"1355 -420 OFFCURVE",
"1300 -438 OFFCURVE",
"1249 -438 CURVE SMOOTH",
"1214 -438 OFFCURVE",
"1164 -435 OFFCURVE",
"1152 -431 CURVE",
"1137 -316 LINE",
"1158 -317 OFFCURVE",
"1198 -310 OFFCURVE",
"1226 -295 CURVE",
"1311 -254 OFFCURVE",
"1345 -135 OFFCURVE",
"1345 70 CURVE",
"1344 806 LINE"
);
},
{
closed = 1;
nodes = (
"1285 1373 OFFCURVE",
"1312 1428 OFFCURVE",
"1363 1460 CURVE SMOOTH",
"1388 1475 OFFCURVE",
"1419 1483 OFFCURVE",
"1454 1483 CURVE SMOOTH",
"1455 1483 LINE SMOOTH",
"1522 1483 OFFCURVE",
"1571 1453 OFFCURVE",
"1596 1409 CURVE",
"1608 1386 OFFCURVE",
"1614 1362 OFFCURVE",
"1614 1335 CURVE SMOOTH",
"1614 1234 OFFCURVE",
"1552 1163 OFFCURVE",
"1437 1163 CURVE SMOOTH",
"1437 1163 LINE SMOOTH",
"1378 1163 OFFCURVE",
"1331 1191 OFFCURVE",
"1305 1235 CURVE SMOOTH",
"1292 1257 OFFCURVE",
"1285 1282 OFFCURVE",
"1285 1309 CURVE SMOOTH"
);
}
);
width = 1763;
}
);
note = uni01C8;
unicode = 01C8;
},
{
glyphname = uni01CA;
layers = (
{
layerId = "35FD6BC4-8300-47F6-A560-C4E3FDEA81EC";
name = Bold;
paths = (
{
closed = 1;
nodes = (
"207 140 LINE",
"207 1191 LINE",
"64 1215 LINE",
"64 1339 LINE",
"503 1339 LINE",
"1016 562 LINE",
"1111 358 LINE",
"1111 1192 LINE",
"957 1215 LINE",
"957 1339 LINE",
"1419 1339 LINE",
"1419 1215 LINE",
"1280 1191 LINE",
"1280 0 LINE",
"1036 0 LINE",
"496 825 LINE",
"377 1066 LINE",
"377 140 LINE",
"561 118 LINE",
"561 0 LINE",
"64 0 LINE",
"64 118 LINE"
);
},
{
closed = 1;
nodes = (
"1417 -242 LINE",
"1472 -225 OFFCURVE",
"1533 -180 OFFCURVE",
"1582 -112 CURVE SMOOTH",
"1631 -45 OFFCURVE",
"1656 35 OFFCURVE",
"1668 143 CURVE SMOOTH",
"1673 197 OFFCURVE",
"1676 271 OFFCURVE",
"1676 365 CURVE SMOOTH",
"1676 1190 LINE",
"1525 1215 LINE",
"1525 1339 LINE",
"2115 1339 LINE",
"2115 1215 LINE",
"1972 1191 LINE",
"1972 501 LINE SMOOTH",
"1972 261 OFFCURVE",
"1967 120 OFFCURVE",
"1947 36 CURVE SMOOTH",
"1895 -164 OFFCURVE",
"1727 -301 OFFCURVE",
"1483 -346 CURVE"
);
}
);
width = 2160;
}
);
note = uni01CA;
unicode = 01CA;
},
{
glyphname = uni01CB;
layers = (
{
layerId = "35FD6BC4-8300-47F6-A560-C4E3FDEA81EC";
name = Bold;
paths = (
{
closed = 1;
nodes = (
"207 140 LINE",
"207 1191 LINE",
"64 1215 LINE",
"64 1339 LINE",
"503 1339 LINE",
"1016 562 LINE",
"1111 358 LINE",
"1111 1192 LINE",
"957 1215 LINE",
"957 1339 LINE",
"1419 1339 LINE",
"1419 1215 LINE",
"1280 1191 LINE",
"1280 0 LINE",
"1036 0 LINE",
"496 825 LINE",
"377 1066 LINE",
"377 140 LINE",
"561 118 LINE",
"561 0 LINE",
"64 0 LINE",
"64 118 LINE"
);
},
{
closed = 1;
nodes = (
"1521 844 LINE",
"1523 982 LINE",
"1864 1026 LINE",
"1868 1026 LINE",
"1923 987 LINE",
"1923 19 LINE SMOOTH",
"1923 -172 OFFCURVE",
"1827 -314 OFFCURVE",
"1710 -385 CURVE SMOOTH",
"1651 -420 OFFCURVE",
"1596 -438 OFFCURVE",
"1545 -438 CURVE SMOOTH",
"1510 -438 OFFCURVE",
"1460 -435 OFFCURVE",
"1448 -431 CURVE",
"1433 -316 LINE",
"1454 -317 OFFCURVE",
"1494 -310 OFFCURVE",
"1522 -295 CURVE",
"1607 -254 OFFCURVE",
"1641 -135 OFFCURVE",
"1641 70 CURVE",
"1640 806 LINE"
);
},
{
closed = 1;
nodes = (
"1582 1373 OFFCURVE",
"1609 1428 OFFCURVE",
"1660 1460 CURVE SMOOTH",
"1685 1475 OFFCURVE",
"1716 1483 OFFCURVE",
"1751 1483 CURVE SMOOTH",
"1752 1483 LINE SMOOTH",
"1819 1483 OFFCURVE",
"1868 1453 OFFCURVE",
"1893 1409 CURVE",
"1905 1386 OFFCURVE",
"1911 1362 OFFCURVE",
"1911 1335 CURVE SMOOTH",
"1911 1234 OFFCURVE",
"1849 1163 OFFCURVE",
"1734 1163 CURVE SMOOTH",
"1734 1163 LINE SMOOTH",
"1675 1163 OFFCURVE",
"1628 1191 OFFCURVE",
"1602 1235 CURVE SMOOTH",
"1589 1257 OFFCURVE",
"1582 1282 OFFCURVE",
"1582 1309 CURVE SMOOTH"
);
}
);
width = 2060;
}
);
note = uni01CB;
unicode = 01CB;
},
{
glyphname = uni01CD;
layers = (
{
layerId = "35FD6BC4-8300-47F6-A560-C4E3FDEA81EC";
name = Bold;
paths = (
{
closed = 1;
nodes = (
"69 141 LINE",
"475 1346 LINE",
"786 1346 LINE",
"1195 140 LINE",
"1297 118 LINE",
"1297 0 LINE",
"740 0 LINE",
"740 118 LINE",
"867 141 LINE",
"803 358 LINE",
"361 358 LINE",
"299 137 LINE",
"439 118 LINE",
"439 0 LINE",
"-35 0 LINE",
"-37 118 LINE"
);
},
{
closed = 1;
nodes = (
"764 494 LINE",
"605 1038 LINE",
"577 1162 LINE",
"550 1038 LINE",
"399 494 LINE"
);
},
{
closed = 1;
nodes = (
"545 1767 LINE",
"723 1767 LINE",
"987 1507 LINE",
"888 1429 LINE",
"634 1597 LINE",
"378 1429 LINE",
"282 1506 LINE"
);
}
);
width = 1269;
}
);
note = uni01CD;
unicode = 01CD;
},
{
glyphname = uni01CF;
layers = (
{
layerId = "35FD6BC4-8300-47F6-A560-C4E3FDEA81EC";
name = Bold;
paths = (
{
closed = 1;
nodes = (
"225 141 LINE",
"225 1190 LINE",
"78 1215 LINE",
"78 1339 LINE",
"671 1339 LINE",
"671 1215 LINE",
"524 1191 LINE",
"524 141 LINE",
"673 116 LINE",
"673 0 LINE",
"80 0 LINE",
"80 118 LINE"
);
},
{
closed = 1;
nodes = (
"136 1772 LINE",
"373 1616 LINE",
"623 1772 LINE",
"720 1695 LINE",
"463 1448 LINE",
"284 1448 LINE",
"38 1695 LINE"
);
}
);
width = 748;
}
);
note = uni01CF;
unicode = 01CF;
},
{
glyphname = uni01F1;
layers = (
{
layerId = "35FD6BC4-8300-47F6-A560-C4E3FDEA81EC";
name = Bold;
paths = (
{
closed = 1;
nodes = (
"205 140 LINE",
"205 1191 LINE",
"74 1215 LINE",
"74 1339 LINE",
"348 1339 LINE SMOOTH",
"385 1339 OFFCURVE",
"436 1341 OFFCURVE",
"503 1345 CURVE SMOOTH",
"562 1349 OFFCURVE",
"615 1351 OFFCURVE",
"662 1351 CURVE SMOOTH",
"1105 1351 OFFCURVE",
"1325 1124 OFFCURVE",
"1325 715 CURVE SMOOTH",
"1325 434 OFFCURVE",
"1212 204 OFFCURVE",
"1012 80 CURVE SMOOTH",
"911 17 OFFCURVE",
"794 -14 OFFCURVE",
"659 -14 CURVE SMOOTH",
"631 -14 OFFCURVE",
"574 -11 OFFCURVE",
"488 -6 CURVE SMOOTH",
"474 -5 OFFCURVE",
"453 -4 OFFCURVE",
"424 -2 CURVE SMOOTH",
"395 -1 OFFCURVE",
"372 0 OFFCURVE",
"355 0 CURVE SMOOTH",
"68 0 LINE",
"68 118 LINE"
);
},
{
closed = 1;
nodes = (
"500 133 LINE",
"539 118 OFFCURVE",
"587 115 OFFCURVE",
"651 116 CURVE SMOOTH",
"871 119 OFFCURVE",
"1001 299 OFFCURVE",
"1001 671 CURVE SMOOTH",
"1001 1023 OFFCURVE",
"881 1227 OFFCURVE",
"620 1227 CURVE SMOOTH",
"584 1227 OFFCURVE",
"556 1225 OFFCURVE",
"535 1221 CURVE",
"514 1216 OFFCURVE",
"503 1214 OFFCURVE",
"500 1213 CURVE"
);
},
{
closed = 1;
nodes = (
"2066 1110 LINE",
"2168 1227 LINE",
"1741 1203 LINE",
"1637 960 LINE",
"1486 982 LINE",
"1530 1344 LINE",
"2456 1344 LINE",
"2504 1237 LINE",
"1859 234 LINE",
"1738 122 LINE",
"2251 159 LINE",
"2358 431 LINE",
"2510 401 LINE",
"2469 0 LINE",
"1470 0 LINE",
"1407 106 LINE"
);
}
);
width = 2565;
}
);
note = uni01F1;
unicode = 01F1;
},
{
glyphname = uni01F2;
layers = (
{
layerId = "35FD6BC4-8300-47F6-A560-C4E3FDEA81EC";
name = Bold;
paths = (
{
closed = 1;
nodes = (
"205 140 LINE",
"205 1191 LINE",
"74 1215 LINE",
"74 1339 LINE",
"348 1339 LINE SMOOTH",
"385 1339 OFFCURVE",
"436 1341 OFFCURVE",
"503 1345 CURVE SMOOTH",
"562 1349 OFFCURVE",
"615 1351 OFFCURVE",
"662 1351 CURVE SMOOTH",
"1105 1351 OFFCURVE",
"1325 1124 OFFCURVE",
"1325 715 CURVE SMOOTH",
"1325 434 OFFCURVE",
"1212 204 OFFCURVE",
"1012 80 CURVE SMOOTH",
"911 17 OFFCURVE",
"794 -14 OFFCURVE",
"659 -14 CURVE SMOOTH",
"631 -14 OFFCURVE",
"574 -11 OFFCURVE",
"488 -6 CURVE SMOOTH",
"474 -5 OFFCURVE",
"453 -4 OFFCURVE",
"424 -2 CURVE SMOOTH",
"395 -1 OFFCURVE",
"372 0 OFFCURVE",
"355 0 CURVE SMOOTH",
"68 0 LINE",
"68 118 LINE"
);
},
{
closed = 1;
nodes = (
"500 133 LINE",
"539 118 OFFCURVE",
"587 115 OFFCURVE",
"651 116 CURVE SMOOTH",
"871 119 OFFCURVE",
"1001 299 OFFCURVE",
"1001 671 CURVE SMOOTH",
"1001 1023 OFFCURVE",
"881 1227 OFFCURVE",
"620 1227 CURVE SMOOTH",
"584 1227 OFFCURVE",
"556 1225 OFFCURVE",
"535 1221 CURVE",
"514 1216 OFFCURVE",
"503 1214 OFFCURVE",
"500 1213 CURVE"
);
},
{
closed = 1;
nodes = (
"2012 878 LINE",
"1681 863 LINE",
"1635 689 LINE",
"1491 689 LINE",
"1491 1001 LINE",
"2288 1001 LINE",
"2332 905 LINE",
"1883 256 LINE",
"1761 123 LINE",
"2119 144 LINE",
"2200 343 LINE",
"2337 329 LINE",
"2313 0 LINE",
"1469 0 LINE",
"1420 100 LINE",
"1882 737 LINE"
);
}
);
width = 2392;
}
);
note = uni01F2;
unicode = 01F2;
},
{
glyphname = uni01F4;
layers = (
{
layerId = "35FD6BC4-8300-47F6-A560-C4E3FDEA81EC";
name = Bold;
paths = (
{
closed = 1;
nodes = (
"58 949 OFFCURVE",
"179 1164 OFFCURVE",
"389 1274 CURVE SMOOTH",
"494 1329 OFFCURVE",
"616 1356 OFFCURVE",
"757 1356 CURVE SMOOTH",
"922 1356 OFFCURVE",
"1095 1325 OFFCURVE",
"1207 1300 CURVE",
"1186 957 LINE",
"980 957 LINE",
"927 1187 LINE",
"916 1200 OFFCURVE",
"896 1211 OFFCURVE",
"868 1221 CURVE",
"839 1230 OFFCURVE",
"800 1235 OFFCURVE",
"749 1235 CURVE SMOOTH",
"604 1235 OFFCURVE",
"498 1152 OFFCURVE",
"443 989 CURVE SMOOTH",
"415 908 OFFCURVE",
"401 808 OFFCURVE",
"401 689 CURVE SMOOTH",
"401 461 OFFCURVE",
"445 281 OFFCURVE",
"544 181 CURVE SMOOTH",
"593 131 OFFCURVE",
"656 106 OFFCURVE",
"731 106 CURVE SMOOTH",
"816 106 OFFCURVE",
"894 127 OFFCURVE",
"929 166 CURVE",
"929 537 LINE",
"759 557 LINE",
"759 689 LINE",
"1312 689 LINE",
"1312 557 LINE",
"1221 540 LINE",
"1221 72 LINE",
"1190 71 OFFCURVE",
"1151 61 OFFCURVE",
"1086 42 CURVE SMOOTH",
"939 2 OFFCURVE",
"837 -20 OFFCURVE",
"704 -20 CURVE SMOOTH",
"435 -20 OFFCURVE",
"234 105 OFFCURVE",
"134 309 CURVE SMOOTH",
"83 411 OFFCURVE",
"58 527 OFFCURVE",
"58 656 CURVE SMOOTH"
);
},
{
closed = 1;
nodes = (
"892 1772 LINE",
"893 1772 LINE",
"1074 1642 LINE",
"1015 1573 OFFCURVE",
"916 1506 OFFCURVE",
"827 1463 CURVE SMOOTH",
"782 1441 OFFCURVE",
"747 1427 OFFCURVE",
"721 1420 CURVE",
"720 1420 LINE",
"617 1498 LINE"
);
}
);
width = 1347;
}
);
note = uni01F4;
unicode = 01F4;
},
{
glyphname = uni021A;
layers = (
{
layerId = "35FD6BC4-8300-47F6-A560-C4E3FDEA81EC";
name = Bold;
paths = (
{
closed = 1;
nodes = (
"643 -493 LINE",
"556 -462 LINE",
"553 -446 LINE",
"580 -435 OFFCURVE",
"597 -387 OFFCURVE",
"597 -343 CURVE SMOOTH",
"597 -316 OFFCURVE",
"584 -296 OFFCURVE",
"559 -282 CURVE",
"536 -266 OFFCURVE",
"521 -238 OFFCURVE",
"521 -194 CURVE SMOOTH",
"521 -142 OFFCURVE",
"555 -110 OFFCURVE",
"596 -95 CURVE SMOOTH",
"617 -88 OFFCURVE",
"637 -84 OFFCURVE",
"657 -84 CURVE SMOOTH",
"666 -84 LINE SMOOTH",
"750 -84 OFFCURVE",
"807 -139 OFFCURVE",
"807 -231 CURVE SMOOTH",
"807 -312 OFFCURVE",
"761 -396 OFFCURVE",
"709 -448 CURVE SMOOTH",
"683 -475 OFFCURVE",
"662 -490 OFFCURVE",
"646 -493 CURVE"
);
},
{
closed = 1;
nodes = (
"497 141 LINE",
"497 1206 LINE",
"270 1198 LINE",
"197 807 LINE",
"30 807 LINE",
"56 1339 LINE",
"1224 1339 LINE",
"1250 807 LINE",
"1089 807 LINE",
"1011 1198 LINE",
"798 1206 LINE",
"798 142 LINE",
"1045 118 LINE",
"1045 0 LINE",
"271 0 LINE",
"271 118 LINE"
);
}
);
width = 1290;
}
);
note = uni021A;
unicode = 021A;
},
{
glyphname = uni1E02;
layers = (
{
layerId = "35FD6BC4-8300-47F6-A560-C4E3FDEA81EC";
name = Bold;
paths = (
{
closed = 1;
nodes = (
"502 1696 OFFCURVE",
"559 1758 OFFCURVE",
"664 1758 CURVE",
"664 1758 LINE",
"729 1758 OFFCURVE",
"778 1732 OFFCURVE",
"803 1691 CURVE SMOOTH",
"815 1670 OFFCURVE",
"821 1647 OFFCURVE",
"821 1622 CURVE SMOOTH",
"821 1523 OFFCURVE",
"763 1463 OFFCURVE",
"648 1463 CURVE SMOOTH",
"647 1463 LINE SMOOTH",
"591 1463 OFFCURVE",
"545 1488 OFFCURVE",
"521 1529 CURVE SMOOTH",
"508 1550 OFFCURVE",
"502 1573 OFFCURVE",
"502 1600 CURVE SMOOTH"
);
},
{
closed = 1;
nodes = (
"205 141 LINE",
"205 1191 LINE",
"70 1215 LINE",
"70 1339 LINE",
"346 1339 LINE SMOOTH",
"377 1339 OFFCURVE",
"429 1341 OFFCURVE",
"503 1346 CURVE SMOOTH",
"561 1349 OFFCURVE",
"604 1351 OFFCURVE",
"631 1351 CURVE SMOOTH",
"884 1351 OFFCURVE",
"1027 1302 OFFCURVE",
"1088 1214 CURVE SMOOTH",
"1119 1169 OFFCURVE",
"1134 1113 OFFCURVE",
"1134 1046 CURVE SMOOTH",
"1134 927 OFFCURVE",
"1082 833 OFFCURVE",
"995 774 CURVE SMOOTH",
"952 745 OFFCURVE",
"902 726 OFFCURVE",
"847 717 CURVE",
"999 718 OFFCURVE",
"1117 668 OFFCURVE",
"1181 573 CURVE SMOOTH",
"1212 526 OFFCURVE",
"1228 469 OFFCURVE",
"1228 404 CURVE SMOOTH",
"1228 127 OFFCURVE",
"1036 -11 OFFCURVE",
"651 -11 CURVE SMOOTH",
"610 -11 OFFCURVE",
"560 -9 OFFCURVE",
"500 -5 CURVE SMOOTH",
"441 -2 OFFCURVE",
"392 0 OFFCURVE",
"351 0 CURVE SMOOTH",
"68 0 LINE",
"68 118 LINE"
);
},
{
closed = 1;
nodes = (
"500 764 LINE",
"522 761 OFFCURVE",
"569 760 OFFCURVE",
"641 760 CURVE SMOOTH",
"780 760 OFFCURVE",
"840 847 OFFCURVE",
"840 1011 CURVE SMOOTH",
"840 1164 OFFCURVE",
"777 1231 OFFCURVE",
"622 1231 CURVE SMOOTH",
"586 1231 OFFCURVE",
"523 1226 OFFCURVE",
"500 1222 CURVE"
);
},
{
closed = 1;
nodes = (
"499 128 LINE",
"518 118 OFFCURVE",
"565 113 OFFCURVE",
"642 113 CURVE SMOOTH",
"825 113 OFFCURVE",
"903 208 OFFCURVE",
"903 381 CURVE SMOOTH",
"903 501 OFFCURVE",
"869 569 OFFCURVE",
"797 602 CURVE SMOOTH",
"761 618 OFFCURVE",
"714 626 OFFCURVE",
"656 626 CURVE SMOOTH",
"585 626 OFFCURVE",
"532 625 OFFCURVE",
"499 623 CURVE"
);
}
);
width = 1280;
}
);
note = uni1E02;
unicode = 1E02;
},
{
glyphname = uni1E0A;
layers = (
{
layerId = "35FD6BC4-8300-47F6-A560-C4E3FDEA81EC";
name = Bold;
paths = (
{
closed = 1;
nodes = (
"543 1696 OFFCURVE",
"600 1758 OFFCURVE",
"705 1758 CURVE",
"705 1758 LINE",
"770 1758 OFFCURVE",
"819 1732 OFFCURVE",
"844 1691 CURVE SMOOTH",
"856 1670 OFFCURVE",
"862 1647 OFFCURVE",
"862 1622 CURVE SMOOTH",
"862 1523 OFFCURVE",
"804 1463 OFFCURVE",
"689 1463 CURVE SMOOTH",
"688 1463 LINE SMOOTH",
"632 1463 OFFCURVE",
"586 1488 OFFCURVE",
"562 1529 CURVE SMOOTH",
"549 1550 OFFCURVE",
"543 1573 OFFCURVE",
"543 1600 CURVE SMOOTH"
);
},
{
closed = 1;
nodes = (
"205 140 LINE",
"205 1191 LINE",
"74 1215 LINE",
"74 1339 LINE",
"348 1339 LINE SMOOTH",
"385 1339 OFFCURVE",
"436 1341 OFFCURVE",
"503 1345 CURVE SMOOTH",
"562 1349 OFFCURVE",
"615 1351 OFFCURVE",
"662 1351 CURVE SMOOTH",
"1105 1351 OFFCURVE",
"1325 1124 OFFCURVE",
"1325 715 CURVE SMOOTH",
"1325 434 OFFCURVE",
"1212 204 OFFCURVE",
"1012 80 CURVE SMOOTH",
"911 17 OFFCURVE",
"794 -14 OFFCURVE",
"659 -14 CURVE SMOOTH",
"631 -14 OFFCURVE",
"574 -11 OFFCURVE",
"488 -6 CURVE SMOOTH",
"474 -5 OFFCURVE",
"453 -4 OFFCURVE",
"424 -2 CURVE SMOOTH",
"395 -1 OFFCURVE",
"372 0 OFFCURVE",
"355 0 CURVE SMOOTH",
"68 0 LINE",
"68 118 LINE"
);
},
{
closed = 1;
nodes = (
"500 133 LINE",
"539 118 OFFCURVE",
"587 115 OFFCURVE",
"651 116 CURVE SMOOTH",
"871 119 OFFCURVE",
"1001 299 OFFCURVE",
"1001 671 CURVE SMOOTH",
"1001 1023 OFFCURVE",
"881 1227 OFFCURVE",
"620 1227 CURVE SMOOTH",
"584 1227 OFFCURVE",
"556 1225 OFFCURVE",
"535 1221 CURVE",
"514 1216 OFFCURVE",
"503 1214 OFFCURVE",
"500 1213 CURVE"
);
}
);
width = 1379;
}
);
note = uni1E0A;
unicode = 1E0A;
},
{
glyphname = uni1E1E;
layers = (
{
layerId = "35FD6BC4-8300-47F6-A560-C4E3FDEA81EC";
name = Bold;
paths = (
{
closed = 1;
nodes = (
"420 1696 OFFCURVE",
"477 1758 OFFCURVE",
"582 1758 CURVE",
"582 1758 LINE",
"647 1758 OFFCURVE",
"696 1732 OFFCURVE",
"721 1691 CURVE SMOOTH",
"733 1670 OFFCURVE",
"739 1647 OFFCURVE",
"739 1622 CURVE SMOOTH",
"739 1523 OFFCURVE",
"681 1463 OFFCURVE",
"566 1463 CURVE SMOOTH",
"565 1463 LINE SMOOTH",
"509 1463 OFFCURVE",
"463 1488 OFFCURVE",
"439 1529 CURVE SMOOTH",
"426 1550 OFFCURVE",
"420 1573 OFFCURVE",
"420 1600 CURVE SMOOTH"
);
},
{
closed = 1;
nodes = (
"205 140 LINE",
"205 1191 LINE",
"64 1215 LINE",
"64 1339 LINE",
"1067 1339 LINE",
"1087 1008 LINE",
"928 1008 LINE",
"858 1199 LINE",
"503 1220 LINE",
"503 725 LINE",
"741 729 LINE",
"779 885 LINE",
"910 885 LINE",
"910 416 LINE",
"780 416 LINE",
"741 576 LINE",
"503 583 LINE",
"503 141 LINE",
"770 118 LINE",
"770 0 LINE",
"68 0 LINE",
"68 118 LINE"
);
}
);
width = 1123;
}
);
note = uni1E1E;
unicode = 1E1E;
},
{
glyphname = uni1E20;
layers = (
{
layerId = "35FD6BC4-8300-47F6-A560-C4E3FDEA81EC";
name = Bold;
paths = (
{
closed = 1;
nodes = (
"58 949 OFFCURVE",
"179 1164 OFFCURVE",
"389 1274 CURVE SMOOTH",
"494 1329 OFFCURVE",
"616 1356 OFFCURVE",
"757 1356 CURVE SMOOTH",
"922 1356 OFFCURVE",
"1095 1325 OFFCURVE",
"1207 1300 CURVE",
"1186 957 LINE",
"980 957 LINE",
"927 1187 LINE",
"916 1200 OFFCURVE",
"896 1211 OFFCURVE",
"868 1221 CURVE",
"839 1230 OFFCURVE",
"800 1235 OFFCURVE",
"749 1235 CURVE SMOOTH",
"604 1235 OFFCURVE",
"498 1152 OFFCURVE",
"443 989 CURVE SMOOTH",
"415 908 OFFCURVE",
"401 808 OFFCURVE",
"401 689 CURVE SMOOTH",
"401 461 OFFCURVE",
"445 281 OFFCURVE",
"544 181 CURVE SMOOTH",
"593 131 OFFCURVE",
"656 106 OFFCURVE",
"731 106 CURVE SMOOTH",
"816 106 OFFCURVE",
"894 127 OFFCURVE",
"929 166 CURVE",
"929 537 LINE",
"759 557 LINE",
"759 689 LINE",
"1312 689 LINE",
"1312 557 LINE",
"1221 540 LINE",
"1221 72 LINE",
"1190 71 OFFCURVE",
"1151 61 OFFCURVE",
"1086 42 CURVE SMOOTH",
"939 2 OFFCURVE",
"837 -20 OFFCURVE",
"704 -20 CURVE SMOOTH",
"435 -20 OFFCURVE",
"234 105 OFFCURVE",
"134 309 CURVE SMOOTH",
"83 411 OFFCURVE",
"58 527 OFFCURVE",
"58 656 CURVE SMOOTH"
);
},
{
closed = 1;
nodes = (
"1036 1685 LINE",
"1036 1514 LINE",
"474 1514 LINE",
"474 1685 LINE"
);
}
);
width = 1347;
}
);
note = uni1E20;
unicode = 1E20;
},
{
glyphname = uni1E40;
layers = (
{
layerId = "35FD6BC4-8300-47F6-A560-C4E3FDEA81EC";
name = Bold;
paths = (
{
closed = 1;
nodes = (
"767 1696 OFFCURVE",
"824 1758 OFFCURVE",
"929 1758 CURVE",
"929 1758 LINE",
"994 1758 OFFCURVE",
"1043 1732 OFFCURVE",
"1068 1691 CURVE SMOOTH",
"1080 1670 OFFCURVE",
"1086 1647 OFFCURVE",
"1086 1622 CURVE SMOOTH",
"1086 1523 OFFCURVE",
"1028 1463 OFFCURVE",
"913 1463 CURVE SMOOTH",
"912 1463 LINE SMOOTH",
"856 1463 OFFCURVE",
"810 1488 OFFCURVE",
"786 1529 CURVE SMOOTH",
"773 1550 OFFCURVE",
"767 1573 OFFCURVE",
"767 1600 CURVE SMOOTH"
);
},
{
closed = 1;
nodes = (
"148 140 LINE",
"270 1191 LINE",
"93 1215 LINE",
"93 1339 LINE",
"676 1339 LINE",
"906 561 LINE",
"938 390 LINE",
"967 561 LINE",
"1160 1339 LINE",
"1749 1339 LINE",
"1749 1215 LINE",
"1558 1190 LINE",
"1714 141 LINE",
"1864 118 LINE",
"1864 0 LINE",
"1261 0 LINE",
"1261 118 LINE",
"1410 140 LINE",
"1319 915 LINE",
"1285 1237 LINE",
"1233 988 LINE",
"991 51 LINE",
"775 51 LINE",
"491 923 LINE",
"414 1243 LINE",
"392 916 LINE",
"335 141 LINE",
"514 118 LINE",
"514 0 LINE",
"-4 0 LINE",
"-4 118 LINE"
);
}
);
width = 1860;
}
);
note = uni1E40;
unicode = 1E40;
},
{
glyphname = uni1E44;
layers = (
{
layerId = "35FD6BC4-8300-47F6-A560-C4E3FDEA81EC";
name = Bold;
paths = (
{
closed = 1;
nodes = (
"207 140 LINE",
"207 1191 LINE",
"64 1215 LINE",
"64 1339 LINE",
"503 1339 LINE",
"1016 562 LINE",
"1111 358 LINE",
"1111 1192 LINE",
"957 1215 LINE",
"957 1339 LINE",
"1419 1339 LINE",
"1419 1215 LINE",
"1280 1191 LINE",
"1280 0 LINE",
"1036 0 LINE",
"496 825 LINE",
"377 1066 LINE",
"377 140 LINE",
"561 118 LINE",
"561 0 LINE",
"64 0 LINE",
"64 118 LINE"
);
},
{
closed = 1;
nodes = (
"600 1696 OFFCURVE",
"657 1758 OFFCURVE",
"762 1758 CURVE",
"762 1758 LINE",
"827 1758 OFFCURVE",
"876 1732 OFFCURVE",
"901 1691 CURVE SMOOTH",
"913 1670 OFFCURVE",
"919 1647 OFFCURVE",
"919 1622 CURVE SMOOTH",
"919 1523 OFFCURVE",
"861 1463 OFFCURVE",
"746 1463 CURVE SMOOTH",
"745 1463 LINE SMOOTH",
"689 1463 OFFCURVE",
"643 1488 OFFCURVE",
"619 1529 CURVE SMOOTH",
"606 1550 OFFCURVE",
"600 1573 OFFCURVE",
"600 1600 CURVE SMOOTH"
);
}
);
width = 1450;
}
);
note = uni1E44;
unicode = 1E44;
},
{
glyphname = uni1E56;
layers = (
{
layerId = "35FD6BC4-8300-47F6-A560-C4E3FDEA81EC";
name = Bold;
paths = (
{
closed = 1;
nodes = (
"442 1696 OFFCURVE",
"499 1758 OFFCURVE",
"604 1758 CURVE",
"604 1758 LINE",
"669 1758 OFFCURVE",
"718 1732 OFFCURVE",
"743 1691 CURVE SMOOTH",
"755 1670 OFFCURVE",
"761 1647 OFFCURVE",
"761 1622 CURVE SMOOTH",
"761 1523 OFFCURVE",
"703 1463 OFFCURVE",
"588 1463 CURVE SMOOTH",
"587 1463 LINE SMOOTH",
"531 1463 OFFCURVE",
"485 1488 OFFCURVE",
"461 1529 CURVE SMOOTH",
"448 1550 OFFCURVE",
"442 1573 OFFCURVE",
"442 1600 CURVE SMOOTH"
);
},
{
closed = 1;
nodes = (
"205 140 LINE",
"205 1191 LINE",
"74 1215 LINE",
"74 1339 LINE",
"343 1339 LINE SMOOTH",
"376 1339 OFFCURVE",
"414 1341 OFFCURVE",
"459 1344 CURVE SMOOTH",
"538 1348 OFFCURVE",
"601 1350 OFFCURVE",
"646 1350 CURVE SMOOTH",
"907 1350 OFFCURVE",
"1053 1287 OFFCURVE",
"1117 1172 CURVE SMOOTH",
"1148 1114 OFFCURVE",
"1164 1041 OFFCURVE",
"1164 952 CURVE SMOOTH",
"1164 749 OFFCURVE",
"1078 602 OFFCURVE",
"917 525 CURVE SMOOTH",
"836 486 OFFCURVE",
"740 467 OFFCURVE",
"627 467 CURVE SMOOTH",
"572 467 OFFCURVE",
"518 470 OFFCURVE",
"502 473 CURVE",
"502 141 LINE",
"736 118 LINE",
"736 0 LINE",
"68 0 LINE",
"68 118 LINE"
);
},
{
closed = 1;
nodes = (
"765 589 OFFCURVE",
"857 688 OFFCURVE",
"857 945 CURVE SMOOTH",
"857 1142 OFFCURVE",
"777 1230 OFFCURVE",
"617 1230 CURVE SMOOTH",
"583 1230 OFFCURVE",
"553 1228 OFFCURVE",
"527 1223 CURVE",
"520 1222 OFFCURVE",
"512 1221 OFFCURVE",
"502 1220 CURVE",
"502 598 LINE",
"529 592 OFFCURVE",
"569 589 OFFCURVE",
"622 589 CURVE SMOOTH"
);
}
);
width = 1197;
}
);
note = uni1E56;
unicode = 1E56;
},
{
glyphname = uni1E60;
layers = (
{
layerId = "35FD6BC4-8300-47F6-A560-C4E3FDEA81EC";
name = Bold;
paths = (
{
closed = 1;
nodes = (
"417 1696 OFFCURVE",
"474 1758 OFFCURVE",
"579 1758 CURVE",
"579 1758 LINE",
"644 1758 OFFCURVE",
"693 1732 OFFCURVE",
"718 1691 CURVE SMOOTH",
"730 1670 OFFCURVE",
"736 1647 OFFCURVE",
"736 1622 CURVE SMOOTH",
"736 1523 OFFCURVE",
"678 1463 OFFCURVE",
"563 1463 CURVE SMOOTH",
"562 1463 LINE SMOOTH",
"506 1463 OFFCURVE",
"460 1488 OFFCURVE",
"436 1529 CURVE SMOOTH",
"423 1550 OFFCURVE",
"417 1573 OFFCURVE",
"417 1600 CURVE SMOOTH"
);
},
{
closed = 1;
nodes = (
"113 394 LINE",
"277 394 LINE",
"322 171 LINE",
"351 135 OFFCURVE",
"431 106 OFFCURVE",
"527 106 CURVE SMOOTH",
"675 106 OFFCURVE",
"744 173 OFFCURVE",
"744 289 CURVE SMOOTH",
"744 368 OFFCURVE",
"698 425 OFFCURVE",
"616 474 CURVE SMOOTH",
"575 498 OFFCURVE",
"518 527 OFFCURVE",
"447 561 CURVE SMOOTH",
"256 649 OFFCURVE",
"104 773 OFFCURVE",
"104 992 CURVE SMOOTH",
"104 1125 OFFCURVE",
"174 1242 OFFCURVE",
"315 1307 CURVE SMOOTH",
"385 1340 OFFCURVE",
"471 1356 OFFCURVE",
"573 1356 CURVE SMOOTH",
"694 1356 OFFCURVE",
"785 1336 OFFCURVE",
"886 1308 CURVE SMOOTH",
"921 1299 OFFCURVE",
"943 1293 OFFCURVE",
"953 1292 CURVE",
"942 975 LINE",
"781 975 LINE",
"738 1190 LINE",
"721 1211 OFFCURVE",
"654 1235 OFFCURVE",
"582 1235 CURVE SMOOTH",
"447 1235 OFFCURVE",
"386 1171 OFFCURVE",
"386 1068 CURVE SMOOTH",
"386 985 OFFCURVE",
"444 924 OFFCURVE",
"524 876 CURVE SMOOTH",
"564 852 OFFCURVE",
"623 821 OFFCURVE",
"700 782 CURVE SMOOTH",
"831 717 OFFCURVE",
"925 660 OFFCURVE",
"993 560 CURVE SMOOTH",
"1027 509 OFFCURVE",
"1044 450 OFFCURVE",
"1044 383 CURVE SMOOTH",
"1044 250 OFFCURVE",
"983 120 OFFCURVE",
"832 40 CURVE SMOOTH",
"756 0 OFFCURVE",
"658 -20 OFFCURVE",
"537 -20 CURVE SMOOTH",
"402 -20 OFFCURVE",
"298 4 OFFCURVE",
"178 40 CURVE SMOOTH",
"137 52 OFFCURVE",
"111 59 OFFCURVE",
"98 60 CURVE"
);
}
);
width = 1092;
}
);
note = uni1E60;
unicode = 1E60;
},
{
glyphname = uni1E6A;
layers = (
{
layerId = "35FD6BC4-8300-47F6-A560-C4E3FDEA81EC";
name = Bold;
paths = (
{
closed = 1;
nodes = (
"499 1696 OFFCURVE",
"556 1758 OFFCURVE",
"661 1758 CURVE",
"661 1758 LINE",
"726 1758 OFFCURVE",
"775 1732 OFFCURVE",
"800 1691 CURVE SMOOTH",
"812 1670 OFFCURVE",
"818 1647 OFFCURVE",
"818 1622 CURVE SMOOTH",
"818 1523 OFFCURVE",
"760 1463 OFFCURVE",
"645 1463 CURVE SMOOTH",
"644 1463 LINE SMOOTH",
"588 1463 OFFCURVE",
"542 1488 OFFCURVE",
"518 1529 CURVE SMOOTH",
"505 1550 OFFCURVE",
"499 1573 OFFCURVE",
"499 1600 CURVE SMOOTH"
);
},
{
closed = 1;
nodes = (
"497 141 LINE",
"497 1206 LINE",
"270 1198 LINE",
"197 807 LINE",
"30 807 LINE",
"56 1339 LINE",
"1224 1339 LINE",
"1250 807 LINE",
"1089 807 LINE",
"1011 1198 LINE",
"798 1206 LINE",
"798 142 LINE",
"1045 118 LINE",
"1045 0 LINE",
"271 0 LINE",
"271 118 LINE"
);
}
);
width = 1290;
}
);
note = uni1E6A;
unicode = 1E6A;
},
{
glyphname = uni1E8E;
layers = (
{
layerId = "35FD6BC4-8300-47F6-A560-C4E3FDEA81EC";
name = Bold;
paths = (
{
closed = 1;
nodes = (
"448 140 LINE",
"448 536 LINE",
"75 1190 LINE",
"-31 1215 LINE",
"-31 1339 LINE",
"531 1339 LINE",
"531 1215 LINE",
"412 1190 LINE",
"622 766 LINE",
"663 653 LINE",
"708 765 LINE",
"900 1191 LINE",
"766 1215 LINE",
"766 1339 LINE",
"1221 1339 LINE",
"1221 1215 LINE",
"1109 1192 LINE",
"762 536 LINE",
"762 141 LINE",
"953 118 LINE",
"953 0 LINE",
"264 0 LINE",
"264 118 LINE"
);
},
{
closed = 1;
nodes = (
"459 1696 OFFCURVE",
"516 1758 OFFCURVE",
"621 1758 CURVE",
"621 1758 LINE",
"686 1758 OFFCURVE",
"735 1732 OFFCURVE",
"760 1691 CURVE SMOOTH",
"772 1670 OFFCURVE",
"778 1647 OFFCURVE",
"778 1622 CURVE SMOOTH",
"778 1523 OFFCURVE",
"720 1463 OFFCURVE",
"605 1463 CURVE SMOOTH",
"604 1463 LINE SMOOTH",
"548 1463 OFFCURVE",
"502 1488 OFFCURVE",
"478 1529 CURVE SMOOTH",
"465 1550 OFFCURVE",
"459 1573 OFFCURVE",
"459 1600 CURVE SMOOTH"
);
}
);
width = 1188;
}
);
note = uni1E8E;
unicode = 1E8E;
},
{
glyphname = I.uc;
layers = (
{
layerId = "35FD6BC4-8300-47F6-A560-C4E3FDEA81EC";
name = Bold;
paths = (
{
closed = 1;
nodes = (
"225 141 LINE",
"225 1190 LINE",
"78 1215 LINE",
"78 1339 LINE",
"671 1339 LINE",
"671 1215 LINE",
"524 1191 LINE",
"524 141 LINE",
"673 116 LINE",
"673 0 LINE",
"80 0 LINE",
"80 118 LINE"
);
},
{
closed = 1;
nodes = (
"216 1696 OFFCURVE",
"273 1758 OFFCURVE",
"378 1758 CURVE",
"378 1758 LINE",
"443 1758 OFFCURVE",
"492 1732 OFFCURVE",
"517 1691 CURVE SMOOTH",
"529 1670 OFFCURVE",
"535 1647 OFFCURVE",
"535 1622 CURVE SMOOTH",
"535 1523 OFFCURVE",
"477 1463 OFFCURVE",
"362 1463 CURVE SMOOTH",
"361 1463 LINE SMOOTH",
"305 1463 OFFCURVE",
"259 1488 OFFCURVE",
"235 1529 CURVE SMOOTH",
"222 1550 OFFCURVE",
"216 1573 OFFCURVE",
"216 1600 CURVE SMOOTH"
);
}
);
width = 748;
}
);
note = I.uc;
},
{
glyphname = a;
layers = (
{
layerId = "35FD6BC4-8300-47F6-A560-C4E3FDEA81EC";
name = Bold;
paths = (
{
closed = 1;
nodes = (
"634 654 LINE SMOOTH",
"634 742 OFFCURVE",
"618 791 OFFCURVE",
"567 817 CURVE SMOOTH",
"541 830 OFFCURVE",
"504 836 OFFCURVE",
"456 836 CURVE SMOOTH",
"336 836 OFFCURVE",
"245 806 OFFCURVE",
"148 765 CURVE",
"147 765 LINE",
"90 884 LINE",
"129 916 OFFCURVE",
"223 966 OFFCURVE",
"344 999 CURVE SMOOTH",
"404 1016 OFFCURVE",
"465 1024 OFFCURVE",
"528 1024 CURVE SMOOTH",
"716 1024 OFFCURVE",
"819 977 OFFCURVE",
"864 872 CURVE SMOOTH",
"887 819 OFFCURVE",
"898 748 OFFCURVE",
"898 658 CURVE SMOOTH",
"898 119 LINE",
"994 119 LINE",
"994 7 LINE",
"935 -6 OFFCURVE",
"831 -22 OFFCURVE",
"763 -22 CURVE SMOOTH",
"700 -22 OFFCURVE",
"670 -12 OFFCURVE",
"656 17 CURVE SMOOTH",
"649 31 OFFCURVE",
"645 52 OFFCURVE",
"645 79 CURVE SMOOTH",
"645 106 LINE",
"588 39 OFFCURVE",
"486 -20 OFFCURVE",
"358 -20 CURVE SMOOTH",
"246 -20 OFFCURVE",
"148 26 OFFCURVE",
"93 117 CURVE SMOOTH",
"65 162 OFFCURVE",
"51 217 OFFCURVE",
"51 281 CURVE SMOOTH",
"51 501 OFFCURVE",
"270 613 OFFCURVE",
"634 617 CURVE"
);
},
{
closed = 1;
nodes = (
"634 498 LINE",
"439 497 OFFCURVE",
"356 420 OFFCURVE",
"356 313 CURVE SMOOTH",
"356 205 OFFCURVE",
"410 145 OFFCURVE",
"495 145 CURVE SMOOTH",
"535 145 OFFCURVE",
"598 170 OFFCURVE",
"634 202 CURVE"
);
}
);
width = 1021;
}
);
note = a;
unicode = 0061;
},
{
glyphname = aacute;
layers = (
{
layerId = "35FD6BC4-8300-47F6-A560-C4E3FDEA81EC";
name = Bold;
paths = (
{
closed = 1;
nodes = (
"634 654 LINE SMOOTH",
"634 742 OFFCURVE",
"618 791 OFFCURVE",
"567 817 CURVE SMOOTH",
"541 830 OFFCURVE",
"504 836 OFFCURVE",
"456 836 CURVE SMOOTH",
"336 836 OFFCURVE",
"245 806 OFFCURVE",
"148 765 CURVE",
"147 765 LINE",
"90 884 LINE",
"129 916 OFFCURVE",
"223 966 OFFCURVE",
"344 999 CURVE SMOOTH",
"404 1016 OFFCURVE",
"465 1024 OFFCURVE",
"528 1024 CURVE SMOOTH",
"716 1024 OFFCURVE",
"819 977 OFFCURVE",
"864 872 CURVE SMOOTH",
"887 819 OFFCURVE",
"898 748 OFFCURVE",
"898 658 CURVE SMOOTH",
"898 119 LINE",
"994 119 LINE",
"994 7 LINE",
"935 -6 OFFCURVE",
"831 -22 OFFCURVE",
"763 -22 CURVE SMOOTH",
"700 -22 OFFCURVE",
"670 -12 OFFCURVE",
"656 17 CURVE SMOOTH",
"649 31 OFFCURVE",
"645 52 OFFCURVE",
"645 79 CURVE SMOOTH",
"645 106 LINE",
"588 39 OFFCURVE",
"486 -20 OFFCURVE",
"358 -20 CURVE SMOOTH",
"246 -20 OFFCURVE",
"148 26 OFFCURVE",
"93 117 CURVE SMOOTH",
"65 162 OFFCURVE",
"51 217 OFFCURVE",
"51 281 CURVE SMOOTH",
"51 501 OFFCURVE",
"270 613 OFFCURVE",
"634 617 CURVE"
);
},
{
closed = 1;
nodes = (
"634 498 LINE",
"439 497 OFFCURVE",
"356 420 OFFCURVE",
"356 313 CURVE SMOOTH",
"356 205 OFFCURVE",
"410 145 OFFCURVE",
"495 145 CURVE SMOOTH",
"535 145 OFFCURVE",
"598 170 OFFCURVE",
"634 202 CURVE"
);
},
{
closed = 1;
nodes = (
"657 1617 LINE",
"658 1617 LINE",
"829 1463 LINE",
"790 1396 OFFCURVE",
"683 1299 OFFCURVE",
"578 1224 CURVE SMOOTH",
"525 1187 OFFCURVE",
"483 1162 OFFCURVE",
"450 1150 CURVE",
"449 1150 LINE",
"342 1238 LINE"
);
}
);
width = 1021;
}
);
note = aacute;
unicode = 00E1;
},
{
glyphname = abreve;
layers = (
{
layerId = "35FD6BC4-8300-47F6-A560-C4E3FDEA81EC";
name = Bold;
paths = (
{
closed = 1;
nodes = (
"634 654 LINE SMOOTH",
"634 742 OFFCURVE",
"618 791 OFFCURVE",
"567 817 CURVE SMOOTH",
"541 830 OFFCURVE",
"504 836 OFFCURVE",
"456 836 CURVE SMOOTH",
"336 836 OFFCURVE",
"245 806 OFFCURVE",
"148 765 CURVE",
"147 765 LINE",
"90 884 LINE",
"129 916 OFFCURVE",
"223 966 OFFCURVE",
"344 999 CURVE SMOOTH",
"404 1016 OFFCURVE",
"465 1024 OFFCURVE",
"528 1024 CURVE SMOOTH",
"716 1024 OFFCURVE",
"819 977 OFFCURVE",
"864 872 CURVE SMOOTH",
"887 819 OFFCURVE",
"898 748 OFFCURVE",
"898 658 CURVE SMOOTH",
"898 119 LINE",
"994 119 LINE",
"994 7 LINE",
"935 -6 OFFCURVE",
"831 -22 OFFCURVE",
"763 -22 CURVE SMOOTH",
"700 -22 OFFCURVE",
"670 -12 OFFCURVE",
"656 17 CURVE SMOOTH",
"649 31 OFFCURVE",
"645 52 OFFCURVE",
"645 79 CURVE SMOOTH",
"645 106 LINE",
"588 39 OFFCURVE",
"486 -20 OFFCURVE",
"358 -20 CURVE SMOOTH",
"246 -20 OFFCURVE",
"148 26 OFFCURVE",
"93 117 CURVE SMOOTH",
"65 162 OFFCURVE",
"51 217 OFFCURVE",
"51 281 CURVE SMOOTH",
"51 501 OFFCURVE",
"270 613 OFFCURVE",
"634 617 CURVE"
);
},
{
closed = 1;
nodes = (
"634 498 LINE",
"439 497 OFFCURVE",
"356 420 OFFCURVE",
"356 313 CURVE SMOOTH",
"356 205 OFFCURVE",
"410 145 OFFCURVE",
"495 145 CURVE SMOOTH",
"535 145 OFFCURVE",
"598 170 OFFCURVE",
"634 202 CURVE"
);
},
{
closed = 1;
nodes = (
"179 1515 OFFCURVE",
"180 1541 OFFCURVE",
"183 1552 CURVE",
"315 1552 LINE",
"315 1539 OFFCURVE",
"316 1527 OFFCURVE",
"319 1514 CURVE",
"332 1434 OFFCURVE",
"386 1368 OFFCURVE",
"506 1368 CURVE SMOOTH",
"625 1368 OFFCURVE",
"677 1434 OFFCURVE",
"689 1514 CURVE SMOOTH",
"691 1527 OFFCURVE",
"692 1539 OFFCURVE",
"692 1552 CURVE",
"821 1552 LINE",
"824 1510 OFFCURVE",
"825 1484 OFFCURVE",
"825 1474 CURVE SMOOTH",
"825 1362 OFFCURVE",
"769 1265 OFFCURVE",
"671 1211 CURVE SMOOTH",
"622 1184 OFFCURVE",
"566 1170 OFFCURVE",
"505 1170 CURVE SMOOTH",
"376 1170 OFFCURVE",
"274 1228 OFFCURVE",
"220 1321 CURVE SMOOTH",
"193 1367 OFFCURVE",
"179 1418 OFFCURVE",
"179 1473 CURVE SMOOTH"
);
}
);
width = 1021;
}
);
note = abreve;
unicode = 0103;
},
{
glyphname = acircumflex;
layers = (
{
layerId = "35FD6BC4-8300-47F6-A560-C4E3FDEA81EC";
name = Bold;
paths = (
{
closed = 1;
nodes = (
"634 654 LINE SMOOTH",
"634 742 OFFCURVE",
"618 791 OFFCURVE",
"567 817 CURVE SMOOTH",
"541 830 OFFCURVE",
"504 836 OFFCURVE",
"456 836 CURVE SMOOTH",
"336 836 OFFCURVE",
"245 806 OFFCURVE",
"148 765 CURVE",
"147 765 LINE",
"90 884 LINE",
"129 916 OFFCURVE",
"223 966 OFFCURVE",
"344 999 CURVE SMOOTH",
"404 1016 OFFCURVE",
"465 1024 OFFCURVE",
"528 1024 CURVE SMOOTH",
"716 1024 OFFCURVE",
"819 977 OFFCURVE",
"864 872 CURVE SMOOTH",
"887 819 OFFCURVE",
"898 748 OFFCURVE",
"898 658 CURVE SMOOTH",
"898 119 LINE",
"994 119 LINE",
"994 7 LINE",
"935 -6 OFFCURVE",
"831 -22 OFFCURVE",
"763 -22 CURVE SMOOTH",
"700 -22 OFFCURVE",
"670 -12 OFFCURVE",
"656 17 CURVE SMOOTH",
"649 31 OFFCURVE",
"645 52 OFFCURVE",
"645 79 CURVE SMOOTH",
"645 106 LINE",
"588 39 OFFCURVE",
"486 -20 OFFCURVE",
"358 -20 CURVE SMOOTH",
"246 -20 OFFCURVE",
"148 26 OFFCURVE",
"93 117 CURVE SMOOTH",
"65 162 OFFCURVE",
"51 217 OFFCURVE",
"51 281 CURVE SMOOTH",
"51 501 OFFCURVE",
"270 613 OFFCURVE",
"634 617 CURVE"
);
},
{
closed = 1;
nodes = (
"634 498 LINE",
"439 497 OFFCURVE",
"356 420 OFFCURVE",
"356 313 CURVE SMOOTH",
"356 205 OFFCURVE",
"410 145 OFFCURVE",
"495 145 CURVE SMOOTH",
"535 145 OFFCURVE",
"598 170 OFFCURVE",
"634 202 CURVE"
);
},
{
closed = 1;
nodes = (
"417 1577 LINE",
"588 1577 LINE",
"858 1226 LINE",
"759 1148 LINE",
"504 1372 LINE",
"241 1148 LINE",
"147 1225 LINE"
);
}
);
width = 1021;
}
);
note = acircumflex;
unicode = 00E2;
},
{
glyphname = adieresis;
layers = (
{
layerId = "35FD6BC4-8300-47F6-A560-C4E3FDEA81EC";
name = Bold;
paths = (
{
closed = 1;
nodes = (
"634 654 LINE SMOOTH",
"634 742 OFFCURVE",
"618 791 OFFCURVE",
"567 817 CURVE SMOOTH",
"541 830 OFFCURVE",
"504 836 OFFCURVE",
"456 836 CURVE SMOOTH",
"336 836 OFFCURVE",
"245 806 OFFCURVE",
"148 765 CURVE",
"147 765 LINE",
"90 884 LINE",
"129 916 OFFCURVE",
"223 966 OFFCURVE",
"344 999 CURVE SMOOTH",
"404 1016 OFFCURVE",
"465 1024 OFFCURVE",
"528 1024 CURVE SMOOTH",
"716 1024 OFFCURVE",
"819 977 OFFCURVE",
"864 872 CURVE SMOOTH",
"887 819 OFFCURVE",
"898 748 OFFCURVE",
"898 658 CURVE SMOOTH",
"898 119 LINE",
"994 119 LINE",
"994 7 LINE",
"935 -6 OFFCURVE",
"831 -22 OFFCURVE",
"763 -22 CURVE SMOOTH",
"700 -22 OFFCURVE",
"670 -12 OFFCURVE",
"656 17 CURVE SMOOTH",
"649 31 OFFCURVE",
"645 52 OFFCURVE",
"645 79 CURVE SMOOTH",
"645 106 LINE",
"588 39 OFFCURVE",
"486 -20 OFFCURVE",
"358 -20 CURVE SMOOTH",
"246 -20 OFFCURVE",
"148 26 OFFCURVE",
"93 117 CURVE SMOOTH",
"65 162 OFFCURVE",
"51 217 OFFCURVE",
"51 281 CURVE SMOOTH",
"51 501 OFFCURVE",
"270 613 OFFCURVE",
"634 617 CURVE"
);
},
{
closed = 1;
nodes = (
"634 498 LINE",
"439 497 OFFCURVE",
"356 420 OFFCURVE",
"356 313 CURVE SMOOTH",
"356 205 OFFCURVE",
"410 145 OFFCURVE",
"495 145 CURVE SMOOTH",
"535 145 OFFCURVE",
"598 170 OFFCURVE",
"634 202 CURVE"
);
},
{
closed = 1;
nodes = (
"134 1415 OFFCURVE",
"189 1485 OFFCURVE",
"290 1485 CURVE SMOOTH",
"291 1485 LINE SMOOTH",
"383 1485 OFFCURVE",
"434 1424 OFFCURVE",
"434 1343 CURVE SMOOTH",
"434 1243 OFFCURVE",
"378 1176 OFFCURVE",
"266 1176 CURVE SMOOTH",
"265 1176 LINE SMOOTH",
"214 1176 OFFCURVE",
"174 1203 OFFCURVE",
"151 1247 CURVE SMOOTH",
"140 1269 OFFCURVE",
"134 1293 OFFCURVE",
"134 1318 CURVE SMOOTH"
);
},
{
closed = 1;
nodes = (
"578 1415 OFFCURVE",
"633 1485 OFFCURVE",
"733 1485 CURVE SMOOTH",
"734 1485 LINE SMOOTH",
"827 1485 OFFCURVE",
"877 1424 OFFCURVE",
"877 1343 CURVE SMOOTH",
"877 1243 OFFCURVE",
"820 1176 OFFCURVE",
"709 1176 CURVE SMOOTH",
"708 1176 LINE SMOOTH",
"657 1176 OFFCURVE",
"617 1205 OFFCURVE",
"595 1249 CURVE SMOOTH",
"584 1271 OFFCURVE",
"578 1294 OFFCURVE",
"578 1318 CURVE SMOOTH"
);
}
);
width = 1021;
}
);
note = adieresis;
unicode = 00E4;
},
{
glyphname = agrave;
layers = (
{
layerId = "35FD6BC4-8300-47F6-A560-C4E3FDEA81EC";
name = Bold;
paths = (
{
closed = 1;
nodes = (
"634 654 LINE SMOOTH",
"634 742 OFFCURVE",
"618 791 OFFCURVE",
"567 817 CURVE SMOOTH",
"541 830 OFFCURVE",
"504 836 OFFCURVE",
"456 836 CURVE SMOOTH",
"336 836 OFFCURVE",
"245 806 OFFCURVE",
"148 765 CURVE",
"147 765 LINE",
"90 884 LINE",
"129 916 OFFCURVE",
"223 966 OFFCURVE",
"344 999 CURVE SMOOTH",
"404 1016 OFFCURVE",
"465 1024 OFFCURVE",
"528 1024 CURVE SMOOTH",
"716 1024 OFFCURVE",
"819 977 OFFCURVE",
"864 872 CURVE SMOOTH",
"887 819 OFFCURVE",
"898 748 OFFCURVE",
"898 658 CURVE SMOOTH",
"898 119 LINE",
"994 119 LINE",
"994 7 LINE",
"935 -6 OFFCURVE",
"831 -22 OFFCURVE",
"763 -22 CURVE SMOOTH",
"700 -22 OFFCURVE",
"670 -12 OFFCURVE",
"656 17 CURVE SMOOTH",
"649 31 OFFCURVE",
"645 52 OFFCURVE",
"645 79 CURVE SMOOTH",
"645 106 LINE",
"588 39 OFFCURVE",
"486 -20 OFFCURVE",
"358 -20 CURVE SMOOTH",
"246 -20 OFFCURVE",
"148 26 OFFCURVE",
"93 117 CURVE SMOOTH",
"65 162 OFFCURVE",
"51 217 OFFCURVE",
"51 281 CURVE SMOOTH",
"51 501 OFFCURVE",
"270 613 OFFCURVE",
"634 617 CURVE"
);
},
{
closed = 1;
nodes = (
"634 498 LINE",
"439 497 OFFCURVE",
"356 420 OFFCURVE",
"356 313 CURVE SMOOTH",
"356 205 OFFCURVE",
"410 145 OFFCURVE",
"495 145 CURVE SMOOTH",
"535 145 OFFCURVE",
"598 170 OFFCURVE",
"634 202 CURVE"
);
},
{
closed = 1;
nodes = (
"337 1617 LINE",
"338 1617 LINE",
"652 1238 LINE",
"546 1150 LINE",
"545 1150 LINE",
"480 1174 OFFCURVE",
"361 1258 OFFCURVE",
"266 1347 CURVE SMOOTH",
"218 1391 OFFCURVE",
"185 1430 OFFCURVE",
"166 1463 CURVE"
);
}
);
width = 1021;
}
);
note = agrave;
unicode = 00E0;
},
{
glyphname = amacron;
layers = (
{
layerId = "35FD6BC4-8300-47F6-A560-C4E3FDEA81EC";
name = Bold;
paths = (
{
closed = 1;
nodes = (
"634 654 LINE SMOOTH",
"634 742 OFFCURVE",
"618 791 OFFCURVE",
"567 817 CURVE SMOOTH",
"541 830 OFFCURVE",
"504 836 OFFCURVE",
"456 836 CURVE SMOOTH",
"336 836 OFFCURVE",
"245 806 OFFCURVE",
"148 765 CURVE",
"147 765 LINE",
"90 884 LINE",
"129 916 OFFCURVE",
"223 966 OFFCURVE",
"344 999 CURVE SMOOTH",
"404 1016 OFFCURVE",
"465 1024 OFFCURVE",
"528 1024 CURVE SMOOTH",
"716 1024 OFFCURVE",
"819 977 OFFCURVE",
"864 872 CURVE SMOOTH",
"887 819 OFFCURVE",
"898 748 OFFCURVE",
"898 658 CURVE SMOOTH",
"898 119 LINE",
"994 119 LINE",
"994 7 LINE",
"935 -6 OFFCURVE",
"831 -22 OFFCURVE",
"763 -22 CURVE SMOOTH",
"700 -22 OFFCURVE",
"670 -12 OFFCURVE",
"656 17 CURVE SMOOTH",
"649 31 OFFCURVE",
"645 52 OFFCURVE",
"645 79 CURVE SMOOTH",
"645 106 LINE",
"588 39 OFFCURVE",
"486 -20 OFFCURVE",
"358 -20 CURVE SMOOTH",
"246 -20 OFFCURVE",
"148 26 OFFCURVE",
"93 117 CURVE SMOOTH",
"65 162 OFFCURVE",
"51 217 OFFCURVE",
"51 281 CURVE SMOOTH",
"51 501 OFFCURVE",
"270 613 OFFCURVE",
"634 617 CURVE"
);
},
{
closed = 1;
nodes = (
"634 498 LINE",
"439 497 OFFCURVE",
"356 420 OFFCURVE",
"356 313 CURVE SMOOTH",
"356 205 OFFCURVE",
"410 145 OFFCURVE",
"495 145 CURVE SMOOTH",
"535 145 OFFCURVE",
"598 170 OFFCURVE",
"634 202 CURVE"
);
},
{
closed = 1;
nodes = (
"775 1422 LINE",
"775 1250 LINE",
"231 1250 LINE",
"231 1422 LINE"
);
}
);
width = 1021;
}
);
note = amacron;
unicode = 0101;
},
{
glyphname = aogonek;
layers = (
{
layerId = "35FD6BC4-8300-47F6-A560-C4E3FDEA81EC";
name = Bold;
paths = (
{
closed = 1;
nodes = (
"634 654 LINE SMOOTH",
"634 742 OFFCURVE",
"618 791 OFFCURVE",
"567 817 CURVE SMOOTH",
"541 830 OFFCURVE",
"504 836 OFFCURVE",
"456 836 CURVE SMOOTH",
"336 836 OFFCURVE",
"245 806 OFFCURVE",
"148 765 CURVE",
"147 765 LINE",
"90 884 LINE",
"129 916 OFFCURVE",
"223 966 OFFCURVE",
"344 999 CURVE SMOOTH",
"404 1016 OFFCURVE",
"465 1024 OFFCURVE",
"528 1024 CURVE SMOOTH",
"716 1024 OFFCURVE",
"819 977 OFFCURVE",
"864 872 CURVE SMOOTH",
"887 819 OFFCURVE",
"898 748 OFFCURVE",
"898 658 CURVE SMOOTH",
"898 119 LINE",
"994 119 LINE",
"994 7 LINE",
"993 6 OFFCURVE",
"992 6 OFFCURVE",
"990 6 CURVE",
"905 -18 OFFCURVE",
"830 -69 OFFCURVE",
"790 -122 CURVE SMOOTH",
"770 -149 OFFCURVE",
"760 -173 OFFCURVE",
"760 -194 CURVE SMOOTH",
"760 -255 OFFCURVE",
"805 -290 OFFCURVE",
"877 -290 CURVE SMOOTH",
"917 -290 OFFCURVE",
"941 -284 OFFCURVE",
"984 -268 CURVE",
"984 -392 LINE",
"936 -428 OFFCURVE",
"843 -451 OFFCURVE",
"766 -451 CURVE SMOOTH",
"621 -451 OFFCURVE",
"525 -385 OFFCURVE",
"525 -272 CURVE SMOOTH",
"525 -183 OFFCURVE",
"620 -85 OFFCURVE",
"757 -22 CURVE",
"698 -21 OFFCURVE",
"668 -11 OFFCURVE",
"655 17 CURVE SMOOTH",
"648 31 OFFCURVE",
"645 52 OFFCURVE",
"645 79 CURVE SMOOTH",
"645 106 LINE",
"588 39 OFFCURVE",
"486 -20 OFFCURVE",
"358 -20 CURVE SMOOTH",
"246 -20 OFFCURVE",
"148 26 OFFCURVE",
"93 117 CURVE SMOOTH",
"65 162 OFFCURVE",
"51 217 OFFCURVE",
"51 281 CURVE SMOOTH",
"51 501 OFFCURVE",
"270 613 OFFCURVE",
"634 617 CURVE"
);
},
{
closed = 1;
nodes = (
"634 498 LINE",
"439 497 OFFCURVE",
"356 420 OFFCURVE",
"356 313 CURVE SMOOTH",
"356 205 OFFCURVE",
"410 145 OFFCURVE",
"495 145 CURVE SMOOTH",
"535 145 OFFCURVE",
"598 170 OFFCURVE",
"634 202 CURVE"
);
}
);
width = 1026;
}
);
note = aogonek;
unicode = 0105;
},
{
glyphname = aring;
layers = (
{
layerId = "35FD6BC4-8300-47F6-A560-C4E3FDEA81EC";
name = Bold;
paths = (
{
closed = 1;
nodes = (
"634 654 LINE SMOOTH",
"634 742 OFFCURVE",
"618 791 OFFCURVE",
"567 817 CURVE SMOOTH",
"541 830 OFFCURVE",
"504 836 OFFCURVE",
"456 836 CURVE SMOOTH",
"336 836 OFFCURVE",
"245 806 OFFCURVE",
"148 765 CURVE",
"147 765 LINE",
"90 884 LINE",
"129 916 OFFCURVE",
"223 966 OFFCURVE",
"344 999 CURVE SMOOTH",
"404 1016 OFFCURVE",
"465 1024 OFFCURVE",
"528 1024 CURVE SMOOTH",
"716 1024 OFFCURVE",
"819 977 OFFCURVE",
"864 872 CURVE SMOOTH",
"887 819 OFFCURVE",
"898 748 OFFCURVE",
"898 658 CURVE SMOOTH",
"898 119 LINE",
"994 119 LINE",
"994 7 LINE",
"935 -6 OFFCURVE",
"831 -22 OFFCURVE",
"763 -22 CURVE SMOOTH",
"700 -22 OFFCURVE",
"670 -12 OFFCURVE",
"656 17 CURVE SMOOTH",
"649 31 OFFCURVE",
"645 52 OFFCURVE",
"645 79 CURVE SMOOTH",
"645 106 LINE",
"588 39 OFFCURVE",
"486 -20 OFFCURVE",
"358 -20 CURVE SMOOTH",
"246 -20 OFFCURVE",
"148 26 OFFCURVE",
"93 117 CURVE SMOOTH",
"65 162 OFFCURVE",
"51 217 OFFCURVE",
"51 281 CURVE SMOOTH",
"51 501 OFFCURVE",
"270 613 OFFCURVE",
"634 617 CURVE"
);
},
{
closed = 1;
nodes = (
"634 498 LINE",
"439 497 OFFCURVE",
"356 420 OFFCURVE",
"356 313 CURVE SMOOTH",
"356 205 OFFCURVE",
"410 145 OFFCURVE",
"495 145 CURVE SMOOTH",
"535 145 OFFCURVE",
"598 170 OFFCURVE",
"634 202 CURVE"
);
},
{
closed = 1;
nodes = (
"188 1506 OFFCURVE",
"252 1587 OFFCURVE",
"352 1628 CURVE SMOOTH",
"401 1648 OFFCURVE",
"454 1658 OFFCURVE",
"511 1658 CURVE SMOOTH",
"512 1658 LINE SMOOTH",
"645 1658 OFFCURVE",
"736 1611 OFFCURVE",
"781 1534 CURVE SMOOTH",
"803 1495 OFFCURVE",
"814 1451 OFFCURVE",
"814 1400 CURVE SMOOTH",
"814 1293 OFFCURVE",
"755 1212 OFFCURVE",
"659 1171 CURVE SMOOTH",
"610 1150 OFFCURVE",
"557 1140 OFFCURVE",
"498 1140 CURVE SMOOTH",
"497 1140 LINE SMOOTH",
"289 1140 OFFCURVE",
"188 1242 OFFCURVE",
"188 1397 CURVE SMOOTH"
);
},
{
closed = 1;
nodes = (
"503 1260 LINE SMOOTH",
"607 1260 OFFCURVE",
"644 1300 OFFCURVE",
"644 1392 CURVE SMOOTH",
"644 1479 OFFCURVE",
"601 1535 OFFCURVE",
"504 1535 CURVE SMOOTH",
"503 1535 LINE SMOOTH",
"400 1535 OFFCURVE",
"358 1491 OFFCURVE",
"358 1404 CURVE SMOOTH",
"358 1320 OFFCURVE",
"407 1260 OFFCURVE",
"502 1260 CURVE SMOOTH"
);
}
);
width = 1021;
}
);
note = aring;
unicode = 00E5;
},
{
glyphname = atilde;
layers = (
{
layerId = "35FD6BC4-8300-47F6-A560-C4E3FDEA81EC";
name = Bold;
paths = (
{
closed = 1;
nodes = (
"634 654 LINE SMOOTH",
"634 742 OFFCURVE",
"618 791 OFFCURVE",
"567 817 CURVE SMOOTH",
"541 830 OFFCURVE",
"504 836 OFFCURVE",
"456 836 CURVE SMOOTH",
"336 836 OFFCURVE",
"245 806 OFFCURVE",
"148 765 CURVE",
"147 765 LINE",
"90 884 LINE",
"129 916 OFFCURVE",
"223 966 OFFCURVE",
"344 999 CURVE SMOOTH",
"404 1016 OFFCURVE",
"465 1024 OFFCURVE",
"528 1024 CURVE SMOOTH",
"716 1024 OFFCURVE",
"819 977 OFFCURVE",
"864 872 CURVE SMOOTH",
"887 819 OFFCURVE",
"898 748 OFFCURVE",
"898 658 CURVE SMOOTH",
"898 119 LINE",
"994 119 LINE",
"994 7 LINE",
"935 -6 OFFCURVE",
"831 -22 OFFCURVE",
"763 -22 CURVE SMOOTH",
"700 -22 OFFCURVE",
"670 -12 OFFCURVE",
"656 17 CURVE SMOOTH",
"649 31 OFFCURVE",
"645 52 OFFCURVE",
"645 79 CURVE SMOOTH",
"645 106 LINE",
"588 39 OFFCURVE",
"486 -20 OFFCURVE",
"358 -20 CURVE SMOOTH",
"246 -20 OFFCURVE",
"148 26 OFFCURVE",
"93 117 CURVE SMOOTH",
"65 162 OFFCURVE",
"51 217 OFFCURVE",
"51 281 CURVE SMOOTH",
"51 501 OFFCURVE",
"270 613 OFFCURVE",
"634 617 CURVE"
);
},
{
closed = 1;
nodes = (
"634 498 LINE",
"439 497 OFFCURVE",
"356 420 OFFCURVE",
"356 313 CURVE SMOOTH",
"356 205 OFFCURVE",
"410 145 OFFCURVE",
"495 145 CURVE SMOOTH",
"535 145 OFFCURVE",
"598 170 OFFCURVE",
"634 202 CURVE"
);
},
{
closed = 1;
nodes = (
"102 1291 LINE",
"129 1351 OFFCURVE",
"178 1416 OFFCURVE",
"252 1457 CURVE SMOOTH",
"289 1478 OFFCURVE",
"330 1488 OFFCURVE",
"375 1488 CURVE SMOOTH",
"450 1488 OFFCURVE",
"496 1460 OFFCURVE",
"561 1407 CURVE SMOOTH",
"613 1366 OFFCURVE",
"643 1346 OFFCURVE",
"684 1346 CURVE SMOOTH",
"731 1346 OFFCURVE",
"766 1370 OFFCURVE",
"783 1390 CURVE",
"792 1399 OFFCURVE",
"803 1414 OFFCURVE",
"818 1433 CURVE",
"911 1360 LINE",
"847 1229 OFFCURVE",
"760 1163 OFFCURVE",
"650 1163 CURVE SMOOTH",
"578 1163 OFFCURVE",
"533 1191 OFFCURVE",
"466 1243 CURVE SMOOTH",
"410 1284 OFFCURVE",
"379 1305 OFFCURVE",
"332 1305 CURVE SMOOTH",
"288 1305 OFFCURVE",
"252 1282 OFFCURVE",
"233 1263 CURVE SMOOTH",
"224 1254 OFFCURVE",
"211 1239 OFFCURVE",
"194 1220 CURVE"
);
}
);
width = 1021;
}
);
note = atilde;
unicode = 00E3;
},
{
glyphname = ae;
layers = (
{
layerId = "35FD6BC4-8300-47F6-A560-C4E3FDEA81EC";
name = Bold;
paths = (
{
closed = 1;
nodes = (
"676 96 OFFCURVE",
"600 37 OFFCURVE",
"505 5 CURVE SMOOTH",
"458 -12 OFFCURVE",
"408 -20 OFFCURVE",
"356 -20 CURVE SMOOTH",
"245 -20 OFFCURVE",
"148 24 OFFCURVE",
"93 112 CURVE SMOOTH",
"66 155 OFFCURVE",
"52 209 OFFCURVE",
"52 272 CURVE SMOOTH",
"52 423 OFFCURVE",
"152 526 OFFCURVE",
"327 577 CURVE SMOOTH",
"414 602 OFFCURVE",
"517 616 OFFCURVE",
"634 617 CURVE",
"634 655 LINE SMOOTH",
"634 740 OFFCURVE",
"618 789 OFFCURVE",
"566 814 CURVE SMOOTH",
"539 826 OFFCURVE",
"502 832 OFFCURVE",
"453 832 CURVE SMOOTH",
"334 832 OFFCURVE",
"244 805 OFFCURVE",
"140 761 CURVE",
"82 884 LINE",
"121 917 OFFCURVE",
"218 968 OFFCURVE",
"342 1000 CURVE SMOOTH",
"403 1016 OFFCURVE",
"465 1024 OFFCURVE",
"528 1024 CURVE SMOOTH",
"677 1024 OFFCURVE",
"764 995 OFFCURVE",
"812 927 CURVE",
"893 992 OFFCURVE",
"999 1027 OFFCURVE",
"1122 1027 CURVE SMOOTH",
"1377 1027 OFFCURVE",
"1509 891 OFFCURVE",
"1509 643 CURVE SMOOTH",
"1509 576 OFFCURVE",
"1505 520 OFFCURVE",
"1496 477 CURVE",
"925 477 LINE",
"938 260 OFFCURVE",
"1035 158 OFFCURVE",
"1187 158 CURVE SMOOTH",
"1278 158 OFFCURVE",
"1389 195 OFFCURVE",
"1448 232 CURVE",
"1496 124 LINE",
"1455 81 OFFCURVE",
"1371 33 OFFCURVE",
"1267 3 CURVE SMOOTH",
"1215 -12 OFFCURVE",
"1163 -20 OFFCURVE",
"1111 -20 CURVE SMOOTH",
"926 -20 OFFCURVE",
"797 44 OFFCURVE",
"720 161 CURVE"
);
},
{
closed = 1;
nodes = (
"1225 598 LINE",
"1227 671 LINE SMOOTH",
"1227 826 OFFCURVE",
"1181 903 OFFCURVE",
"1088 903 CURVE SMOOTH",
"1021 903 OFFCURVE",
"974 874 OFFCURVE",
"946 785 CURVE SMOOTH",
"932 740 OFFCURVE",
"924 678 OFFCURVE",
"922 598 CURVE"
);
},
{
closed = 1;
nodes = (
"648 321 OFFCURVE",
"634 405 OFFCURVE",
"634 500 CURVE SMOOTH",
"634 502 LINE",
"503 502 OFFCURVE",
"422 462 OFFCURVE",
"387 406 CURVE SMOOTH",
"369 377 OFFCURVE",
"360 346 OFFCURVE",
"360 312 CURVE SMOOTH",
"360 197 OFFCURVE",
"409 145 OFFCURVE",
"490 145 CURVE SMOOTH",
"562 145 OFFCURVE",
"639 195 OFFCURVE",
"675 250 CURVE"
);
}
);
width = 1564;
}
);
note = ae;
unicode = 00E6;
},
{
glyphname = aeacute;
layers = (
{
layerId = "35FD6BC4-8300-47F6-A560-C4E3FDEA81EC";
name = Bold;
paths = (
{
closed = 1;
nodes = (
"943 1617 LINE",
"944 1617 LINE",
"1115 1463 LINE",
"1076 1396 OFFCURVE",
"969 1299 OFFCURVE",
"864 1224 CURVE SMOOTH",
"811 1187 OFFCURVE",
"769 1162 OFFCURVE",
"736 1150 CURVE",
"735 1150 LINE",
"628 1238 LINE"
);
},
{
closed = 1;
nodes = (
"676 96 OFFCURVE",
"600 37 OFFCURVE",
"505 5 CURVE SMOOTH",
"458 -12 OFFCURVE",
"408 -20 OFFCURVE",
"356 -20 CURVE SMOOTH",
"245 -20 OFFCURVE",
"148 24 OFFCURVE",
"93 112 CURVE SMOOTH",
"66 155 OFFCURVE",
"52 209 OFFCURVE",
"52 272 CURVE SMOOTH",
"52 423 OFFCURVE",
"152 526 OFFCURVE",
"327 577 CURVE SMOOTH",
"414 602 OFFCURVE",
"517 616 OFFCURVE",
"634 617 CURVE",
"634 655 LINE SMOOTH",
"634 740 OFFCURVE",
"618 789 OFFCURVE",
"566 814 CURVE SMOOTH",
"539 826 OFFCURVE",
"502 832 OFFCURVE",
"453 832 CURVE SMOOTH",
"334 832 OFFCURVE",
"244 805 OFFCURVE",
"140 761 CURVE",
"82 884 LINE",
"121 917 OFFCURVE",
"218 968 OFFCURVE",
"342 1000 CURVE SMOOTH",
"403 1016 OFFCURVE",
"465 1024 OFFCURVE",
"528 1024 CURVE SMOOTH",
"677 1024 OFFCURVE",
"764 995 OFFCURVE",
"812 927 CURVE",
"893 992 OFFCURVE",
"999 1027 OFFCURVE",
"1122 1027 CURVE SMOOTH",
"1377 1027 OFFCURVE",
"1509 891 OFFCURVE",
"1509 643 CURVE SMOOTH",
"1509 576 OFFCURVE",
"1505 520 OFFCURVE",
"1496 477 CURVE",
"925 477 LINE",
"938 260 OFFCURVE",
"1035 158 OFFCURVE",
"1187 158 CURVE SMOOTH",
"1278 158 OFFCURVE",
"1389 195 OFFCURVE",
"1448 232 CURVE",
"1496 124 LINE",
"1455 81 OFFCURVE",
"1371 33 OFFCURVE",
"1267 3 CURVE SMOOTH",
"1215 -12 OFFCURVE",
"1163 -20 OFFCURVE",
"1111 -20 CURVE SMOOTH",
"926 -20 OFFCURVE",
"797 44 OFFCURVE",
"720 161 CURVE"
);
},
{
closed = 1;
nodes = (
"1225 598 LINE",
"1227 671 LINE SMOOTH",
"1227 826 OFFCURVE",
"1181 903 OFFCURVE",
"1088 903 CURVE SMOOTH",
"1021 903 OFFCURVE",
"974 874 OFFCURVE",
"946 785 CURVE SMOOTH",
"932 740 OFFCURVE",
"924 678 OFFCURVE",
"922 598 CURVE"
);
},
{
closed = 1;
nodes = (
"648 321 OFFCURVE",
"634 405 OFFCURVE",
"634 500 CURVE SMOOTH",
"634 502 LINE",
"503 502 OFFCURVE",
"422 462 OFFCURVE",
"387 406 CURVE SMOOTH",
"369 377 OFFCURVE",
"360 346 OFFCURVE",
"360 312 CURVE SMOOTH",
"360 197 OFFCURVE",
"409 145 OFFCURVE",
"490 145 CURVE SMOOTH",
"562 145 OFFCURVE",
"639 195 OFFCURVE",
"675 250 CURVE"
);
}
);
width = 1557;
}
);
note = aeacute;
unicode = 01FD;
},
{
glyphname = b;
layers = (
{
layerId = "35FD6BC4-8300-47F6-A560-C4E3FDEA81EC";
name = Bold;
paths = (
{
closed = 1;
nodes = (
"0 1331 LINE",
"0 1435 LINE",
"348 1478 LINE",
"353 1478 LINE",
"411 1442 LINE",
"411 917 LINE",
"472 980 OFFCURVE",
"564 1028 OFFCURVE",
"671 1028 CURVE SMOOTH",
"818 1028 OFFCURVE",
"940 962 OFFCURVE",
"1009 814 CURVE SMOOTH",
"1043 740 OFFCURVE",
"1060 646 OFFCURVE",
"1060 533 CURVE SMOOTH",
"1060 325 OFFCURVE",
"970 149 OFFCURVE",
"807 53 CURVE SMOOTH",
"726 4 OFFCURVE",
"631 -20 OFFCURVE",
"522 -20 CURVE SMOOTH",
"383 -20 OFFCURVE",
"268 -2 OFFCURVE",
"198 21 CURVE SMOOTH",
"163 32 OFFCURVE",
"140 42 OFFCURVE",
"129 49 CURVE",
"129 1309 LINE"
);
},
{
closed = 1;
nodes = (
"411 135 LINE",
"423 108 OFFCURVE",
"471 92 OFFCURVE",
"532 92 CURVE SMOOTH",
"620 92 OFFCURVE",
"690 154 OFFCURVE",
"727 279 CURVE SMOOTH",
"746 341 OFFCURVE",
"755 418 OFFCURVE",
"755 510 CURVE SMOOTH",
"755 745 OFFCURVE",
"681 855 OFFCURVE",
"560 855 CURVE SMOOTH",
"497 855 OFFCURVE",
"442 824 OFFCURVE",
"411 788 CURVE"
);
}
);
width = 1120;
}
);
note = b;
unicode = 0062;
},
{
glyphname = c;
layers = (
{
layerId = "35FD6BC4-8300-47F6-A560-C4E3FDEA81EC";
name = Bold;
paths = (
{
closed = 1;
nodes = (
"674 1028 OFFCURVE",
"734 1014 OFFCURVE",
"818 990 CURVE SMOOTH",
"847 981 OFFCURVE",
"869 976 OFFCURVE",
"884 973 CURVE",
"871 661 LINE",
"694 661 LINE",
"649 849 LINE",
"637 884 OFFCURVE",
"601 899 OFFCURVE",
"554 899 CURVE SMOOTH",
"431 899 OFFCURVE",
"370 781 OFFCURVE",
"370 544 CURVE SMOOTH",
"370 371 OFFCURVE",
"412 254 OFFCURVE",
"481 198 CURVE SMOOTH",
"515 169 OFFCURVE",
"555 155 OFFCURVE",
"600 155 CURVE SMOOTH",
"701 155 OFFCURVE",
"776 183 OFFCURVE",
"841 226 CURVE",
"890 120 LINE",
"854 80 OFFCURVE",
"780 33 OFFCURVE",
"684 3 CURVE SMOOTH",
"635 -12 OFFCURVE",
"585 -20 OFFCURVE",
"532 -20 CURVE SMOOTH",
"320 -20 OFFCURVE",
"182 72 OFFCURVE",
"116 225 CURVE SMOOTH",
"50 377 OFFCURVE",
"44 609 OFFCURVE",
"129 771 CURVE SMOOTH",
"214 933 OFFCURVE",
"375 1028 OFFCURVE",
"582 1028 CURVE SMOOTH"
);
}
);
width = 934;
}
);
note = c;
unicode = 0063;
},
{
glyphname = cacute;
layers = (
{
layerId = "35FD6BC4-8300-47F6-A560-C4E3FDEA81EC";
name = Bold;
paths = (
{
closed = 1;
nodes = (
"687 1616 LINE",
"688 1616 LINE",
"859 1462 LINE",
"820 1395 OFFCURVE",
"713 1298 OFFCURVE",
"608 1223 CURVE SMOOTH",
"555 1186 OFFCURVE",
"513 1161 OFFCURVE",
"480 1149 CURVE",
"479 1149 LINE",
"372 1237 LINE"
);
},
{
closed = 1;
nodes = (
"674 1028 OFFCURVE",
"734 1014 OFFCURVE",
"818 990 CURVE SMOOTH",
"847 981 OFFCURVE",
"869 976 OFFCURVE",
"884 973 CURVE",
"871 661 LINE",
"694 661 LINE",
"649 849 LINE",
"637 884 OFFCURVE",
"601 899 OFFCURVE",
"554 899 CURVE SMOOTH",
"431 899 OFFCURVE",
"370 781 OFFCURVE",
"370 544 CURVE SMOOTH",
"370 371 OFFCURVE",
"412 254 OFFCURVE",
"481 198 CURVE SMOOTH",
"515 169 OFFCURVE",
"555 155 OFFCURVE",
"600 155 CURVE SMOOTH",
"701 155 OFFCURVE",
"776 183 OFFCURVE",
"841 226 CURVE",
"890 120 LINE",
"854 80 OFFCURVE",
"780 33 OFFCURVE",
"684 3 CURVE SMOOTH",
"635 -12 OFFCURVE",
"585 -20 OFFCURVE",
"532 -20 CURVE SMOOTH",
"320 -20 OFFCURVE",
"182 72 OFFCURVE",
"116 225 CURVE SMOOTH",
"50 377 OFFCURVE",
"44 609 OFFCURVE",
"129 771 CURVE SMOOTH",
"214 933 OFFCURVE",
"375 1028 OFFCURVE",
"582 1028 CURVE SMOOTH"
);
}
);
width = 934;
}
);
note = cacute;
unicode = 0107;
},
